<?xml version="1.0" encoding="UTF-8"?>
<svg xmlns="http://www.w3.org/2000/svg"
     xmlns:xlink="http://www.w3.org/1999/xlink"
     xmlns:gadfly="http://www.gadflyjl.org/ns"
     version="1.2"
     width="101.6mm" height="76.2mm" viewBox="0 0 101.6 76.2"
     stroke="none"
     fill="#000000"
     stroke-width="0.3"
     font-size="3.88"
>
<g class="plotroot xscalable yscalable" id="fig-0117c318d6e041328ee7b648dcda9e4b-element-1">
  <g font-size="3.88" font-family="'PT Sans','Helvetica Neue','Helvetica',sans-serif" fill="#564A55" stroke="#000000" stroke-opacity="0.000" id="fig-0117c318d6e041328ee7b648dcda9e4b-element-2">
    <text x="57.62" y="68.2" text-anchor="middle">x</text>
  </g>
  <g class="guide xlabels" font-size="2.82" font-family="'PT Sans Caption','Helvetica Neue','Helvetica',sans-serif" fill="#6C606B" id="fig-0117c318d6e041328ee7b648dcda9e4b-element-3">
    <text x="20.63" y="60.59" text-anchor="middle">0</text>
    <text x="35.43" y="60.59" text-anchor="middle">1</text>
    <text x="50.22" y="60.59" text-anchor="middle">2</text>
    <text x="65.01" y="60.59" text-anchor="middle">3</text>
    <text x="79.81" y="60.59" text-anchor="middle">4</text>
    <text x="94.6" y="60.59" text-anchor="middle">5</text>
  </g>
  <g clip-path="url(#fig-0117c318d6e041328ee7b648dcda9e4b-element-5)" id="fig-0117c318d6e041328ee7b648dcda9e4b-element-4">
    <g pointer-events="visible" opacity="1" fill="#000000" fill-opacity="0.000" stroke="#000000" stroke-opacity="0.000" class="guide background" id="fig-0117c318d6e041328ee7b648dcda9e4b-element-6">
      <rect x="18.63" y="5" width="77.97" height="51.91"/>
    </g>
    <g class="guide ygridlines xfixed" stroke-dasharray="0.5,0.5" stroke-width="0.2" stroke="#D0D0E0" id="fig-0117c318d6e041328ee7b648dcda9e4b-element-7">
      <path fill="none" d="M18.63,54.91 L 96.6 54.91"/>
      <path fill="none" d="M18.63,42.94 L 96.6 42.94"/>
      <path fill="none" d="M18.63,30.96 L 96.6 30.96"/>
      <path fill="none" d="M18.63,18.98 L 96.6 18.98"/>
      <path fill="none" d="M18.63,7 L 96.6 7"/>
    </g>
    <g class="guide xgridlines yfixed" stroke-dasharray="0.5,0.5" stroke-width="0.2" stroke="#D0D0E0" id="fig-0117c318d6e041328ee7b648dcda9e4b-element-8">
      <path fill="none" d="M20.63,5 L 20.63 56.91"/>
      <path fill="none" d="M35.43,5 L 35.43 56.91"/>
      <path fill="none" d="M50.22,5 L 50.22 56.91"/>
      <path fill="none" d="M65.01,5 L 65.01 56.91"/>
      <path fill="none" d="M79.81,5 L 79.81 56.91"/>
      <path fill="none" d="M94.6,5 L 94.6 56.91"/>
    </g>
    <g class="plotpanel" id="fig-0117c318d6e041328ee7b648dcda9e4b-element-9">
      <g stroke-width="0.3" fill="#000000" fill-opacity="0.000" class="geometry" stroke="#1A3E7B" id="fig-0117c318d6e041328ee7b648dcda9e4b-element-10">
        <path fill="none" d="M20.63,52.06 L 20.93 52.07 21.23 52.07 21.52 52.08 21.82 52.09 22.12 52.09 22.41 52.1 22.71 52.11 23.01 52.11 23.31 52.12 23.6 52.13 23.9 52.13 24.2 52.14 24.49 52.15 24.79 52.15 25.09 52.16 25.38 52.17 25.68 52.17 25.98 52.18 26.28 52.19 26.57 52.19 26.87 52.2 27.17 52.21 27.46 52.21 27.76 52.22 28.06 52.22 28.36 52.23 28.65 52.24 28.95 52.24 29.25 52.25 29.54 52.26 29.84 52.26 30.14 52.27 30.43 52.28 30.73 52.28 31.03 52.29 31.33 52.29 31.62 52.3 31.92 52.31 32.22 52.31 32.51 52.32 32.81 52.33 33.11 52.33 33.41 52.34 33.7 52.34 34 52.35 34.3 52.36 34.59 52.36 34.89 52.37 35.19 52.38 35.48 52.38 35.78 52.39 36.08 52.39 36.38 52.4 36.67 52.41 36.97 52.41 37.27 52.42 37.56 52.42 37.86 52.43 38.16 52.44 38.46 52.44 38.75 52.45 39.05 52.45 39.35 52.46 39.64 52.46 39.94 52.47 40.24 52.48 40.53 52.48 40.83 52.49 41.13 52.49 41.43 52.5 41.72 52.51 42.02 52.51 42.32 52.52 42.61 52.52 42.91 52.53 43.21 52.53 43.51 52.54 43.8 52.55 44.1 52.55 44.4 52.56 44.69 52.56 44.99 52.57 45.29 52.57 45.58 52.58 45.88 52.58 46.18 52.59 46.48 52.6 46.77 52.6 47.07 52.61 47.37 52.61 47.66 52.62 47.96 52.62 48.26 52.63 48.56 52.63 48.85 52.64 49.15 52.65 49.45 52.65 49.74 52.66 50.04 52.66 50.34 52.67 50.63 52.67 50.93 52.68 51.23 52.68 51.53 52.69 51.82 52.69 52.12 52.7 52.42 52.7 52.71 52.71 53.01 52.71 53.31 52.72 53.61 52.73 53.9 52.73 54.2 52.74 54.5 52.74 54.79 52.75 55.09 52.75 55.39 52.76 55.68 52.76 55.98 52.77 56.28 52.77 56.58 52.78 56.87 52.78 57.17 52.79 57.47 52.79 57.76 52.8 58.06 52.8 58.36 52.81 58.66 52.81 58.95 52.82 59.25 52.82 59.55 52.83 59.84 52.83 60.14 52.84 60.44 52.84 60.73 52.85 61.03 52.85 61.33 52.86 61.63 52.86 61.92 52.87 62.22 52.87 62.52 52.88 62.81 52.88 63.11 52.89 63.41 52.89 63.71 52.9 64 52.9 64.3 52.91 64.6 52.91 64.89 52.92 65.19 52.92 65.49 52.93 65.79 52.93 66.08 52.93 66.38 52.94 66.68 52.94 66.97 52.95 67.27 52.95 67.57 52.96 67.86 52.96 68.16 52.97 68.46 52.97 68.76 52.98 69.05 52.98 69.35 52.99 69.65 52.99 69.94 53 70.24 53 70.54 53 70.84 53.01 71.13 53.01 71.43 53.02 71.73 53.02 72.02 53.03 72.32 53.03 72.62 53.04 72.91 53.04 73.21 53.05 73.51 53.05 73.81 53.05 74.1 53.06 74.4 53.06 74.7 53.07 74.99 53.07 75.29 53.08 75.59 53.08 75.89 53.09 76.18 53.09 76.48 53.09 76.78 53.1 77.07 53.1 77.37 53.11 77.67 53.11 77.96 53.12 78.26 53.12 78.56 53.12 78.86 53.13 79.15 53.13 79.45 53.14 79.75 53.14 80.04 53.15 80.34 53.15 80.64 53.15 80.94 53.16 81.23 53.16 81.53 53.17 81.83 53.17 82.12 53.17 82.42 53.18 82.72 53.18 83.01 53.19 83.31 53.19 83.61 53.2 83.91 53.2 84.2 53.2 84.5 53.21 84.8 53.21 85.09 53.22 85.39 53.22 85.69 53.22 85.99 53.23 86.28 53.23 86.58 53.24 86.88 53.24 87.17 53.24 87.47 53.25 87.77 53.25 88.06 53.26 88.36 53.26 88.66 53.26 88.96 53.27 89.25 53.27 89.55 53.28 89.85 53.28 90.14 53.28 90.44 53.29 90.74 53.29 91.04 53.3 91.33 53.3 91.63 53.3 91.93 53.31 92.22 53.31 92.52 53.31 92.82 53.32 93.11 53.32 93.41 53.33 93.71 53.33 94.01 53.33 94.3 53.34 94.6 53.34"/>
      </g>
      <g stroke-width="0.3" fill="#000000" fill-opacity="0.000" class="geometry" stroke="#264E92" id="fig-0117c318d6e041328ee7b648dcda9e4b-element-11">
        <path fill="none" d="M20.63,23.58 L 20.93 24.39 21.23 25.19 21.52 25.96 21.82 26.71 22.12 27.44 22.41 28.15 22.71 28.84 23.01 29.52 23.31 30.18 23.6 30.82 23.9 31.44 24.2 32.05 24.49 32.64 24.79 33.22 25.09 33.78 25.38 34.33 25.68 34.87 25.98 35.39 26.28 35.89 26.57 36.38 26.87 36.86 27.17 37.33 27.46 37.79 27.76 38.23 28.06 38.66 28.36 39.09 28.65 39.5 28.95 39.9 29.25 40.29 29.54 40.66 29.84 41.03 30.14 41.39 30.43 41.74 30.73 42.09 31.03 42.42 31.33 42.74 31.62 43.06 31.92 43.36 32.22 43.66 32.51 43.96 32.81 44.24 33.11 44.52 33.41 44.79 33.7 45.05 34 45.3 34.3 45.55 34.59 45.8 34.89 46.03 35.19 46.26 35.48 46.49 35.78 46.71 36.08 46.92 36.38 47.13 36.67 47.33 36.97 47.52 37.27 47.72 37.56 47.9 37.86 48.08 38.16 48.26 38.46 48.43 38.75 48.6 39.05 48.77 39.35 48.92 39.64 49.08 39.94 49.23 40.24 49.38 40.53 49.52 40.83 49.66 41.13 49.8 41.43 49.93 41.72 50.06 42.02 50.19 42.32 50.31 42.61 50.43 42.91 50.54 43.21 50.66 43.51 50.77 43.8 50.87 44.1 50.98 44.4 51.08 44.69 51.18 44.99 51.28 45.29 51.37 45.58 51.46 45.88 51.55 46.18 51.64 46.48 51.73 46.77 51.81 47.07 51.89 47.37 51.97 47.66 52.04 47.96 52.12 48.26 52.19 48.56 52.26 48.85 52.33 49.15 52.4 49.45 52.46 49.74 52.53 50.04 52.59 50.34 52.65 50.63 52.71 50.93 52.76 51.23 52.82 51.53 52.87 51.82 52.93 52.12 52.98 52.42 53.03 52.71 53.08 53.01 53.13 53.31 53.17 53.61 53.22 53.9 53.26 54.2 53.3 54.5 53.35 54.79 53.39 55.09 53.43 55.39 53.46 55.68 53.5 55.98 53.54 56.28 53.57 56.58 53.61 56.87 53.64 57.17 53.68 57.47 53.71 57.76 53.74 58.06 53.77 58.36 53.8 58.66 53.83 58.95 53.86 59.25 53.88 59.55 53.91 59.84 53.94 60.14 53.96 60.44 53.99 60.73 54.01 61.03 54.03 61.33 54.06 61.63 54.08 61.92 54.1 62.22 54.12 62.52 54.14 62.81 54.16 63.11 54.18 63.41 54.2 63.71 54.22 64 54.24 64.3 54.26 64.6 54.27 64.89 54.29 65.19 54.31 65.49 54.32 65.79 54.34 66.08 54.35 66.38 54.37 66.68 54.38 66.97 54.39 67.27 54.41 67.57 54.42 67.86 54.43 68.16 54.45 68.46 54.46 68.76 54.47 69.05 54.48 69.35 54.49 69.65 54.5 69.94 54.51 70.24 54.52 70.54 54.53 70.84 54.54 71.13 54.55 71.43 54.56 71.73 54.57 72.02 54.58 72.32 54.59 72.62 54.6 72.91 54.61 73.21 54.61 73.51 54.62 73.81 54.63 74.1 54.64 74.4 54.64 74.7 54.65 74.99 54.66 75.29 54.67 75.59 54.67 75.89 54.68 76.18 54.68 76.48 54.69 76.78 54.7 77.07 54.7 77.37 54.71 77.67 54.71 77.96 54.72 78.26 54.72 78.56 54.73 78.86 54.73 79.15 54.74 79.45 54.74 79.75 54.75 80.04 54.75 80.34 54.76 80.64 54.76 80.94 54.76 81.23 54.77 81.53 54.77 81.83 54.77 82.12 54.78 82.42 54.78 82.72 54.79 83.01 54.79 83.31 54.79 83.61 54.8 83.91 54.8 84.2 54.8 84.5 54.8 84.8 54.81 85.09 54.81 85.39 54.81 85.69 54.82 85.99 54.82 86.28 54.82 86.58 54.82 86.88 54.83 87.17 54.83 87.47 54.83 87.77 54.83 88.06 54.83 88.36 54.84 88.66 54.84 88.96 54.84 89.25 54.84 89.55 54.84 89.85 54.85 90.14 54.85 90.44 54.85 90.74 54.85 91.04 54.85 91.33 54.85 91.63 54.86 91.93 54.86 92.22 54.86 92.52 54.86 92.82 54.86 93.11 54.86 93.41 54.86 93.71 54.87 94.01 54.87 94.3 54.87 94.6 54.87"/>
      </g>
      <g stroke-width="0.3" fill="#000000" fill-opacity="0.000" class="geometry" stroke="#5682D2" id="fig-0117c318d6e041328ee7b648dcda9e4b-element-12">
        <path fill="none" d="M20.63,46.32 L 20.93 46.38 21.23 46.44 21.52 46.5 21.82 46.56 22.12 46.62 22.41 46.68 22.71 46.74 23.01 46.8 23.31 46.86 23.6 46.91 23.9 46.97 24.2 47.03 24.49 47.09 24.79 47.14 25.09 47.2 25.38 47.25 25.68 47.31 25.98 47.36 26.28 47.42 26.57 47.47 26.87 47.52 27.17 47.58 27.46 47.63 27.76 47.68 28.06 47.73 28.36 47.79 28.65 47.84 28.95 47.89 29.25 47.94 29.54 47.99 29.84 48.04 30.14 48.09 30.43 48.14 30.73 48.19 31.03 48.23 31.33 48.28 31.62 48.33 31.92 48.38 32.22 48.42 32.51 48.47 32.81 48.52 33.11 48.56 33.41 48.61 33.7 48.65 34 48.7 34.3 48.74 34.59 48.79 34.89 48.83 35.19 48.88 35.48 48.92 35.78 48.96 36.08 49 36.38 49.05 36.67 49.09 36.97 49.13 37.27 49.17 37.56 49.21 37.86 49.25 38.16 49.3 38.46 49.34 38.75 49.38 39.05 49.42 39.35 49.45 39.64 49.49 39.94 49.53 40.24 49.57 40.53 49.61 40.83 49.65 41.13 49.69 41.43 49.72 41.72 49.76 42.02 49.8 42.32 49.83 42.61 49.87 42.91 49.91 43.21 49.94 43.51 49.98 43.8 50.01 44.1 50.05 44.4 50.08 44.69 50.12 44.99 50.15 45.29 50.19 45.58 50.22 45.88 50.26 46.18 50.29 46.48 50.32 46.77 50.35 47.07 50.39 47.37 50.42 47.66 50.45 47.96 50.48 48.26 50.52 48.56 50.55 48.85 50.58 49.15 50.61 49.45 50.64 49.74 50.67 50.04 50.7 50.34 50.73 50.63 50.76 50.93 50.79 51.23 50.82 51.53 50.85 51.82 50.88 52.12 50.91 52.42 50.94 52.71 50.97 53.01 51 53.31 51.02 53.61 51.05 53.9 51.08 54.2 51.11 54.5 51.13 54.79 51.16 55.09 51.19 55.39 51.21 55.68 51.24 55.98 51.27 56.28 51.29 56.58 51.32 56.87 51.35 57.17 51.37 57.47 51.4 57.76 51.42 58.06 51.45 58.36 51.47 58.66 51.5 58.95 51.52 59.25 51.55 59.55 51.57 59.84 51.59 60.14 51.62 60.44 51.64 60.73 51.67 61.03 51.69 61.33 51.71 61.63 51.73 61.92 51.76 62.22 51.78 62.52 51.8 62.81 51.82 63.11 51.85 63.41 51.87 63.71 51.89 64 51.91 64.3 51.93 64.6 51.96 64.89 51.98 65.19 52 65.49 52.02 65.79 52.04 66.08 52.06 66.38 52.08 66.68 52.1 66.97 52.12 67.27 52.14 67.57 52.16 67.86 52.18 68.16 52.2 68.46 52.22 68.76 52.24 69.05 52.26 69.35 52.28 69.65 52.3 69.94 52.32 70.24 52.33 70.54 52.35 70.84 52.37 71.13 52.39 71.43 52.41 71.73 52.43 72.02 52.44 72.32 52.46 72.62 52.48 72.91 52.5 73.21 52.51 73.51 52.53 73.81 52.55 74.1 52.57 74.4 52.58 74.7 52.6 74.99 52.62 75.29 52.63 75.59 52.65 75.89 52.66 76.18 52.68 76.48 52.7 76.78 52.71 77.07 52.73 77.37 52.74 77.67 52.76 77.96 52.78 78.26 52.79 78.56 52.81 78.86 52.82 79.15 52.84 79.45 52.85 79.75 52.87 80.04 52.88 80.34 52.9 80.64 52.91 80.94 52.92 81.23 52.94 81.53 52.95 81.83 52.97 82.12 52.98 82.42 52.99 82.72 53.01 83.01 53.02 83.31 53.04 83.61 53.05 83.91 53.06 84.2 53.08 84.5 53.09 84.8 53.1 85.09 53.12 85.39 53.13 85.69 53.14 85.99 53.15 86.28 53.17 86.58 53.18 86.88 53.19 87.17 53.2 87.47 53.22 87.77 53.23 88.06 53.24 88.36 53.25 88.66 53.26 88.96 53.28 89.25 53.29 89.55 53.3 89.85 53.31 90.14 53.32 90.44 53.33 90.74 53.35 91.04 53.36 91.33 53.37 91.63 53.38 91.93 53.39 92.22 53.4 92.52 53.41 92.82 53.42 93.11 53.43 93.41 53.44 93.71 53.45 94.01 53.47 94.3 53.48 94.6 53.49"/>
      </g>
      <g stroke-width="0.3" fill="#000000" fill-opacity="0.000" class="geometry" stroke="#2B549B" id="fig-0117c318d6e041328ee7b648dcda9e4b-element-13">
        <path fill="none" d="M20.63,46.32 L 20.93 46.38 21.23 46.44 21.52 46.5 21.82 46.56 22.12 46.62 22.41 46.68 22.71 46.74 23.01 46.8 23.31 46.86 23.6 46.92 23.9 46.97 24.2 47.03 24.49 47.09 24.79 47.14 25.09 47.2 25.38 47.25 25.68 47.31 25.98 47.36 26.28 47.42 26.57 47.47 26.87 47.53 27.17 47.58 27.46 47.63 27.76 47.68 28.06 47.74 28.36 47.79 28.65 47.84 28.95 47.89 29.25 47.94 29.54 47.99 29.84 48.04 30.14 48.09 30.43 48.14 30.73 48.19 31.03 48.23 31.33 48.28 31.62 48.33 31.92 48.38 32.22 48.42 32.51 48.47 32.81 48.52 33.11 48.56 33.41 48.61 33.7 48.65 34 48.7 34.3 48.74 34.59 48.79 34.89 48.83 35.19 48.88 35.48 48.92 35.78 48.96 36.08 49 36.38 49.05 36.67 49.09 36.97 49.13 37.27 49.17 37.56 49.21 37.86 49.25 38.16 49.3 38.46 49.34 38.75 49.38 39.05 49.42 39.35 49.46 39.64 49.49 39.94 49.53 40.24 49.57 40.53 49.61 40.83 49.65 41.13 49.69 41.43 49.72 41.72 49.76 42.02 49.8 42.32 49.83 42.61 49.87 42.91 49.91 43.21 49.94 43.51 49.98 43.8 50.01 44.1 50.05 44.4 50.08 44.69 50.12 44.99 50.15 45.29 50.19 45.58 50.22 45.88 50.26 46.18 50.29 46.48 50.32 46.77 50.36 47.07 50.39 47.37 50.42 47.66 50.45 47.96 50.48 48.26 50.52 48.56 50.55 48.85 50.58 49.15 50.61 49.45 50.64 49.74 50.67 50.04 50.7 50.34 50.73 50.63 50.76 50.93 50.79 51.23 50.82 51.53 50.85 51.82 50.88 52.12 50.91 52.42 50.94 52.71 50.97 53.01 51 53.31 51.02 53.61 51.05 53.9 51.08 54.2 51.11 54.5 51.13 54.79 51.16 55.09 51.19 55.39 51.21 55.68 51.24 55.98 51.27 56.28 51.29 56.58 51.32 56.87 51.35 57.17 51.37 57.47 51.4 57.76 51.42 58.06 51.45 58.36 51.47 58.66 51.5 58.95 51.52 59.25 51.55 59.55 51.57 59.84 51.59 60.14 51.62 60.44 51.64 60.73 51.67 61.03 51.69 61.33 51.71 61.63 51.73 61.92 51.76 62.22 51.78 62.52 51.8 62.81 51.82 63.11 51.85 63.41 51.87 63.71 51.89 64 51.91 64.3 51.93 64.6 51.96 64.89 51.98 65.19 52 65.49 52.02 65.79 52.04 66.08 52.06 66.38 52.08 66.68 52.1 66.97 52.12 67.27 52.14 67.57 52.16 67.86 52.18 68.16 52.2 68.46 52.22 68.76 52.24 69.05 52.26 69.35 52.28 69.65 52.3 69.94 52.32 70.24 52.33 70.54 52.35 70.84 52.37 71.13 52.39 71.43 52.41 71.73 52.43 72.02 52.44 72.32 52.46 72.62 52.48 72.91 52.5 73.21 52.51 73.51 52.53 73.81 52.55 74.1 52.57 74.4 52.58 74.7 52.6 74.99 52.62 75.29 52.63 75.59 52.65 75.89 52.66 76.18 52.68 76.48 52.7 76.78 52.71 77.07 52.73 77.37 52.74 77.67 52.76 77.96 52.78 78.26 52.79 78.56 52.81 78.86 52.82 79.15 52.84 79.45 52.85 79.75 52.87 80.04 52.88 80.34 52.9 80.64 52.91 80.94 52.92 81.23 52.94 81.53 52.95 81.83 52.97 82.12 52.98 82.42 52.99 82.72 53.01 83.01 53.02 83.31 53.04 83.61 53.05 83.91 53.06 84.2 53.08 84.5 53.09 84.8 53.1 85.09 53.11 85.39 53.13 85.69 53.14 85.99 53.15 86.28 53.17 86.58 53.18 86.88 53.19 87.17 53.2 87.47 53.22 87.77 53.23 88.06 53.24 88.36 53.25 88.66 53.26 88.96 53.28 89.25 53.29 89.55 53.3 89.85 53.31 90.14 53.32 90.44 53.33 90.74 53.35 91.04 53.36 91.33 53.37 91.63 53.38 91.93 53.39 92.22 53.4 92.52 53.41 92.82 53.42 93.11 53.43 93.41 53.44 93.71 53.45 94.01 53.46 94.3 53.48 94.6 53.49"/>
      </g>
      <g stroke-width="0.3" fill="#000000" fill-opacity="0.000" class="geometry" stroke="#3D69B6" id="fig-0117c318d6e041328ee7b648dcda9e4b-element-14">
        <path fill="none" d="M20.63,46.32 L 20.93 46.38 21.23 46.44 21.52 46.5 21.82 46.56 22.12 46.62 22.41 46.68 22.71 46.74 23.01 46.8 23.31 46.86 23.6 46.92 23.9 46.97 24.2 47.03 24.49 47.09 24.79 47.14 25.09 47.2 25.38 47.25 25.68 47.31 25.98 47.36 26.28 47.42 26.57 47.47 26.87 47.52 27.17 47.58 27.46 47.63 27.76 47.68 28.06 47.73 28.36 47.79 28.65 47.84 28.95 47.89 29.25 47.94 29.54 47.99 29.84 48.04 30.14 48.09 30.43 48.14 30.73 48.19 31.03 48.23 31.33 48.28 31.62 48.33 31.92 48.38 32.22 48.42 32.51 48.47 32.81 48.52 33.11 48.56 33.41 48.61 33.7 48.65 34 48.7 34.3 48.74 34.59 48.79 34.89 48.83 35.19 48.88 35.48 48.92 35.78 48.96 36.08 49 36.38 49.05 36.67 49.09 36.97 49.13 37.27 49.17 37.56 49.21 37.86 49.25 38.16 49.3 38.46 49.34 38.75 49.38 39.05 49.42 39.35 49.45 39.64 49.49 39.94 49.53 40.24 49.57 40.53 49.61 40.83 49.65 41.13 49.69 41.43 49.72 41.72 49.76 42.02 49.8 42.32 49.83 42.61 49.87 42.91 49.91 43.21 49.94 43.51 49.98 43.8 50.01 44.1 50.05 44.4 50.08 44.69 50.12 44.99 50.15 45.29 50.19 45.58 50.22 45.88 50.26 46.18 50.29 46.48 50.32 46.77 50.35 47.07 50.39 47.37 50.42 47.66 50.45 47.96 50.48 48.26 50.52 48.56 50.55 48.85 50.58 49.15 50.61 49.45 50.64 49.74 50.67 50.04 50.7 50.34 50.73 50.63 50.76 50.93 50.79 51.23 50.82 51.53 50.85 51.82 50.88 52.12 50.91 52.42 50.94 52.71 50.97 53.01 51 53.31 51.02 53.61 51.05 53.9 51.08 54.2 51.11 54.5 51.13 54.79 51.16 55.09 51.19 55.39 51.21 55.68 51.24 55.98 51.27 56.28 51.29 56.58 51.32 56.87 51.35 57.17 51.37 57.47 51.4 57.76 51.42 58.06 51.45 58.36 51.47 58.66 51.5 58.95 51.52 59.25 51.55 59.55 51.57 59.84 51.59 60.14 51.62 60.44 51.64 60.73 51.67 61.03 51.69 61.33 51.71 61.63 51.73 61.92 51.76 62.22 51.78 62.52 51.8 62.81 51.82 63.11 51.85 63.41 51.87 63.71 51.89 64 51.91 64.3 51.93 64.6 51.96 64.89 51.98 65.19 52 65.49 52.02 65.79 52.04 66.08 52.06 66.38 52.08 66.68 52.1 66.97 52.12 67.27 52.14 67.57 52.16 67.86 52.18 68.16 52.2 68.46 52.22 68.76 52.24 69.05 52.26 69.35 52.28 69.65 52.3 69.94 52.32 70.24 52.33 70.54 52.35 70.84 52.37 71.13 52.39 71.43 52.41 71.73 52.43 72.02 52.44 72.32 52.46 72.62 52.48 72.91 52.5 73.21 52.51 73.51 52.53 73.81 52.55 74.1 52.57 74.4 52.58 74.7 52.6 74.99 52.62 75.29 52.63 75.59 52.65 75.89 52.66 76.18 52.68 76.48 52.7 76.78 52.71 77.07 52.73 77.37 52.74 77.67 52.76 77.96 52.78 78.26 52.79 78.56 52.81 78.86 52.82 79.15 52.84 79.45 52.85 79.75 52.87 80.04 52.88 80.34 52.9 80.64 52.91 80.94 52.92 81.23 52.94 81.53 52.95 81.83 52.97 82.12 52.98 82.42 52.99 82.72 53.01 83.01 53.02 83.31 53.04 83.61 53.05 83.91 53.06 84.2 53.08 84.5 53.09 84.8 53.1 85.09 53.12 85.39 53.13 85.69 53.14 85.99 53.15 86.28 53.17 86.58 53.18 86.88 53.19 87.17 53.2 87.47 53.22 87.77 53.23 88.06 53.24 88.36 53.25 88.66 53.26 88.96 53.28 89.25 53.29 89.55 53.3 89.85 53.31 90.14 53.32 90.44 53.33 90.74 53.35 91.04 53.36 91.33 53.37 91.63 53.38 91.93 53.39 92.22 53.4 92.52 53.41 92.82 53.42 93.11 53.43 93.41 53.44 93.71 53.45 94.01 53.47 94.3 53.48 94.6 53.49"/>
      </g>
      <g stroke-width="0.3" fill="#000000" fill-opacity="0.000" class="geometry" stroke="#183B76" id="fig-0117c318d6e041328ee7b648dcda9e4b-element-15">
        <path fill="none" d="M20.63,23.39 L 20.93 24.21 21.23 25.01 21.52 25.79 21.82 26.55 22.12 27.29 22.41 28.01 22.71 28.71 23.01 29.4 23.31 30.06 23.6 30.71 23.9 31.34 24.2 31.96 24.49 32.55 24.79 33.14 25.09 33.71 25.38 34.26 25.68 34.8 25.98 35.32 26.28 35.83 26.57 36.33 26.87 36.82 27.17 37.29 27.46 37.75 27.76 38.19 28.06 38.63 28.36 39.06 28.65 39.47 28.95 39.87 29.25 40.26 29.54 40.65 29.84 41.02 30.14 41.38 30.43 41.73 30.73 42.08 31.03 42.41 31.33 42.74 31.62 43.06 31.92 43.36 32.22 43.67 32.51 43.96 32.81 44.25 33.11 44.52 33.41 44.79 33.7 45.06 34 45.32 34.3 45.57 34.59 45.81 34.89 46.05 35.19 46.28 35.48 46.5 35.78 46.72 36.08 46.94 36.38 47.14 36.67 47.35 36.97 47.54 37.27 47.74 37.56 47.92 37.86 48.11 38.16 48.28 38.46 48.46 38.75 48.62 39.05 48.79 39.35 48.95 39.64 49.1 39.94 49.26 40.24 49.4 40.53 49.55 40.83 49.69 41.13 49.82 41.43 49.96 41.72 50.09 42.02 50.21 42.32 50.33 42.61 50.45 42.91 50.57 43.21 50.68 43.51 50.79 43.8 50.9 44.1 51.01 44.4 51.11 44.69 51.21 44.99 51.3 45.29 51.4 45.58 51.49 45.88 51.58 46.18 51.67 46.48 51.75 46.77 51.83 47.07 51.91 47.37 51.99 47.66 52.07 47.96 52.14 48.26 52.21 48.56 52.28 48.85 52.35 49.15 52.42 49.45 52.49 49.74 52.55 50.04 52.61 50.34 52.67 50.63 52.73 50.93 52.79 51.23 52.84 51.53 52.9 51.82 52.95 52.12 53 52.42 53.05 52.71 53.1 53.01 53.15 53.31 53.19 53.61 53.24 53.9 53.28 54.2 53.32 54.5 53.36 54.79 53.41 55.09 53.44 55.39 53.48 55.68 53.52 55.98 53.56 56.28 53.59 56.58 53.63 56.87 53.66 57.17 53.69 57.47 53.72 57.76 53.76 58.06 53.79 58.36 53.82 58.66 53.84 58.95 53.87 59.25 53.9 59.55 53.93 59.84 53.95 60.14 53.98 60.44 54 60.73 54.02 61.03 54.05 61.33 54.07 61.63 54.09 61.92 54.11 62.22 54.14 62.52 54.16 62.81 54.18 63.11 54.19 63.41 54.21 63.71 54.23 64 54.25 64.3 54.27 64.6 54.28 64.89 54.3 65.19 54.32 65.49 54.33 65.79 54.35 66.08 54.36 66.38 54.38 66.68 54.39 66.97 54.4 67.27 54.42 67.57 54.43 67.86 54.44 68.16 54.46 68.46 54.47 68.76 54.48 69.05 54.49 69.35 54.5 69.65 54.51 69.94 54.52 70.24 54.53 70.54 54.54 70.84 54.55 71.13 54.56 71.43 54.57 71.73 54.58 72.02 54.59 72.32 54.6 72.62 54.61 72.91 54.61 73.21 54.62 73.51 54.63 73.81 54.64 74.1 54.64 74.4 54.65 74.7 54.66 74.99 54.66 75.29 54.67 75.59 54.68 75.89 54.68 76.18 54.69 76.48 54.7 76.78 54.7 77.07 54.71 77.37 54.71 77.67 54.72 77.96 54.72 78.26 54.73 78.56 54.73 78.86 54.74 79.15 54.74 79.45 54.75 79.75 54.75 80.04 54.76 80.34 54.76 80.64 54.76 80.94 54.77 81.23 54.77 81.53 54.77 81.83 54.78 82.12 54.78 82.42 54.79 82.72 54.79 83.01 54.79 83.31 54.8 83.61 54.8 83.91 54.8 84.2 54.8 84.5 54.81 84.8 54.81 85.09 54.81 85.39 54.82 85.69 54.82 85.99 54.82 86.28 54.82 86.58 54.83 86.88 54.83 87.17 54.83 87.47 54.83 87.77 54.83 88.06 54.84 88.36 54.84 88.66 54.84 88.96 54.84 89.25 54.84 89.55 54.85 89.85 54.85 90.14 54.85 90.44 54.85 90.74 54.85 91.04 54.85 91.33 54.86 91.63 54.86 91.93 54.86 92.22 54.86 92.52 54.86 92.82 54.86 93.11 54.87 93.41 54.87 93.71 54.87 94.01 54.87 94.3 54.87 94.6 54.87"/>
      </g>
      <g stroke-width="0.3" fill="#000000" fill-opacity="0.000" class="geometry" stroke="#4874C4" id="fig-0117c318d6e041328ee7b648dcda9e4b-element-16">
        <path fill="none" d="M20.63,23.39 L 20.93 24.21 21.23 25.01 21.52 25.79 21.82 26.55 22.12 27.29 22.41 28.01 22.71 28.71 23.01 29.4 23.31 30.06 23.6 30.71 23.9 31.34 24.2 31.96 24.49 32.55 24.79 33.14 25.09 33.71 25.38 34.26 25.68 34.8 25.98 35.32 26.28 35.83 26.57 36.33 26.87 36.82 27.17 37.29 27.46 37.75 27.76 38.19 28.06 38.63 28.36 39.06 28.65 39.47 28.95 39.87 29.25 40.26 29.54 40.65 29.84 41.02 30.14 41.38 30.43 41.73 30.73 42.08 31.03 42.41 31.33 42.74 31.62 43.06 31.92 43.36 32.22 43.67 32.51 43.96 32.81 44.25 33.11 44.52 33.41 44.79 33.7 45.06 34 45.32 34.3 45.57 34.59 45.81 34.89 46.05 35.19 46.28 35.48 46.5 35.78 46.72 36.08 46.94 36.38 47.14 36.67 47.35 36.97 47.54 37.27 47.74 37.56 47.92 37.86 48.11 38.16 48.28 38.46 48.46 38.75 48.63 39.05 48.79 39.35 48.95 39.64 49.1 39.94 49.26 40.24 49.4 40.53 49.55 40.83 49.69 41.13 49.82 41.43 49.96 41.72 50.09 42.02 50.21 42.32 50.33 42.61 50.45 42.91 50.57 43.21 50.68 43.51 50.79 43.8 50.9 44.1 51.01 44.4 51.11 44.69 51.21 44.99 51.3 45.29 51.4 45.58 51.49 45.88 51.58 46.18 51.67 46.48 51.75 46.77 51.83 47.07 51.91 47.37 51.99 47.66 52.07 47.96 52.14 48.26 52.21 48.56 52.29 48.85 52.35 49.15 52.42 49.45 52.49 49.74 52.55 50.04 52.61 50.34 52.67 50.63 52.73 50.93 52.79 51.23 52.84 51.53 52.9 51.82 52.95 52.12 53 52.42 53.05 52.71 53.1 53.01 53.15 53.31 53.19 53.61 53.24 53.9 53.28 54.2 53.32 54.5 53.36 54.79 53.41 55.09 53.44 55.39 53.48 55.68 53.52 55.98 53.56 56.28 53.59 56.58 53.63 56.87 53.66 57.17 53.69 57.47 53.72 57.76 53.76 58.06 53.79 58.36 53.82 58.66 53.84 58.95 53.87 59.25 53.9 59.55 53.93 59.84 53.95 60.14 53.98 60.44 54 60.73 54.02 61.03 54.05 61.33 54.07 61.63 54.09 61.92 54.11 62.22 54.14 62.52 54.16 62.81 54.18 63.11 54.19 63.41 54.21 63.71 54.23 64 54.25 64.3 54.27 64.6 54.28 64.89 54.3 65.19 54.32 65.49 54.33 65.79 54.35 66.08 54.36 66.38 54.38 66.68 54.39 66.97 54.4 67.27 54.42 67.57 54.43 67.86 54.44 68.16 54.46 68.46 54.47 68.76 54.48 69.05 54.49 69.35 54.5 69.65 54.51 69.94 54.52 70.24 54.53 70.54 54.54 70.84 54.55 71.13 54.56 71.43 54.57 71.73 54.58 72.02 54.59 72.32 54.6 72.62 54.61 72.91 54.61 73.21 54.62 73.51 54.63 73.81 54.64 74.1 54.64 74.4 54.65 74.7 54.66 74.99 54.66 75.29 54.67 75.59 54.68 75.89 54.68 76.18 54.69 76.48 54.7 76.78 54.7 77.07 54.71 77.37 54.71 77.67 54.72 77.96 54.72 78.26 54.73 78.56 54.73 78.86 54.74 79.15 54.74 79.45 54.75 79.75 54.75 80.04 54.76 80.34 54.76 80.64 54.76 80.94 54.77 81.23 54.77 81.53 54.77 81.83 54.78 82.12 54.78 82.42 54.79 82.72 54.79 83.01 54.79 83.31 54.8 83.61 54.8 83.91 54.8 84.2 54.8 84.5 54.81 84.8 54.81 85.09 54.81 85.39 54.82 85.69 54.82 85.99 54.82 86.28 54.82 86.58 54.83 86.88 54.83 87.17 54.83 87.47 54.83 87.77 54.83 88.06 54.84 88.36 54.84 88.66 54.84 88.96 54.84 89.25 54.84 89.55 54.85 89.85 54.85 90.14 54.85 90.44 54.85 90.74 54.85 91.04 54.85 91.33 54.86 91.63 54.86 91.93 54.86 92.22 54.86 92.52 54.86 92.82 54.86 93.11 54.87 93.41 54.87 93.71 54.87 94.01 54.87 94.3 54.87 94.6 54.87"/>
      </g>
      <g stroke-width="0.3" fill="#000000" fill-opacity="0.000" class="geometry" stroke="#305AA3" id="fig-0117c318d6e041328ee7b648dcda9e4b-element-17">
        <path fill="none" d="M20.63,7.24 L 20.93 9.1 21.23 10.9 21.52 12.62 21.82 14.28 22.12 15.87 22.41 17.4 22.71 18.87 23.01 20.28 23.31 21.64 23.6 22.94 23.9 24.2 24.2 25.4 24.49 26.56 24.79 27.67 25.09 28.73 25.38 29.76 25.68 30.74 25.98 31.69 26.28 32.6 26.57 33.48 26.87 34.32 27.17 35.12 27.46 35.9 27.76 36.64 28.06 37.36 28.36 38.05 28.65 38.71 28.95 39.34 29.25 39.95 29.54 40.54 29.84 41.1 30.14 41.64 30.43 42.16 30.73 42.66 31.03 43.14 31.33 43.6 31.62 44.05 31.92 44.47 32.22 44.88 32.51 45.27 32.81 45.65 33.11 46.01 33.41 46.36 33.7 46.7 34 47.02 34.3 47.33 34.59 47.63 34.89 47.91 35.19 48.19 35.48 48.45 35.78 48.7 36.08 48.95 36.38 49.18 36.67 49.41 36.97 49.62 37.27 49.83 37.56 50.03 37.86 50.22 38.16 50.4 38.46 50.58 38.75 50.75 39.05 50.91 39.35 51.07 39.64 51.22 39.94 51.37 40.24 51.5 40.53 51.64 40.83 51.77 41.13 51.89 41.43 52.01 41.72 52.12 42.02 52.23 42.32 52.34 42.61 52.44 42.91 52.53 43.21 52.63 43.51 52.72 43.8 52.8 44.1 52.89 44.4 52.97 44.69 53.04 44.99 53.12 45.29 53.19 45.58 53.25 45.88 53.32 46.18 53.38 46.48 53.44 46.77 53.5 47.07 53.55 47.37 53.61 47.66 53.66 47.96 53.71 48.26 53.76 48.56 53.8 48.85 53.84 49.15 53.89 49.45 53.93 49.74 53.97 50.04 54 50.34 54.04 50.63 54.07 50.93 54.11 51.23 54.14 51.53 54.17 51.82 54.2 52.12 54.23 52.42 54.25 52.71 54.28 53.01 54.3 53.31 54.33 53.61 54.35 53.9 54.37 54.2 54.39 54.5 54.41 54.79 54.43 55.09 54.45 55.39 54.47 55.68 54.49 55.98 54.5 56.28 54.52 56.58 54.54 56.87 54.55 57.17 54.57 57.47 54.58 57.76 54.59 58.06 54.6 58.36 54.62 58.66 54.63 58.95 54.64 59.25 54.65 59.55 54.66 59.84 54.67 60.14 54.68 60.44 54.69 60.73 54.7 61.03 54.71 61.33 54.72 61.63 54.72 61.92 54.73 62.22 54.74 62.52 54.74 62.81 54.75 63.11 54.76 63.41 54.76 63.71 54.77 64 54.78 64.3 54.78 64.6 54.79 64.89 54.79 65.19 54.8 65.49 54.8 65.79 54.81 66.08 54.81 66.38 54.81 66.68 54.82 66.97 54.82 67.27 54.83 67.57 54.83 67.86 54.83 68.16 54.84 68.46 54.84 68.76 54.84 69.05 54.84 69.35 54.85 69.65 54.85 69.94 54.85 70.24 54.85 70.54 54.86 70.84 54.86 71.13 54.86 71.43 54.86 71.73 54.87 72.02 54.87 72.32 54.87 72.62 54.87 72.91 54.87 73.21 54.87 73.51 54.88 73.81 54.88 74.1 54.88 74.4 54.88 74.7 54.88 74.99 54.88 75.29 54.88 75.59 54.89 75.89 54.89 76.18 54.89 76.48 54.89 76.78 54.89 77.07 54.89 77.37 54.89 77.67 54.89 77.96 54.89 78.26 54.89 78.56 54.9 78.86 54.9 79.15 54.9 79.45 54.9 79.75 54.9 80.04 54.9 80.34 54.9 80.64 54.9 80.94 54.9 81.23 54.9 81.53 54.9 81.83 54.9 82.12 54.9 82.42 54.9 82.72 54.9 83.01 54.9 83.31 54.9 83.61 54.91 83.91 54.91 84.2 54.91 84.5 54.91 84.8 54.91 85.09 54.91 85.39 54.91 85.69 54.91 85.99 54.91 86.28 54.91 86.58 54.91 86.88 54.91 87.17 54.91 87.47 54.91 87.77 54.91 88.06 54.91 88.36 54.91 88.66 54.91 88.96 54.91 89.25 54.91 89.55 54.91 89.85 54.91 90.14 54.91 90.44 54.91 90.74 54.91 91.04 54.91 91.33 54.91 91.63 54.91 91.93 54.91 92.22 54.91 92.52 54.91 92.82 54.91 93.11 54.91 93.41 54.91 93.71 54.91 94.01 54.91 94.3 54.91 94.6 54.91"/>
      </g>
      <g stroke-width="0.3" fill="#000000" fill-opacity="0.000" class="geometry" stroke="#789DE8" id="fig-0117c318d6e041328ee7b648dcda9e4b-element-18">
        <path fill="none" d="M20.63,7.24 L 20.93 9.1 21.23 10.9 21.52 12.62 21.82 14.28 22.12 15.87 22.41 17.4 22.71 18.87 23.01 20.28 23.31 21.64 23.6 22.94 23.9 24.2 24.2 25.4 24.49 26.56 24.79 27.67 25.09 28.73 25.38 29.76 25.68 30.74 25.98 31.69 26.28 32.6 26.57 33.48 26.87 34.32 27.17 35.12 27.46 35.9 27.76 36.64 28.06 37.36 28.36 38.05 28.65 38.71 28.95 39.34 29.25 39.95 29.54 40.54 29.84 41.1 30.14 41.64 30.43 42.16 30.73 42.66 31.03 43.14 31.33 43.6 31.62 44.05 31.92 44.47 32.22 44.88 32.51 45.27 32.81 45.65 33.11 46.02 33.41 46.36 33.7 46.7 34 47.02 34.3 47.33 34.59 47.63 34.89 47.91 35.19 48.19 35.48 48.45 35.78 48.7 36.08 48.95 36.38 49.18 36.67 49.41 36.97 49.62 37.27 49.83 37.56 50.03 37.86 50.22 38.16 50.4 38.46 50.58 38.75 50.75 39.05 50.91 39.35 51.07 39.64 51.22 39.94 51.37 40.24 51.5 40.53 51.64 40.83 51.77 41.13 51.89 41.43 52.01 41.72 52.12 42.02 52.23 42.32 52.34 42.61 52.44 42.91 52.53 43.21 52.63 43.51 52.72 43.8 52.8 44.1 52.89 44.4 52.97 44.69 53.04 44.99 53.12 45.29 53.19 45.58 53.25 45.88 53.32 46.18 53.38 46.48 53.44 46.77 53.5 47.07 53.55 47.37 53.61 47.66 53.66 47.96 53.71 48.26 53.76 48.56 53.8 48.85 53.84 49.15 53.89 49.45 53.93 49.74 53.97 50.04 54 50.34 54.04 50.63 54.07 50.93 54.11 51.23 54.14 51.53 54.17 51.82 54.2 52.12 54.23 52.42 54.25 52.71 54.28 53.01 54.3 53.31 54.33 53.61 54.35 53.9 54.37 54.2 54.39 54.5 54.41 54.79 54.43 55.09 54.45 55.39 54.47 55.68 54.49 55.98 54.5 56.28 54.52 56.58 54.54 56.87 54.55 57.17 54.57 57.47 54.58 57.76 54.59 58.06 54.6 58.36 54.62 58.66 54.63 58.95 54.64 59.25 54.65 59.55 54.66 59.84 54.67 60.14 54.68 60.44 54.69 60.73 54.7 61.03 54.71 61.33 54.72 61.63 54.72 61.92 54.73 62.22 54.74 62.52 54.74 62.81 54.75 63.11 54.76 63.41 54.76 63.71 54.77 64 54.78 64.3 54.78 64.6 54.79 64.89 54.79 65.19 54.8 65.49 54.8 65.79 54.81 66.08 54.81 66.38 54.81 66.68 54.82 66.97 54.82 67.27 54.83 67.57 54.83 67.86 54.83 68.16 54.84 68.46 54.84 68.76 54.84 69.05 54.84 69.35 54.85 69.65 54.85 69.94 54.85 70.24 54.85 70.54 54.86 70.84 54.86 71.13 54.86 71.43 54.86 71.73 54.87 72.02 54.87 72.32 54.87 72.62 54.87 72.91 54.87 73.21 54.87 73.51 54.88 73.81 54.88 74.1 54.88 74.4 54.88 74.7 54.88 74.99 54.88 75.29 54.88 75.59 54.89 75.89 54.89 76.18 54.89 76.48 54.89 76.78 54.89 77.07 54.89 77.37 54.89 77.67 54.89 77.96 54.89 78.26 54.89 78.56 54.9 78.86 54.9 79.15 54.9 79.45 54.9 79.75 54.9 80.04 54.9 80.34 54.9 80.64 54.9 80.94 54.9 81.23 54.9 81.53 54.9 81.83 54.9 82.12 54.9 82.42 54.9 82.72 54.9 83.01 54.9 83.31 54.9 83.61 54.91 83.91 54.91 84.2 54.91 84.5 54.91 84.8 54.91 85.09 54.91 85.39 54.91 85.69 54.91 85.99 54.91 86.28 54.91 86.58 54.91 86.88 54.91 87.17 54.91 87.47 54.91 87.77 54.91 88.06 54.91 88.36 54.91 88.66 54.91 88.96 54.91 89.25 54.91 89.55 54.91 89.85 54.91 90.14 54.91 90.44 54.91 90.74 54.91 91.04 54.91 91.33 54.91 91.63 54.91 91.93 54.91 92.22 54.91 92.52 54.91 92.82 54.91 93.11 54.91 93.41 54.91 93.71 54.91 94.01 54.91 94.3 54.91 94.6 54.91"/>
      </g>
      <g stroke-width="0.3" fill="#000000" fill-opacity="0.000" class="geometry" stroke="#7DA2EB" id="fig-0117c318d6e041328ee7b648dcda9e4b-element-19">
        <path fill="none" d="M20.63,10.64 L 20.93 12.25 21.23 13.81 21.52 15.3 21.82 16.75 22.12 18.14 22.41 19.48 22.71 20.77 23.01 22.01 23.31 23.21 23.6 24.37 23.9 25.48 24.2 26.55 24.49 27.58 24.79 28.58 25.09 29.54 25.38 30.46 25.68 31.35 25.98 32.21 26.28 33.04 26.57 33.84 26.87 34.6 27.17 35.34 27.46 36.06 27.76 36.74 28.06 37.41 28.36 38.04 28.65 38.66 28.95 39.25 29.25 39.82 29.54 40.37 29.84 40.9 30.14 41.41 30.43 41.9 30.73 42.38 31.03 42.83 31.33 43.27 31.62 43.7 31.92 44.11 32.22 44.5 32.51 44.88 32.81 45.25 33.11 45.6 33.41 45.94 33.7 46.26 34 46.58 34.3 46.88 34.59 47.18 34.89 47.46 35.19 47.73 35.48 47.99 35.78 48.24 36.08 48.49 36.38 48.72 36.67 48.95 36.97 49.16 37.27 49.37 37.56 49.58 37.86 49.77 38.16 49.96 38.46 50.14 38.75 50.31 39.05 50.48 39.35 50.64 39.64 50.8 39.94 50.95 40.24 51.09 40.53 51.23 40.83 51.37 41.13 51.49 41.43 51.62 41.72 51.74 42.02 51.85 42.32 51.97 42.61 52.07 42.91 52.18 43.21 52.28 43.51 52.37 43.8 52.47 44.1 52.55 44.4 52.64 44.69 52.72 44.99 52.8 45.29 52.88 45.58 52.95 45.88 53.03 46.18 53.09 46.48 53.16 46.77 53.23 47.07 53.29 47.37 53.35 47.66 53.4 47.96 53.46 48.26 53.51 48.56 53.56 48.85 53.61 49.15 53.66 49.45 53.7 49.74 53.75 50.04 53.79 50.34 53.83 50.63 53.87 50.93 53.91 51.23 53.95 51.53 53.98 51.82 54.02 52.12 54.05 52.42 54.08 52.71 54.11 53.01 54.14 53.31 54.17 53.61 54.2 53.9 54.22 54.2 54.25 54.5 54.27 54.79 54.29 55.09 54.32 55.39 54.34 55.68 54.36 55.98 54.38 56.28 54.4 56.58 54.42 56.87 54.44 57.17 54.45 57.47 54.47 57.76 54.49 58.06 54.5 58.36 54.52 58.66 54.53 58.95 54.55 59.25 54.56 59.55 54.57 59.84 54.58 60.14 54.6 60.44 54.61 60.73 54.62 61.03 54.63 61.33 54.64 61.63 54.65 61.92 54.66 62.22 54.67 62.52 54.68 62.81 54.69 63.11 54.7 63.41 54.7 63.71 54.71 64 54.72 64.3 54.73 64.6 54.73 64.89 54.74 65.19 54.75 65.49 54.75 65.79 54.76 66.08 54.76 66.38 54.77 66.68 54.77 66.97 54.78 67.27 54.78 67.57 54.79 67.86 54.79 68.16 54.8 68.46 54.8 68.76 54.81 69.05 54.81 69.35 54.81 69.65 54.82 69.94 54.82 70.24 54.82 70.54 54.83 70.84 54.83 71.13 54.83 71.43 54.84 71.73 54.84 72.02 54.84 72.32 54.85 72.62 54.85 72.91 54.85 73.21 54.85 73.51 54.86 73.81 54.86 74.1 54.86 74.4 54.86 74.7 54.86 74.99 54.87 75.29 54.87 75.59 54.87 75.89 54.87 76.18 54.87 76.48 54.87 76.78 54.88 77.07 54.88 77.37 54.88 77.67 54.88 77.96 54.88 78.26 54.88 78.56 54.88 78.86 54.88 79.15 54.89 79.45 54.89 79.75 54.89 80.04 54.89 80.34 54.89 80.64 54.89 80.94 54.89 81.23 54.89 81.53 54.89 81.83 54.89 82.12 54.89 82.42 54.9 82.72 54.9 83.01 54.9 83.31 54.9 83.61 54.9 83.91 54.9 84.2 54.9 84.5 54.9 84.8 54.9 85.09 54.9 85.39 54.9 85.69 54.9 85.99 54.9 86.28 54.9 86.58 54.9 86.88 54.9 87.17 54.9 87.47 54.9 87.77 54.9 88.06 54.91 88.36 54.91 88.66 54.91 88.96 54.91 89.25 54.91 89.55 54.91 89.85 54.91 90.14 54.91 90.44 54.91 90.74 54.91 91.04 54.91 91.33 54.91 91.63 54.91 91.93 54.91 92.22 54.91 92.52 54.91 92.82 54.91 93.11 54.91 93.41 54.91 93.71 54.91 94.01 54.91 94.3 54.91 94.6 54.91"/>
      </g>
      <g stroke-width="0.3" fill="#000000" fill-opacity="0.000" class="geometry" stroke="#FF0000" id="fig-0117c318d6e041328ee7b648dcda9e4b-element-20">
        <path fill="none" d="M20.63,18.98 L 20.93 20.05 21.23 21.08 21.52 22.08 21.82 23.06 22.12 24 22.41 24.92 22.71 25.81 23.01 26.67 23.31 27.51 23.6 28.32 23.9 29.11 24.2 29.88 24.49 30.62 24.79 31.34 25.09 32.04 25.38 32.72 25.68 33.38 25.98 34.02 26.28 34.64 26.57 35.24 26.87 35.82 27.17 36.39 27.46 36.94 27.76 37.47 28.06 37.99 28.36 38.49 28.65 38.98 28.95 39.45 29.25 39.91 29.54 40.36 29.84 40.79 30.14 41.21 30.43 41.61 30.73 42.01 31.03 42.39 31.33 42.76 31.62 43.12 31.92 43.47 32.22 43.81 32.51 44.14 32.81 44.46 33.11 44.77 33.41 45.07 33.7 45.37 34 45.65 34.3 45.92 34.59 46.19 34.89 46.45 35.19 46.7 35.48 46.94 35.78 47.18 36.08 47.41 36.38 47.63 36.67 47.85 36.97 48.06 37.27 48.26 37.56 48.46 37.86 48.65 38.16 48.84 38.46 49.02 38.75 49.19 39.05 49.36 39.35 49.53 39.64 49.69 39.94 49.84 40.24 49.99 40.53 50.14 40.83 50.28 41.13 50.42 41.43 50.55 41.72 50.68 42.02 50.81 42.32 50.93 42.61 51.05 42.91 51.16 43.21 51.27 43.51 51.38 43.8 51.49 44.1 51.59 44.4 51.69 44.69 51.78 44.99 51.87 45.29 51.97 45.58 52.05 45.88 52.14 46.18 52.22 46.48 52.3 46.77 52.38 47.07 52.45 47.37 52.53 47.66 52.6 47.96 52.67 48.26 52.73 48.56 52.8 48.85 52.86 49.15 52.92 49.45 52.98 49.74 53.04 50.04 53.09 50.34 53.15 50.63 53.2 50.93 53.25 51.23 53.3 51.53 53.35 51.82 53.39 52.12 53.44 52.42 53.48 52.71 53.53 53.01 53.57 53.31 53.61 53.61 53.65 53.9 53.68 54.2 53.72 54.5 53.76 54.79 53.79 55.09 53.82 55.39 53.86 55.68 53.89 55.98 53.92 56.28 53.95 56.58 53.98 56.87 54 57.17 54.03 57.47 54.06 57.76 54.08 58.06 54.11 58.36 54.13 58.66 54.15 58.95 54.18 59.25 54.2 59.55 54.22 59.84 54.24 60.14 54.26 60.44 54.28 60.73 54.3 61.03 54.32 61.33 54.34 61.63 54.35 61.92 54.37 62.22 54.39 62.52 54.4 62.81 54.42 63.11 54.43 63.41 54.45 63.71 54.46 64 54.47 64.3 54.49 64.6 54.5 64.89 54.51 65.19 54.52 65.49 54.53 65.79 54.55 66.08 54.56 66.38 54.57 66.68 54.58 66.97 54.59 67.27 54.6 67.57 54.61 67.86 54.62 68.16 54.62 68.46 54.63 68.76 54.64 69.05 54.65 69.35 54.66 69.65 54.67 69.94 54.67 70.24 54.68 70.54 54.69 70.84 54.69 71.13 54.7 71.43 54.71 71.73 54.71 72.02 54.72 72.32 54.72 72.62 54.73 72.91 54.74 73.21 54.74 73.51 54.75 73.81 54.75 74.1 54.76 74.4 54.76 74.7 54.77 74.99 54.77 75.29 54.77 75.59 54.78 75.89 54.78 76.18 54.79 76.48 54.79 76.78 54.79 77.07 54.8 77.37 54.8 77.67 54.8 77.96 54.81 78.26 54.81 78.56 54.81 78.86 54.82 79.15 54.82 79.45 54.82 79.75 54.83 80.04 54.83 80.34 54.83 80.64 54.83 80.94 54.84 81.23 54.84 81.53 54.84 81.83 54.84 82.12 54.84 82.42 54.85 82.72 54.85 83.01 54.85 83.31 54.85 83.61 54.85 83.91 54.86 84.2 54.86 84.5 54.86 84.8 54.86 85.09 54.86 85.39 54.86 85.69 54.87 85.99 54.87 86.28 54.87 86.58 54.87 86.88 54.87 87.17 54.87 87.47 54.87 87.77 54.88 88.06 54.88 88.36 54.88 88.66 54.88 88.96 54.88 89.25 54.88 89.55 54.88 89.85 54.88 90.14 54.88 90.44 54.88 90.74 54.89 91.04 54.89 91.33 54.89 91.63 54.89 91.93 54.89 92.22 54.89 92.52 54.89 92.82 54.89 93.11 54.89 93.41 54.89 93.71 54.89 94.01 54.89 94.3 54.89 94.6 54.9"/>
      </g>
    </g>
  </g>
  <g class="guide ylabels" font-size="2.82" font-family="'PT Sans Caption','Helvetica Neue','Helvetica',sans-serif" fill="#6C606B" id="fig-0117c318d6e041328ee7b648dcda9e4b-element-21">
    <text x="17.63" y="54.91" text-anchor="end" dy="0.35em">0.0</text>
    <text x="17.63" y="42.94" text-anchor="end" dy="0.35em">0.5</text>
    <text x="17.63" y="30.96" text-anchor="end" dy="0.35em">1.0</text>
    <text x="17.63" y="18.98" text-anchor="end" dy="0.35em">1.5</text>
    <text x="17.63" y="7" text-anchor="end" dy="0.35em">2.0</text>
  </g>
  <g font-size="3.88" font-family="'PT Sans','Helvetica Neue','Helvetica',sans-serif" fill="#564A55" stroke="#000000" stroke-opacity="0.000" id="fig-0117c318d6e041328ee7b648dcda9e4b-element-22">
    <text x="8.81" y="28.96" text-anchor="middle" dy="0.35em" transform="rotate(-90, 8.81, 30.96)">P(x)</text>
  </g>
</g>
<defs>
<clipPath id="fig-0117c318d6e041328ee7b648dcda9e4b-element-5">
  <path d="M18.63,5 L 96.6 5 96.6 56.91 18.63 56.91" />
</clipPath
></defs>
</svg>
