<?xml version="1.0" encoding="UTF-8"?>
<svg xmlns="http://www.w3.org/2000/svg"
     xmlns:xlink="http://www.w3.org/1999/xlink"
     xmlns:gadfly="http://www.gadflyjl.org/ns"
     version="1.2"
     width="101.6mm" height="76.2mm" viewBox="0 0 101.6 76.2"
     stroke="none"
     fill="#000000"
     stroke-width="0.3"
     font-size="3.88"
>
<g class="plotroot xscalable yscalable" id="fig-34f727b7416a46b48f64db3c52342671-element-1">
  <g font-size="3.88" font-family="'PT Sans','Helvetica Neue','Helvetica',sans-serif" fill="#564A55" stroke="#000000" stroke-opacity="0.000" id="fig-34f727b7416a46b48f64db3c52342671-element-2">
    <text x="57.62" y="68.2" text-anchor="middle">x</text>
  </g>
  <g class="guide xlabels" font-size="2.82" font-family="'PT Sans Caption','Helvetica Neue','Helvetica',sans-serif" fill="#6C606B" id="fig-34f727b7416a46b48f64db3c52342671-element-3">
    <text x="20.63" y="60.59" text-anchor="middle">0</text>
    <text x="35.43" y="60.59" text-anchor="middle">1</text>
    <text x="50.22" y="60.59" text-anchor="middle">2</text>
    <text x="65.01" y="60.59" text-anchor="middle">3</text>
    <text x="79.81" y="60.59" text-anchor="middle">4</text>
    <text x="94.6" y="60.59" text-anchor="middle">5</text>
  </g>
  <g clip-path="url(#fig-34f727b7416a46b48f64db3c52342671-element-5)" id="fig-34f727b7416a46b48f64db3c52342671-element-4">
    <g pointer-events="visible" opacity="1" fill="#000000" fill-opacity="0.000" stroke="#000000" stroke-opacity="0.000" class="guide background" id="fig-34f727b7416a46b48f64db3c52342671-element-6">
      <rect x="18.63" y="5" width="77.97" height="51.91"/>
    </g>
    <g class="guide ygridlines xfixed" stroke-dasharray="0.5,0.5" stroke-width="0.2" stroke="#D0D0E0" id="fig-34f727b7416a46b48f64db3c52342671-element-7">
      <path fill="none" d="M18.63,54.91 L 96.6 54.91"/>
      <path fill="none" d="M18.63,42.94 L 96.6 42.94"/>
      <path fill="none" d="M18.63,30.96 L 96.6 30.96"/>
      <path fill="none" d="M18.63,18.98 L 96.6 18.98"/>
      <path fill="none" d="M18.63,7 L 96.6 7"/>
    </g>
    <g class="guide xgridlines yfixed" stroke-dasharray="0.5,0.5" stroke-width="0.2" stroke="#D0D0E0" id="fig-34f727b7416a46b48f64db3c52342671-element-8">
      <path fill="none" d="M20.63,5 L 20.63 56.91"/>
      <path fill="none" d="M35.43,5 L 35.43 56.91"/>
      <path fill="none" d="M50.22,5 L 50.22 56.91"/>
      <path fill="none" d="M65.01,5 L 65.01 56.91"/>
      <path fill="none" d="M79.81,5 L 79.81 56.91"/>
      <path fill="none" d="M94.6,5 L 94.6 56.91"/>
    </g>
    <g class="plotpanel" id="fig-34f727b7416a46b48f64db3c52342671-element-9">
      <g stroke-width="0.3" fill="#000000" fill-opacity="0.000" class="geometry" stroke="#94BEF5" id="fig-34f727b7416a46b48f64db3c52342671-element-10">
        <path fill="none" d="M20.63,46.91 L 20.93 46.96 21.23 47.01 21.52 47.07 21.82 47.12 22.12 47.17 22.41 47.22 22.71 47.28 23.01 47.33 23.31 47.38 23.6 47.43 23.9 47.48 24.2 47.53 24.49 47.58 24.79 47.63 25.09 47.67 25.38 47.72 25.68 47.77 25.98 47.82 26.28 47.87 26.57 47.91 26.87 47.96 27.17 48.01 27.46 48.05 27.76 48.1 28.06 48.14 28.36 48.19 28.65 48.24 28.95 48.28 29.25 48.32 29.54 48.37 29.84 48.41 30.14 48.46 30.43 48.5 30.73 48.54 31.03 48.58 31.33 48.63 31.62 48.67 31.92 48.71 32.22 48.75 32.51 48.79 32.81 48.83 33.11 48.87 33.41 48.92 33.7 48.96 34 49 34.3 49.03 34.59 49.07 34.89 49.11 35.19 49.15 35.48 49.19 35.78 49.23 36.08 49.27 36.38 49.3 36.67 49.34 36.97 49.38 37.27 49.42 37.56 49.45 37.86 49.49 38.16 49.53 38.46 49.56 38.75 49.6 39.05 49.63 39.35 49.67 39.64 49.7 39.94 49.74 40.24 49.77 40.53 49.81 40.83 49.84 41.13 49.88 41.43 49.91 41.72 49.94 42.02 49.98 42.32 50.01 42.61 50.04 42.91 50.07 43.21 50.11 43.51 50.14 43.8 50.17 44.1 50.2 44.4 50.23 44.69 50.27 44.99 50.3 45.29 50.33 45.58 50.36 45.88 50.39 46.18 50.42 46.48 50.45 46.77 50.48 47.07 50.51 47.37 50.54 47.66 50.57 47.96 50.6 48.26 50.63 48.56 50.65 48.85 50.68 49.15 50.71 49.45 50.74 49.74 50.77 50.04 50.79 50.34 50.82 50.63 50.85 50.93 50.88 51.23 50.9 51.53 50.93 51.82 50.96 52.12 50.98 52.42 51.01 52.71 51.04 53.01 51.06 53.31 51.09 53.61 51.11 53.9 51.14 54.2 51.16 54.5 51.19 54.79 51.21 55.09 51.24 55.39 51.26 55.68 51.29 55.98 51.31 56.28 51.34 56.58 51.36 56.87 51.38 57.17 51.41 57.47 51.43 57.76 51.45 58.06 51.48 58.36 51.5 58.66 51.52 58.95 51.55 59.25 51.57 59.55 51.59 59.84 51.61 60.14 51.64 60.44 51.66 60.73 51.68 61.03 51.7 61.33 51.72 61.63 51.74 61.92 51.76 62.22 51.79 62.52 51.81 62.81 51.83 63.11 51.85 63.41 51.87 63.71 51.89 64 51.91 64.3 51.93 64.6 51.95 64.89 51.97 65.19 51.99 65.49 52.01 65.79 52.03 66.08 52.05 66.38 52.07 66.68 52.09 66.97 52.1 67.27 52.12 67.57 52.14 67.86 52.16 68.16 52.18 68.46 52.2 68.76 52.22 69.05 52.23 69.35 52.25 69.65 52.27 69.94 52.29 70.24 52.3 70.54 52.32 70.84 52.34 71.13 52.36 71.43 52.37 71.73 52.39 72.02 52.41 72.32 52.42 72.62 52.44 72.91 52.46 73.21 52.47 73.51 52.49 73.81 52.51 74.1 52.52 74.4 52.54 74.7 52.55 74.99 52.57 75.29 52.59 75.59 52.6 75.89 52.62 76.18 52.63 76.48 52.65 76.78 52.66 77.07 52.68 77.37 52.69 77.67 52.71 77.96 52.72 78.26 52.74 78.56 52.75 78.86 52.77 79.15 52.78 79.45 52.79 79.75 52.81 80.04 52.82 80.34 52.84 80.64 52.85 80.94 52.86 81.23 52.88 81.53 52.89 81.83 52.91 82.12 52.92 82.42 52.93 82.72 52.95 83.01 52.96 83.31 52.97 83.61 52.98 83.91 53 84.2 53.01 84.5 53.02 84.8 53.04 85.09 53.05 85.39 53.06 85.69 53.07 85.99 53.09 86.28 53.1 86.58 53.11 86.88 53.12 87.17 53.13 87.47 53.15 87.77 53.16 88.06 53.17 88.36 53.18 88.66 53.19 88.96 53.2 89.25 53.22 89.55 53.23 89.85 53.24 90.14 53.25 90.44 53.26 90.74 53.27 91.04 53.28 91.33 53.29 91.63 53.3 91.93 53.32 92.22 53.33 92.52 53.34 92.82 53.35 93.11 53.36 93.41 53.37 93.71 53.38 94.01 53.39 94.3 53.4 94.6 53.41"/>
      </g>
      <g stroke-width="0.3" fill="#000000" fill-opacity="0.000" class="geometry" stroke="#5984D5" id="fig-34f727b7416a46b48f64db3c52342671-element-11">
        <path fill="none" d="M20.63,11.77 L 20.93 13.31 21.23 14.78 21.52 16.21 21.82 17.58 22.12 18.91 22.41 20.19 22.71 21.42 23.01 22.61 23.31 23.76 23.6 24.86 23.9 25.93 24.2 26.96 24.49 27.95 24.79 28.91 25.09 29.83 25.38 30.73 25.68 31.58 25.98 32.41 26.28 33.21 26.57 33.98 26.87 34.73 27.17 35.44 27.46 36.13 27.76 36.8 28.06 37.44 28.36 38.07 28.65 38.66 28.95 39.24 29.25 39.8 29.54 40.33 29.84 40.85 30.14 41.35 30.43 41.83 30.73 42.3 31.03 42.75 31.33 43.18 31.62 43.59 31.92 44 32.22 44.38 32.51 44.76 32.81 45.12 33.11 45.47 33.41 45.8 33.7 46.13 34 46.44 34.3 46.74 34.59 47.03 34.89 47.31 35.19 47.58 35.48 47.84 35.78 48.09 36.08 48.33 36.38 48.57 36.67 48.79 36.97 49.01 37.27 49.22 37.56 49.42 37.86 49.62 38.16 49.81 38.46 49.99 38.75 50.16 39.05 50.33 39.35 50.49 39.64 50.65 39.94 50.8 40.24 50.95 40.53 51.09 40.83 51.22 41.13 51.36 41.43 51.48 41.72 51.6 42.02 51.72 42.32 51.84 42.61 51.94 42.91 52.05 43.21 52.15 43.51 52.25 43.8 52.34 44.1 52.44 44.4 52.52 44.69 52.61 44.99 52.69 45.29 52.77 45.58 52.85 45.88 52.92 46.18 52.99 46.48 53.06 46.77 53.12 47.07 53.19 47.37 53.25 47.66 53.31 47.96 53.37 48.26 53.42 48.56 53.47 48.85 53.52 49.15 53.57 49.45 53.62 49.74 53.67 50.04 53.71 50.34 53.75 50.63 53.8 50.93 53.84 51.23 53.87 51.53 53.91 51.82 53.95 52.12 53.98 52.42 54.01 52.71 54.05 53.01 54.08 53.31 54.11 53.61 54.14 53.9 54.16 54.2 54.19 54.5 54.22 54.79 54.24 55.09 54.26 55.39 54.29 55.68 54.31 55.98 54.33 56.28 54.35 56.58 54.37 56.87 54.39 57.17 54.41 57.47 54.43 57.76 54.45 58.06 54.46 58.36 54.48 58.66 54.49 58.95 54.51 59.25 54.52 59.55 54.54 59.84 54.55 60.14 54.56 60.44 54.58 60.73 54.59 61.03 54.6 61.33 54.61 61.63 54.62 61.92 54.63 62.22 54.64 62.52 54.65 62.81 54.66 63.11 54.67 63.41 54.68 63.71 54.69 64 54.7 64.3 54.7 64.6 54.71 64.89 54.72 65.19 54.72 65.49 54.73 65.79 54.74 66.08 54.74 66.38 54.75 66.68 54.76 66.97 54.76 67.27 54.77 67.57 54.77 67.86 54.78 68.16 54.78 68.46 54.79 68.76 54.79 69.05 54.8 69.35 54.8 69.65 54.8 69.94 54.81 70.24 54.81 70.54 54.82 70.84 54.82 71.13 54.82 71.43 54.83 71.73 54.83 72.02 54.83 72.32 54.84 72.62 54.84 72.91 54.84 73.21 54.84 73.51 54.85 73.81 54.85 74.1 54.85 74.4 54.85 74.7 54.86 74.99 54.86 75.29 54.86 75.59 54.86 75.89 54.86 76.18 54.87 76.48 54.87 76.78 54.87 77.07 54.87 77.37 54.87 77.67 54.87 77.96 54.87 78.26 54.88 78.56 54.88 78.86 54.88 79.15 54.88 79.45 54.88 79.75 54.88 80.04 54.88 80.34 54.88 80.64 54.89 80.94 54.89 81.23 54.89 81.53 54.89 81.83 54.89 82.12 54.89 82.42 54.89 82.72 54.89 83.01 54.89 83.31 54.89 83.61 54.89 83.91 54.9 84.2 54.9 84.5 54.9 84.8 54.9 85.09 54.9 85.39 54.9 85.69 54.9 85.99 54.9 86.28 54.9 86.58 54.9 86.88 54.9 87.17 54.9 87.47 54.9 87.77 54.9 88.06 54.9 88.36 54.9 88.66 54.9 88.96 54.9 89.25 54.9 89.55 54.91 89.85 54.91 90.14 54.91 90.44 54.91 90.74 54.91 91.04 54.91 91.33 54.91 91.63 54.91 91.93 54.91 92.22 54.91 92.52 54.91 92.82 54.91 93.11 54.91 93.41 54.91 93.71 54.91 94.01 54.91 94.3 54.91 94.6 54.91"/>
      </g>
      <g stroke-width="0.3" fill="#000000" fill-opacity="0.000" class="geometry" stroke="#4B77C7" id="fig-34f727b7416a46b48f64db3c52342671-element-12">
        <path fill="none" d="M20.63,47.07 L 20.93 47.12 21.23 47.17 21.52 47.22 21.82 47.27 22.12 47.32 22.41 47.37 22.71 47.42 23.01 47.47 23.31 47.52 23.6 47.57 23.9 47.62 24.2 47.67 24.49 47.71 24.79 47.76 25.09 47.81 25.38 47.85 25.68 47.9 25.98 47.95 26.28 47.99 26.57 48.04 26.87 48.08 27.17 48.13 27.46 48.17 27.76 48.22 28.06 48.26 28.36 48.3 28.65 48.35 28.95 48.39 29.25 48.43 29.54 48.47 29.84 48.52 30.14 48.56 30.43 48.6 30.73 48.64 31.03 48.68 31.33 48.72 31.62 48.76 31.92 48.8 32.22 48.84 32.51 48.88 32.81 48.92 33.11 48.96 33.41 49 33.7 49.04 34 49.08 34.3 49.12 34.59 49.16 34.89 49.19 35.19 49.23 35.48 49.27 35.78 49.31 36.08 49.34 36.38 49.38 36.67 49.41 36.97 49.45 37.27 49.49 37.56 49.52 37.86 49.56 38.16 49.59 38.46 49.63 38.75 49.66 39.05 49.7 39.35 49.73 39.64 49.76 39.94 49.8 40.24 49.83 40.53 49.87 40.83 49.9 41.13 49.93 41.43 49.96 41.72 50 42.02 50.03 42.32 50.06 42.61 50.09 42.91 50.12 43.21 50.16 43.51 50.19 43.8 50.22 44.1 50.25 44.4 50.28 44.69 50.31 44.99 50.34 45.29 50.37 45.58 50.4 45.88 50.43 46.18 50.46 46.48 50.49 46.77 50.52 47.07 50.55 47.37 50.57 47.66 50.6 47.96 50.63 48.26 50.66 48.56 50.69 48.85 50.71 49.15 50.74 49.45 50.77 49.74 50.8 50.04 50.82 50.34 50.85 50.63 50.88 50.93 50.9 51.23 50.93 51.53 50.96 51.82 50.98 52.12 51.01 52.42 51.03 52.71 51.06 53.01 51.08 53.31 51.11 53.61 51.13 53.9 51.16 54.2 51.18 54.5 51.21 54.79 51.23 55.09 51.26 55.39 51.28 55.68 51.3 55.98 51.33 56.28 51.35 56.58 51.37 56.87 51.4 57.17 51.42 57.47 51.44 57.76 51.47 58.06 51.49 58.36 51.51 58.66 51.53 58.95 51.56 59.25 51.58 59.55 51.6 59.84 51.62 60.14 51.64 60.44 51.66 60.73 51.69 61.03 51.71 61.33 51.73 61.63 51.75 61.92 51.77 62.22 51.79 62.52 51.81 62.81 51.83 63.11 51.85 63.41 51.87 63.71 51.89 64 51.91 64.3 51.93 64.6 51.95 64.89 51.97 65.19 51.99 65.49 52.01 65.79 52.03 66.08 52.05 66.38 52.07 66.68 52.08 66.97 52.1 67.27 52.12 67.57 52.14 67.86 52.16 68.16 52.18 68.46 52.19 68.76 52.21 69.05 52.23 69.35 52.25 69.65 52.26 69.94 52.28 70.24 52.3 70.54 52.32 70.84 52.33 71.13 52.35 71.43 52.37 71.73 52.38 72.02 52.4 72.32 52.42 72.62 52.43 72.91 52.45 73.21 52.47 73.51 52.48 73.81 52.5 74.1 52.51 74.4 52.53 74.7 52.54 74.99 52.56 75.29 52.58 75.59 52.59 75.89 52.61 76.18 52.62 76.48 52.64 76.78 52.65 77.07 52.67 77.37 52.68 77.67 52.7 77.96 52.71 78.26 52.72 78.56 52.74 78.86 52.75 79.15 52.77 79.45 52.78 79.75 52.8 80.04 52.81 80.34 52.82 80.64 52.84 80.94 52.85 81.23 52.86 81.53 52.88 81.83 52.89 82.12 52.9 82.42 52.92 82.72 52.93 83.01 52.94 83.31 52.96 83.61 52.97 83.91 52.98 84.2 52.99 84.5 53.01 84.8 53.02 85.09 53.03 85.39 53.04 85.69 53.06 85.99 53.07 86.28 53.08 86.58 53.09 86.88 53.1 87.17 53.12 87.47 53.13 87.77 53.14 88.06 53.15 88.36 53.16 88.66 53.17 88.96 53.19 89.25 53.2 89.55 53.21 89.85 53.22 90.14 53.23 90.44 53.24 90.74 53.25 91.04 53.26 91.33 53.27 91.63 53.29 91.93 53.3 92.22 53.31 92.52 53.32 92.82 53.33 93.11 53.34 93.41 53.35 93.71 53.36 94.01 53.37 94.3 53.38 94.6 53.39"/>
      </g>
      <g stroke-width="0.3" fill="#000000" fill-opacity="0.000" class="geometry" stroke="#F4FDFF" id="fig-34f727b7416a46b48f64db3c52342671-element-13">
        <path fill="none" d="M20.63,43.62 L 20.93 43.73 21.23 43.83 21.52 43.94 21.82 44.04 22.12 44.14 22.41 44.24 22.71 44.34 23.01 44.44 23.31 44.54 23.6 44.64 23.9 44.74 24.2 44.83 24.49 44.93 24.79 45.02 25.09 45.11 25.38 45.21 25.68 45.3 25.98 45.39 26.28 45.48 26.57 45.57 26.87 45.66 27.17 45.74 27.46 45.83 27.76 45.92 28.06 46 28.36 46.08 28.65 46.17 28.95 46.25 29.25 46.33 29.54 46.41 29.84 46.49 30.14 46.57 30.43 46.65 30.73 46.73 31.03 46.81 31.33 46.88 31.62 46.96 31.92 47.03 32.22 47.11 32.51 47.18 32.81 47.25 33.11 47.33 33.41 47.4 33.7 47.47 34 47.54 34.3 47.61 34.59 47.68 34.89 47.74 35.19 47.81 35.48 47.88 35.78 47.95 36.08 48.01 36.38 48.08 36.67 48.14 36.97 48.2 37.27 48.27 37.56 48.33 37.86 48.39 38.16 48.45 38.46 48.51 38.75 48.57 39.05 48.63 39.35 48.69 39.64 48.75 39.94 48.81 40.24 48.87 40.53 48.93 40.83 48.98 41.13 49.04 41.43 49.09 41.72 49.15 42.02 49.2 42.32 49.26 42.61 49.31 42.91 49.36 43.21 49.41 43.51 49.47 43.8 49.52 44.1 49.57 44.4 49.62 44.69 49.67 44.99 49.72 45.29 49.77 45.58 49.82 45.88 49.86 46.18 49.91 46.48 49.96 46.77 50.01 47.07 50.05 47.37 50.1 47.66 50.14 47.96 50.19 48.26 50.23 48.56 50.28 48.85 50.32 49.15 50.36 49.45 50.41 49.74 50.45 50.04 50.49 50.34 50.53 50.63 50.57 50.93 50.61 51.23 50.66 51.53 50.7 51.82 50.73 52.12 50.77 52.42 50.81 52.71 50.85 53.01 50.89 53.31 50.93 53.61 50.97 53.9 51 54.2 51.04 54.5 51.08 54.79 51.11 55.09 51.15 55.39 51.18 55.68 51.22 55.98 51.25 56.28 51.29 56.58 51.32 56.87 51.36 57.17 51.39 57.47 51.42 57.76 51.46 58.06 51.49 58.36 51.52 58.66 51.55 58.95 51.58 59.25 51.62 59.55 51.65 59.84 51.68 60.14 51.71 60.44 51.74 60.73 51.77 61.03 51.8 61.33 51.83 61.63 51.86 61.92 51.89 62.22 51.91 62.52 51.94 62.81 51.97 63.11 52 63.41 52.03 63.71 52.05 64 52.08 64.3 52.11 64.6 52.13 64.89 52.16 65.19 52.19 65.49 52.21 65.79 52.24 66.08 52.26 66.38 52.29 66.68 52.31 66.97 52.34 67.27 52.36 67.57 52.38 67.86 52.41 68.16 52.43 68.46 52.46 68.76 52.48 69.05 52.5 69.35 52.52 69.65 52.55 69.94 52.57 70.24 52.59 70.54 52.61 70.84 52.63 71.13 52.66 71.43 52.68 71.73 52.7 72.02 52.72 72.32 52.74 72.62 52.76 72.91 52.78 73.21 52.8 73.51 52.82 73.81 52.84 74.1 52.86 74.4 52.88 74.7 52.9 74.99 52.92 75.29 52.94 75.59 52.96 75.89 52.97 76.18 52.99 76.48 53.01 76.78 53.03 77.07 53.05 77.37 53.06 77.67 53.08 77.96 53.1 78.26 53.12 78.56 53.13 78.86 53.15 79.15 53.17 79.45 53.18 79.75 53.2 80.04 53.21 80.34 53.23 80.64 53.25 80.94 53.26 81.23 53.28 81.53 53.29 81.83 53.31 82.12 53.32 82.42 53.34 82.72 53.35 83.01 53.37 83.31 53.38 83.61 53.4 83.91 53.41 84.2 53.43 84.5 53.44 84.8 53.45 85.09 53.47 85.39 53.48 85.69 53.49 85.99 53.51 86.28 53.52 86.58 53.53 86.88 53.55 87.17 53.56 87.47 53.57 87.77 53.59 88.06 53.6 88.36 53.61 88.66 53.62 88.96 53.63 89.25 53.65 89.55 53.66 89.85 53.67 90.14 53.68 90.44 53.69 90.74 53.71 91.04 53.72 91.33 53.73 91.63 53.74 91.93 53.75 92.22 53.76 92.52 53.77 92.82 53.78 93.11 53.79 93.41 53.8 93.71 53.81 94.01 53.83 94.3 53.84 94.6 53.85"/>
      </g>
      <g stroke-width="0.3" fill="#000000" fill-opacity="0.000" class="geometry" stroke="#7A9FE9" id="fig-34f727b7416a46b48f64db3c52342671-element-14">
        <path fill="none" d="M20.63,38.22 L 20.93 38.45 21.23 38.68 21.52 38.91 21.82 39.13 22.12 39.35 22.41 39.57 22.71 39.78 23.01 39.99 23.31 40.2 23.6 40.4 23.9 40.6 24.2 40.8 24.49 41 24.79 41.19 25.09 41.38 25.38 41.57 25.68 41.76 25.98 41.94 26.28 42.12 26.57 42.3 26.87 42.47 27.17 42.64 27.46 42.81 27.76 42.98 28.06 43.15 28.36 43.31 28.65 43.47 28.95 43.63 29.25 43.79 29.54 43.94 29.84 44.1 30.14 44.25 30.43 44.39 30.73 44.54 31.03 44.69 31.33 44.83 31.62 44.97 31.92 45.11 32.22 45.24 32.51 45.38 32.81 45.51 33.11 45.64 33.41 45.77 33.7 45.9 34 46.02 34.3 46.14 34.59 46.27 34.89 46.39 35.19 46.51 35.48 46.62 35.78 46.74 36.08 46.85 36.38 46.96 36.67 47.07 36.97 47.18 37.27 47.29 37.56 47.4 37.86 47.5 38.16 47.6 38.46 47.7 38.75 47.8 39.05 47.9 39.35 48 39.64 48.1 39.94 48.19 40.24 48.29 40.53 48.38 40.83 48.47 41.13 48.56 41.43 48.65 41.72 48.73 42.02 48.82 42.32 48.9 42.61 48.99 42.91 49.07 43.21 49.15 43.51 49.23 43.8 49.31 44.1 49.39 44.4 49.46 44.69 49.54 44.99 49.62 45.29 49.69 45.58 49.76 45.88 49.83 46.18 49.9 46.48 49.97 46.77 50.04 47.07 50.11 47.37 50.18 47.66 50.24 47.96 50.31 48.26 50.37 48.56 50.43 48.85 50.5 49.15 50.56 49.45 50.62 49.74 50.68 50.04 50.74 50.34 50.8 50.63 50.85 50.93 50.91 51.23 50.96 51.53 51.02 51.82 51.07 52.12 51.13 52.42 51.18 52.71 51.23 53.01 51.28 53.31 51.33 53.61 51.38 53.9 51.43 54.2 51.48 54.5 51.53 54.79 51.58 55.09 51.62 55.39 51.67 55.68 51.71 55.98 51.76 56.28 51.8 56.58 51.84 56.87 51.89 57.17 51.93 57.47 51.97 57.76 52.01 58.06 52.05 58.36 52.09 58.66 52.13 58.95 52.17 59.25 52.21 59.55 52.25 59.84 52.28 60.14 52.32 60.44 52.35 60.73 52.39 61.03 52.43 61.33 52.46 61.63 52.49 61.92 52.53 62.22 52.56 62.52 52.59 62.81 52.63 63.11 52.66 63.41 52.69 63.71 52.72 64 52.75 64.3 52.78 64.6 52.81 64.89 52.84 65.19 52.87 65.49 52.9 65.79 52.92 66.08 52.95 66.38 52.98 66.68 53.01 66.97 53.03 67.27 53.06 67.57 53.09 67.86 53.11 68.16 53.14 68.46 53.16 68.76 53.18 69.05 53.21 69.35 53.23 69.65 53.26 69.94 53.28 70.24 53.3 70.54 53.32 70.84 53.35 71.13 53.37 71.43 53.39 71.73 53.41 72.02 53.43 72.32 53.45 72.62 53.47 72.91 53.49 73.21 53.51 73.51 53.53 73.81 53.55 74.1 53.57 74.4 53.59 74.7 53.61 74.99 53.63 75.29 53.64 75.59 53.66 75.89 53.68 76.18 53.7 76.48 53.71 76.78 53.73 77.07 53.75 77.37 53.76 77.67 53.78 77.96 53.79 78.26 53.81 78.56 53.82 78.86 53.84 79.15 53.85 79.45 53.87 79.75 53.88 80.04 53.9 80.34 53.91 80.64 53.93 80.94 53.94 81.23 53.95 81.53 53.97 81.83 53.98 82.12 53.99 82.42 54.01 82.72 54.02 83.01 54.03 83.31 54.04 83.61 54.06 83.91 54.07 84.2 54.08 84.5 54.09 84.8 54.1 85.09 54.11 85.39 54.12 85.69 54.14 85.99 54.15 86.28 54.16 86.58 54.17 86.88 54.18 87.17 54.19 87.47 54.2 87.77 54.21 88.06 54.22 88.36 54.23 88.66 54.24 88.96 54.25 89.25 54.26 89.55 54.27 89.85 54.27 90.14 54.28 90.44 54.29 90.74 54.3 91.04 54.31 91.33 54.32 91.63 54.33 91.93 54.33 92.22 54.34 92.52 54.35 92.82 54.36 93.11 54.37 93.41 54.37 93.71 54.38 94.01 54.39 94.3 54.4 94.6 54.4"/>
      </g>
      <g stroke-width="0.3" fill="#000000" fill-opacity="0.000" class="geometry" stroke="#8DB5F2" id="fig-34f727b7416a46b48f64db3c52342671-element-15">
        <path fill="none" d="M20.63,25.35 L 20.93 26.08 21.23 26.78 21.52 27.47 21.82 28.14 22.12 28.8 22.41 29.44 22.71 30.06 23.01 30.67 23.31 31.26 23.6 31.84 23.9 32.4 24.2 32.96 24.49 33.49 24.79 34.02 25.09 34.53 25.38 35.03 25.68 35.51 25.98 35.99 26.28 36.45 26.57 36.9 26.87 37.35 27.17 37.78 27.46 38.19 27.76 38.6 28.06 39 28.36 39.39 28.65 39.77 28.95 40.14 29.25 40.5 29.54 40.86 29.84 41.2 30.14 41.54 30.43 41.86 30.73 42.18 31.03 42.5 31.33 42.8 31.62 43.1 31.92 43.39 32.22 43.67 32.51 43.94 32.81 44.21 33.11 44.47 33.41 44.73 33.7 44.98 34 45.22 34.3 45.46 34.59 45.69 34.89 45.92 35.19 46.14 35.48 46.35 35.78 46.56 36.08 46.76 36.38 46.96 36.67 47.16 36.97 47.35 37.27 47.53 37.56 47.71 37.86 47.89 38.16 48.06 38.46 48.23 38.75 48.39 39.05 48.55 39.35 48.71 39.64 48.86 39.94 49.01 40.24 49.15 40.53 49.29 40.83 49.43 41.13 49.57 41.43 49.7 41.72 49.83 42.02 49.95 42.32 50.07 42.61 50.19 42.91 50.31 43.21 50.42 43.51 50.53 43.8 50.64 44.1 50.74 44.4 50.84 44.69 50.94 44.99 51.04 45.29 51.13 45.58 51.23 45.88 51.32 46.18 51.41 46.48 51.49 46.77 51.57 47.07 51.66 47.37 51.74 47.66 51.81 47.96 51.89 48.26 51.96 48.56 52.04 48.85 52.11 49.15 52.18 49.45 52.24 49.74 52.31 50.04 52.37 50.34 52.43 50.63 52.49 50.93 52.55 51.23 52.61 51.53 52.67 51.82 52.72 52.12 52.78 52.42 52.83 52.71 52.88 53.01 52.93 53.31 52.98 53.61 53.03 53.9 53.07 54.2 53.12 54.5 53.16 54.79 53.2 55.09 53.25 55.39 53.29 55.68 53.33 55.98 53.37 56.28 53.4 56.58 53.44 56.87 53.48 57.17 53.51 57.47 53.55 57.76 53.58 58.06 53.61 58.36 53.64 58.66 53.68 58.95 53.71 59.25 53.74 59.55 53.76 59.84 53.79 60.14 53.82 60.44 53.85 60.73 53.87 61.03 53.9 61.33 53.92 61.63 53.95 61.92 53.97 62.22 53.99 62.52 54.02 62.81 54.04 63.11 54.06 63.41 54.08 63.71 54.1 64 54.12 64.3 54.14 64.6 54.16 64.89 54.18 65.19 54.2 65.49 54.21 65.79 54.23 66.08 54.25 66.38 54.26 66.68 54.28 66.97 54.3 67.27 54.31 67.57 54.33 67.86 54.34 68.16 54.35 68.46 54.37 68.76 54.38 69.05 54.39 69.35 54.41 69.65 54.42 69.94 54.43 70.24 54.44 70.54 54.45 70.84 54.47 71.13 54.48 71.43 54.49 71.73 54.5 72.02 54.51 72.32 54.52 72.62 54.53 72.91 54.54 73.21 54.55 73.51 54.56 73.81 54.56 74.1 54.57 74.4 54.58 74.7 54.59 74.99 54.6 75.29 54.61 75.59 54.61 75.89 54.62 76.18 54.63 76.48 54.63 76.78 54.64 77.07 54.65 77.37 54.65 77.67 54.66 77.96 54.67 78.26 54.67 78.56 54.68 78.86 54.69 79.15 54.69 79.45 54.7 79.75 54.7 80.04 54.71 80.34 54.71 80.64 54.72 80.94 54.72 81.23 54.73 81.53 54.73 81.83 54.74 82.12 54.74 82.42 54.74 82.72 54.75 83.01 54.75 83.31 54.76 83.61 54.76 83.91 54.76 84.2 54.77 84.5 54.77 84.8 54.77 85.09 54.78 85.39 54.78 85.69 54.78 85.99 54.79 86.28 54.79 86.58 54.79 86.88 54.8 87.17 54.8 87.47 54.8 87.77 54.81 88.06 54.81 88.36 54.81 88.66 54.81 88.96 54.82 89.25 54.82 89.55 54.82 89.85 54.82 90.14 54.83 90.44 54.83 90.74 54.83 91.04 54.83 91.33 54.83 91.63 54.84 91.93 54.84 92.22 54.84 92.52 54.84 92.82 54.84 93.11 54.85 93.41 54.85 93.71 54.85 94.01 54.85 94.3 54.85 94.6 54.85"/>
      </g>
      <g stroke-width="0.3" fill="#000000" fill-opacity="0.000" class="geometry" stroke="#244B8E" id="fig-34f727b7416a46b48f64db3c52342671-element-16">
        <path fill="none" d="M20.63,40.24 L 20.93 40.41 21.23 40.59 21.52 40.77 21.82 40.94 22.12 41.11 22.41 41.28 22.71 41.45 23.01 41.61 23.31 41.77 23.6 41.93 23.9 42.09 24.2 42.25 24.49 42.41 24.79 42.56 25.09 42.71 25.38 42.86 25.68 43.01 25.98 43.15 26.28 43.3 26.57 43.44 26.87 43.58 27.17 43.72 27.46 43.85 27.76 43.99 28.06 44.12 28.36 44.25 28.65 44.38 28.95 44.51 29.25 44.64 29.54 44.77 29.84 44.89 30.14 45.01 30.43 45.13 30.73 45.25 31.03 45.37 31.33 45.49 31.62 45.6 31.92 45.72 32.22 45.83 32.51 45.94 32.81 46.05 33.11 46.16 33.41 46.27 33.7 46.37 34 46.48 34.3 46.58 34.59 46.68 34.89 46.78 35.19 46.88 35.48 46.98 35.78 47.08 36.08 47.17 36.38 47.27 36.67 47.36 36.97 47.45 37.27 47.54 37.56 47.63 37.86 47.72 38.16 47.81 38.46 47.9 38.75 47.98 39.05 48.07 39.35 48.15 39.64 48.24 39.94 48.32 40.24 48.4 40.53 48.48 40.83 48.56 41.13 48.63 41.43 48.71 41.72 48.79 42.02 48.86 42.32 48.94 42.61 49.01 42.91 49.08 43.21 49.15 43.51 49.22 43.8 49.29 44.1 49.36 44.4 49.43 44.69 49.5 44.99 49.56 45.29 49.63 45.58 49.69 45.88 49.76 46.18 49.82 46.48 49.88 46.77 49.94 47.07 50 47.37 50.06 47.66 50.12 47.96 50.18 48.26 50.24 48.56 50.3 48.85 50.35 49.15 50.41 49.45 50.46 49.74 50.52 50.04 50.57 50.34 50.63 50.63 50.68 50.93 50.73 51.23 50.78 51.53 50.83 51.82 50.88 52.12 50.93 52.42 50.98 52.71 51.03 53.01 51.08 53.31 51.12 53.61 51.17 53.9 51.21 54.2 51.26 54.5 51.3 54.79 51.35 55.09 51.39 55.39 51.44 55.68 51.48 55.98 51.52 56.28 51.56 56.58 51.6 56.87 51.64 57.17 51.68 57.47 51.72 57.76 51.76 58.06 51.8 58.36 51.84 58.66 51.88 58.95 51.91 59.25 51.95 59.55 51.99 59.84 52.02 60.14 52.06 60.44 52.09 60.73 52.13 61.03 52.16 61.33 52.19 61.63 52.23 61.92 52.26 62.22 52.29 62.52 52.33 62.81 52.36 63.11 52.39 63.41 52.42 63.71 52.45 64 52.48 64.3 52.51 64.6 52.54 64.89 52.57 65.19 52.6 65.49 52.62 65.79 52.65 66.08 52.68 66.38 52.71 66.68 52.73 66.97 52.76 67.27 52.79 67.57 52.81 67.86 52.84 68.16 52.87 68.46 52.89 68.76 52.91 69.05 52.94 69.35 52.96 69.65 52.99 69.94 53.01 70.24 53.03 70.54 53.06 70.84 53.08 71.13 53.1 71.43 53.12 71.73 53.15 72.02 53.17 72.32 53.19 72.62 53.21 72.91 53.23 73.21 53.25 73.51 53.27 73.81 53.29 74.1 53.31 74.4 53.33 74.7 53.35 74.99 53.37 75.29 53.39 75.59 53.41 75.89 53.43 76.18 53.44 76.48 53.46 76.78 53.48 77.07 53.5 77.37 53.52 77.67 53.53 77.96 53.55 78.26 53.57 78.56 53.58 78.86 53.6 79.15 53.61 79.45 53.63 79.75 53.65 80.04 53.66 80.34 53.68 80.64 53.69 80.94 53.71 81.23 53.72 81.53 53.74 81.83 53.75 82.12 53.77 82.42 53.78 82.72 53.79 83.01 53.81 83.31 53.82 83.61 53.83 83.91 53.85 84.2 53.86 84.5 53.87 84.8 53.89 85.09 53.9 85.39 53.91 85.69 53.92 85.99 53.94 86.28 53.95 86.58 53.96 86.88 53.97 87.17 53.98 87.47 53.99 87.77 54 88.06 54.02 88.36 54.03 88.66 54.04 88.96 54.05 89.25 54.06 89.55 54.07 89.85 54.08 90.14 54.09 90.44 54.1 90.74 54.11 91.04 54.12 91.33 54.13 91.63 54.14 91.93 54.15 92.22 54.16 92.52 54.17 92.82 54.18 93.11 54.19 93.41 54.19 93.71 54.2 94.01 54.21 94.3 54.22 94.6 54.23"/>
      </g>
      <g stroke-width="0.3" fill="#000000" fill-opacity="0.000" class="geometry" stroke="#264E92" id="fig-34f727b7416a46b48f64db3c52342671-element-17">
        <path fill="none" d="M20.63,18.71 L 20.93 19.8 21.23 20.84 21.52 21.86 21.82 22.85 22.12 23.81 22.41 24.74 22.71 25.64 23.01 26.52 23.31 27.36 23.6 28.19 23.9 28.99 24.2 29.76 24.49 30.51 24.79 31.24 25.09 31.95 25.38 32.64 25.68 33.3 25.98 33.95 26.28 34.57 26.57 35.18 26.87 35.77 27.17 36.34 27.46 36.9 27.76 37.44 28.06 37.96 28.36 38.47 28.65 38.96 28.95 39.44 29.25 39.9 29.54 40.35 29.84 40.78 30.14 41.2 30.43 41.61 30.73 42.01 31.03 42.4 31.33 42.77 31.62 43.13 31.92 43.49 32.22 43.83 32.51 44.16 32.81 44.48 33.11 44.79 33.41 45.1 33.7 45.39 34 45.67 34.3 45.95 34.59 46.22 34.89 46.48 35.19 46.73 35.48 46.97 35.78 47.21 36.08 47.44 36.38 47.67 36.67 47.88 36.97 48.09 37.27 48.3 37.56 48.49 37.86 48.69 38.16 48.87 38.46 49.05 38.75 49.23 39.05 49.4 39.35 49.56 39.64 49.72 39.94 49.88 40.24 50.03 40.53 50.17 40.83 50.32 41.13 50.45 41.43 50.59 41.72 50.72 42.02 50.84 42.32 50.96 42.61 51.08 42.91 51.2 43.21 51.31 43.51 51.42 43.8 51.52 44.1 51.62 44.4 51.72 44.69 51.82 44.99 51.91 45.29 52 45.58 52.08 45.88 52.17 46.18 52.25 46.48 52.33 46.77 52.41 47.07 52.48 47.37 52.56 47.66 52.63 47.96 52.69 48.26 52.76 48.56 52.83 48.85 52.89 49.15 52.95 49.45 53.01 49.74 53.06 50.04 53.12 50.34 53.17 50.63 53.23 50.93 53.28 51.23 53.32 51.53 53.37 51.82 53.42 52.12 53.46 52.42 53.51 52.71 53.55 53.01 53.59 53.31 53.63 53.61 53.67 53.9 53.7 54.2 53.74 54.5 53.78 54.79 53.81 55.09 53.84 55.39 53.88 55.68 53.91 55.98 53.94 56.28 53.97 56.58 53.99 56.87 54.02 57.17 54.05 57.47 54.07 57.76 54.1 58.06 54.12 58.36 54.15 58.66 54.17 58.95 54.19 59.25 54.21 59.55 54.24 59.84 54.26 60.14 54.28 60.44 54.29 60.73 54.31 61.03 54.33 61.33 54.35 61.63 54.37 61.92 54.38 62.22 54.4 62.52 54.41 62.81 54.43 63.11 54.44 63.41 54.46 63.71 54.47 64 54.48 64.3 54.5 64.6 54.51 64.89 54.52 65.19 54.53 65.49 54.54 65.79 54.56 66.08 54.57 66.38 54.58 66.68 54.59 66.97 54.6 67.27 54.61 67.57 54.62 67.86 54.62 68.16 54.63 68.46 54.64 68.76 54.65 69.05 54.66 69.35 54.67 69.65 54.67 69.94 54.68 70.24 54.69 70.54 54.69 70.84 54.7 71.13 54.71 71.43 54.71 71.73 54.72 72.02 54.72 72.32 54.73 72.62 54.74 72.91 54.74 73.21 54.75 73.51 54.75 73.81 54.76 74.1 54.76 74.4 54.77 74.7 54.77 74.99 54.77 75.29 54.78 75.59 54.78 75.89 54.79 76.18 54.79 76.48 54.79 76.78 54.8 77.07 54.8 77.37 54.8 77.67 54.81 77.96 54.81 78.26 54.81 78.56 54.82 78.86 54.82 79.15 54.82 79.45 54.83 79.75 54.83 80.04 54.83 80.34 54.83 80.64 54.84 80.94 54.84 81.23 54.84 81.53 54.84 81.83 54.85 82.12 54.85 82.42 54.85 82.72 54.85 83.01 54.85 83.31 54.85 83.61 54.86 83.91 54.86 84.2 54.86 84.5 54.86 84.8 54.86 85.09 54.86 85.39 54.87 85.69 54.87 85.99 54.87 86.28 54.87 86.58 54.87 86.88 54.87 87.17 54.87 87.47 54.88 87.77 54.88 88.06 54.88 88.36 54.88 88.66 54.88 88.96 54.88 89.25 54.88 89.55 54.88 89.85 54.88 90.14 54.89 90.44 54.89 90.74 54.89 91.04 54.89 91.33 54.89 91.63 54.89 91.93 54.89 92.22 54.89 92.52 54.89 92.82 54.89 93.11 54.89 93.41 54.89 93.71 54.89 94.01 54.89 94.3 54.9 94.6 54.9"/>
      </g>
      <g stroke-width="0.3" fill="#000000" fill-opacity="0.000" class="geometry" stroke="#99C4F6" id="fig-34f727b7416a46b48f64db3c52342671-element-18">
        <path fill="none" d="M20.63,13.82 L 20.93 15.22 21.23 16.56 21.52 17.86 21.82 19.11 22.12 20.32 22.41 21.5 22.71 22.63 23.01 23.72 23.31 24.78 23.6 25.8 23.9 26.78 24.2 27.73 24.49 28.65 24.79 29.54 25.09 30.4 25.38 31.23 25.68 32.03 25.98 32.81 26.28 33.56 26.57 34.28 26.87 34.98 27.17 35.65 27.46 36.31 27.76 36.94 28.06 37.54 28.36 38.13 28.65 38.7 28.95 39.25 29.25 39.78 29.54 40.29 29.84 40.79 30.14 41.27 30.43 41.73 30.73 42.17 31.03 42.61 31.33 43.02 31.62 43.43 31.92 43.81 32.22 44.19 32.51 44.55 32.81 44.9 33.11 45.24 33.41 45.57 33.7 45.89 34 46.19 34.3 46.49 34.59 46.77 34.89 47.05 35.19 47.31 35.48 47.57 35.78 47.82 36.08 48.06 36.38 48.29 36.67 48.52 36.97 48.73 37.27 48.94 37.56 49.15 37.86 49.34 38.16 49.53 38.46 49.71 38.75 49.89 39.05 50.06 39.35 50.22 39.64 50.38 39.94 50.53 40.24 50.68 40.53 50.83 40.83 50.96 41.13 51.1 41.43 51.23 41.72 51.35 42.02 51.47 42.32 51.59 42.61 51.7 42.91 51.81 43.21 51.92 43.51 52.02 43.8 52.12 44.1 52.21 44.4 52.3 44.69 52.39 44.99 52.48 45.29 52.56 45.58 52.64 45.88 52.72 46.18 52.79 46.48 52.86 46.77 52.93 47.07 53 47.37 53.06 47.66 53.13 47.96 53.19 48.26 53.25 48.56 53.3 48.85 53.36 49.15 53.41 49.45 53.46 49.74 53.51 50.04 53.56 50.34 53.6 50.63 53.65 50.93 53.69 51.23 53.73 51.53 53.77 51.82 53.81 52.12 53.85 52.42 53.88 52.71 53.92 53.01 53.95 53.31 53.99 53.61 54.02 53.9 54.05 54.2 54.08 54.5 54.1 54.79 54.13 55.09 54.16 55.39 54.18 55.68 54.21 55.98 54.23 56.28 54.26 56.58 54.28 56.87 54.3 57.17 54.32 57.47 54.34 57.76 54.36 58.06 54.38 58.36 54.4 58.66 54.41 58.95 54.43 59.25 54.45 59.55 54.46 59.84 54.48 60.14 54.49 60.44 54.51 60.73 54.52 61.03 54.54 61.33 54.55 61.63 54.56 61.92 54.57 62.22 54.58 62.52 54.6 62.81 54.61 63.11 54.62 63.41 54.63 63.71 54.64 64 54.65 64.3 54.65 64.6 54.66 64.89 54.67 65.19 54.68 65.49 54.69 65.79 54.7 66.08 54.7 66.38 54.71 66.68 54.72 66.97 54.72 67.27 54.73 67.57 54.74 67.86 54.74 68.16 54.75 68.46 54.75 68.76 54.76 69.05 54.77 69.35 54.77 69.65 54.78 69.94 54.78 70.24 54.78 70.54 54.79 70.84 54.79 71.13 54.8 71.43 54.8 71.73 54.81 72.02 54.81 72.32 54.81 72.62 54.82 72.91 54.82 73.21 54.82 73.51 54.83 73.81 54.83 74.1 54.83 74.4 54.83 74.7 54.84 74.99 54.84 75.29 54.84 75.59 54.84 75.89 54.85 76.18 54.85 76.48 54.85 76.78 54.85 77.07 54.86 77.37 54.86 77.67 54.86 77.96 54.86 78.26 54.86 78.56 54.87 78.86 54.87 79.15 54.87 79.45 54.87 79.75 54.87 80.04 54.87 80.34 54.87 80.64 54.88 80.94 54.88 81.23 54.88 81.53 54.88 81.83 54.88 82.12 54.88 82.42 54.88 82.72 54.88 83.01 54.89 83.31 54.89 83.61 54.89 83.91 54.89 84.2 54.89 84.5 54.89 84.8 54.89 85.09 54.89 85.39 54.89 85.69 54.89 85.99 54.89 86.28 54.89 86.58 54.9 86.88 54.9 87.17 54.9 87.47 54.9 87.77 54.9 88.06 54.9 88.36 54.9 88.66 54.9 88.96 54.9 89.25 54.9 89.55 54.9 89.85 54.9 90.14 54.9 90.44 54.9 90.74 54.9 91.04 54.9 91.33 54.9 91.63 54.9 91.93 54.9 92.22 54.9 92.52 54.91 92.82 54.91 93.11 54.91 93.41 54.91 93.71 54.91 94.01 54.91 94.3 54.91 94.6 54.91"/>
      </g>
      <g stroke-width="0.3" fill="#000000" fill-opacity="0.000" class="geometry" stroke="#8DB5F2" id="fig-34f727b7416a46b48f64db3c52342671-element-19">
        <path fill="none" d="M20.63,31.91 L 20.93 32.35 21.23 32.78 21.52 33.21 21.82 33.62 22.12 34.03 22.41 34.43 22.71 34.82 23.01 35.2 23.31 35.58 23.6 35.95 23.9 36.31 24.2 36.66 24.49 37.01 24.79 37.35 25.09 37.69 25.38 38.02 25.68 38.34 25.98 38.66 26.28 38.97 26.57 39.27 26.87 39.57 27.17 39.86 27.46 40.15 27.76 40.43 28.06 40.71 28.36 40.98 28.65 41.25 28.95 41.51 29.25 41.76 29.54 42.02 29.84 42.26 30.14 42.5 30.43 42.74 30.73 42.97 31.03 43.2 31.33 43.42 31.62 43.64 31.92 43.86 32.22 44.07 32.51 44.28 32.81 44.48 33.11 44.68 33.41 44.88 33.7 45.07 34 45.25 34.3 45.44 34.59 45.62 34.89 45.8 35.19 45.97 35.48 46.14 35.78 46.31 36.08 46.47 36.38 46.64 36.67 46.79 36.97 46.95 37.27 47.1 37.56 47.25 37.86 47.4 38.16 47.54 38.46 47.68 38.75 47.82 39.05 47.95 39.35 48.09 39.64 48.22 39.94 48.35 40.24 48.47 40.53 48.59 40.83 48.71 41.13 48.83 41.43 48.95 41.72 49.06 42.02 49.17 42.32 49.28 42.61 49.39 42.91 49.5 43.21 49.6 43.51 49.7 43.8 49.8 44.1 49.9 44.4 50 44.69 50.09 44.99 50.18 45.29 50.27 45.58 50.36 45.88 50.45 46.18 50.53 46.48 50.62 46.77 50.7 47.07 50.78 47.37 50.86 47.66 50.94 47.96 51.01 48.26 51.09 48.56 51.16 48.85 51.23 49.15 51.3 49.45 51.37 49.74 51.44 50.04 51.5 50.34 51.57 50.63 51.63 50.93 51.7 51.23 51.76 51.53 51.82 51.82 51.88 52.12 51.93 52.42 51.99 52.71 52.05 53.01 52.1 53.31 52.16 53.61 52.21 53.9 52.26 54.2 52.31 54.5 52.36 54.79 52.41 55.09 52.46 55.39 52.5 55.68 52.55 55.98 52.6 56.28 52.64 56.58 52.68 56.87 52.73 57.17 52.77 57.47 52.81 57.76 52.85 58.06 52.89 58.36 52.93 58.66 52.96 58.95 53 59.25 53.04 59.55 53.07 59.84 53.11 60.14 53.14 60.44 53.18 60.73 53.21 61.03 53.24 61.33 53.28 61.63 53.31 61.92 53.34 62.22 53.37 62.52 53.4 62.81 53.43 63.11 53.45 63.41 53.48 63.71 53.51 64 53.54 64.3 53.56 64.6 53.59 64.89 53.61 65.19 53.64 65.49 53.66 65.79 53.69 66.08 53.71 66.38 53.73 66.68 53.76 66.97 53.78 67.27 53.8 67.57 53.82 67.86 53.84 68.16 53.86 68.46 53.88 68.76 53.9 69.05 53.92 69.35 53.94 69.65 53.96 69.94 53.98 70.24 54 70.54 54.01 70.84 54.03 71.13 54.05 71.43 54.06 71.73 54.08 72.02 54.1 72.32 54.11 72.62 54.13 72.91 54.14 73.21 54.16 73.51 54.17 73.81 54.19 74.1 54.2 74.4 54.21 74.7 54.23 74.99 54.24 75.29 54.25 75.59 54.27 75.89 54.28 76.18 54.29 76.48 54.3 76.78 54.31 77.07 54.32 77.37 54.34 77.67 54.35 77.96 54.36 78.26 54.37 78.56 54.38 78.86 54.39 79.15 54.4 79.45 54.41 79.75 54.42 80.04 54.43 80.34 54.44 80.64 54.45 80.94 54.46 81.23 54.46 81.53 54.47 81.83 54.48 82.12 54.49 82.42 54.5 82.72 54.51 83.01 54.51 83.31 54.52 83.61 54.53 83.91 54.54 84.2 54.54 84.5 54.55 84.8 54.56 85.09 54.56 85.39 54.57 85.69 54.58 85.99 54.58 86.28 54.59 86.58 54.6 86.88 54.6 87.17 54.61 87.47 54.61 87.77 54.62 88.06 54.63 88.36 54.63 88.66 54.64 88.96 54.64 89.25 54.65 89.55 54.65 89.85 54.66 90.14 54.66 90.44 54.67 90.74 54.67 91.04 54.68 91.33 54.68 91.63 54.69 91.93 54.69 92.22 54.69 92.52 54.7 92.82 54.7 93.11 54.71 93.41 54.71 93.71 54.71 94.01 54.72 94.3 54.72 94.6 54.73"/>
      </g>
      <g stroke-width="0.3" fill="#000000" fill-opacity="0.000" class="geometry" stroke="#FF0000" id="fig-34f727b7416a46b48f64db3c52342671-element-20">
        <path fill="none" d="M20.63,18.98 L 20.93 20.05 21.23 21.08 21.52 22.08 21.82 23.06 22.12 24 22.41 24.92 22.71 25.81 23.01 26.67 23.31 27.51 23.6 28.32 23.9 29.11 24.2 29.88 24.49 30.62 24.79 31.34 25.09 32.04 25.38 32.72 25.68 33.38 25.98 34.02 26.28 34.64 26.57 35.24 26.87 35.82 27.17 36.39 27.46 36.94 27.76 37.47 28.06 37.99 28.36 38.49 28.65 38.98 28.95 39.45 29.25 39.91 29.54 40.36 29.84 40.79 30.14 41.21 30.43 41.61 30.73 42.01 31.03 42.39 31.33 42.76 31.62 43.12 31.92 43.47 32.22 43.81 32.51 44.14 32.81 44.46 33.11 44.77 33.41 45.07 33.7 45.37 34 45.65 34.3 45.92 34.59 46.19 34.89 46.45 35.19 46.7 35.48 46.94 35.78 47.18 36.08 47.41 36.38 47.63 36.67 47.85 36.97 48.06 37.27 48.26 37.56 48.46 37.86 48.65 38.16 48.84 38.46 49.02 38.75 49.19 39.05 49.36 39.35 49.53 39.64 49.69 39.94 49.84 40.24 49.99 40.53 50.14 40.83 50.28 41.13 50.42 41.43 50.55 41.72 50.68 42.02 50.81 42.32 50.93 42.61 51.05 42.91 51.16 43.21 51.27 43.51 51.38 43.8 51.49 44.1 51.59 44.4 51.69 44.69 51.78 44.99 51.87 45.29 51.97 45.58 52.05 45.88 52.14 46.18 52.22 46.48 52.3 46.77 52.38 47.07 52.45 47.37 52.53 47.66 52.6 47.96 52.67 48.26 52.73 48.56 52.8 48.85 52.86 49.15 52.92 49.45 52.98 49.74 53.04 50.04 53.09 50.34 53.15 50.63 53.2 50.93 53.25 51.23 53.3 51.53 53.35 51.82 53.39 52.12 53.44 52.42 53.48 52.71 53.53 53.01 53.57 53.31 53.61 53.61 53.65 53.9 53.68 54.2 53.72 54.5 53.76 54.79 53.79 55.09 53.82 55.39 53.86 55.68 53.89 55.98 53.92 56.28 53.95 56.58 53.98 56.87 54 57.17 54.03 57.47 54.06 57.76 54.08 58.06 54.11 58.36 54.13 58.66 54.15 58.95 54.18 59.25 54.2 59.55 54.22 59.84 54.24 60.14 54.26 60.44 54.28 60.73 54.3 61.03 54.32 61.33 54.34 61.63 54.35 61.92 54.37 62.22 54.39 62.52 54.4 62.81 54.42 63.11 54.43 63.41 54.45 63.71 54.46 64 54.47 64.3 54.49 64.6 54.5 64.89 54.51 65.19 54.52 65.49 54.53 65.79 54.55 66.08 54.56 66.38 54.57 66.68 54.58 66.97 54.59 67.27 54.6 67.57 54.61 67.86 54.62 68.16 54.62 68.46 54.63 68.76 54.64 69.05 54.65 69.35 54.66 69.65 54.67 69.94 54.67 70.24 54.68 70.54 54.69 70.84 54.69 71.13 54.7 71.43 54.71 71.73 54.71 72.02 54.72 72.32 54.72 72.62 54.73 72.91 54.74 73.21 54.74 73.51 54.75 73.81 54.75 74.1 54.76 74.4 54.76 74.7 54.77 74.99 54.77 75.29 54.77 75.59 54.78 75.89 54.78 76.18 54.79 76.48 54.79 76.78 54.79 77.07 54.8 77.37 54.8 77.67 54.8 77.96 54.81 78.26 54.81 78.56 54.81 78.86 54.82 79.15 54.82 79.45 54.82 79.75 54.83 80.04 54.83 80.34 54.83 80.64 54.83 80.94 54.84 81.23 54.84 81.53 54.84 81.83 54.84 82.12 54.84 82.42 54.85 82.72 54.85 83.01 54.85 83.31 54.85 83.61 54.85 83.91 54.86 84.2 54.86 84.5 54.86 84.8 54.86 85.09 54.86 85.39 54.86 85.69 54.87 85.99 54.87 86.28 54.87 86.58 54.87 86.88 54.87 87.17 54.87 87.47 54.87 87.77 54.88 88.06 54.88 88.36 54.88 88.66 54.88 88.96 54.88 89.25 54.88 89.55 54.88 89.85 54.88 90.14 54.88 90.44 54.88 90.74 54.89 91.04 54.89 91.33 54.89 91.63 54.89 91.93 54.89 92.22 54.89 92.52 54.89 92.82 54.89 93.11 54.89 93.41 54.89 93.71 54.89 94.01 54.89 94.3 54.89 94.6 54.9"/>
      </g>
    </g>
  </g>
  <g class="guide ylabels" font-size="2.82" font-family="'PT Sans Caption','Helvetica Neue','Helvetica',sans-serif" fill="#6C606B" id="fig-34f727b7416a46b48f64db3c52342671-element-21">
    <text x="17.63" y="54.91" text-anchor="end" dy="0.35em">0.0</text>
    <text x="17.63" y="42.94" text-anchor="end" dy="0.35em">0.5</text>
    <text x="17.63" y="30.96" text-anchor="end" dy="0.35em">1.0</text>
    <text x="17.63" y="18.98" text-anchor="end" dy="0.35em">1.5</text>
    <text x="17.63" y="7" text-anchor="end" dy="0.35em">2.0</text>
  </g>
  <g font-size="3.88" font-family="'PT Sans','Helvetica Neue','Helvetica',sans-serif" fill="#564A55" stroke="#000000" stroke-opacity="0.000" id="fig-34f727b7416a46b48f64db3c52342671-element-22">
    <text x="8.81" y="28.96" text-anchor="middle" dy="0.35em" transform="rotate(-90, 8.81, 30.96)">P(x)</text>
  </g>
</g>
<defs>
<clipPath id="fig-34f727b7416a46b48f64db3c52342671-element-5">
  <path d="M18.63,5 L 96.6 5 96.6 56.91 18.63 56.91" />
</clipPath
></defs>
</svg>
