<?xml version="1.0" encoding="UTF-8" standalone="no"?>
<!-- Created with Inkscape (http://www.inkscape.org/) -->

<svg
   xmlns:dc="http://purl.org/dc/elements/1.1/"
   xmlns:cc="http://creativecommons.org/ns#"
   xmlns:rdf="http://www.w3.org/1999/02/22-rdf-syntax-ns#"
   xmlns:svg="http://www.w3.org/2000/svg"
   xmlns="http://www.w3.org/2000/svg"
   version="1.1"
   width="200.0625"
   height="200.4375"
   id="svg5139">
  <defs
     id="defs5141" />
  <metadata
     id="metadata5144">
    <rdf:RDF>
      <cc:Work
         rdf:about="">
        <dc:format>image/svg+xml</dc:format>
        <dc:type
           rdf:resource="http://purl.org/dc/dcmitype/StillImage" />
        <dc:title></dc:title>
      </cc:Work>
    </rdf:RDF>
  </metadata>
  <g
     transform="translate(-17.09375,-125.71875)"
     id="layer1">
    <rect
       width="197.9622"
       height="197.9622"
       x="18.163553"
       y="127.1913"
       id="rect2985-36-7"
       style="fill:none;stroke:#000000;stroke-width:2;stroke-miterlimit:4;stroke-opacity:1;stroke-dasharray:none;stroke-dashoffset:0" />
    <path
       d="M 184.26198,267.52753 C 184.26198,267.52753 194.43127,274.30706 187.65174,289.22201 180.87221,304.13698 171.38087,298.71335 169.34701,291.93382 167.31316,285.1543 167.99111,260.07005 167.99111,260.07005 167.99111,260.07005 180.19426,241.08737 182.22811,253.29052 184.26198,265.49367 184.26198,267.52753 184.26198,267.52753 z"
       id="path3203-8-1"
       style="fill:#ececec;stroke:#000000;stroke-width:1px;stroke-linecap:butt;stroke-linejoin:miter;stroke-opacity:1" />
    <text
       x="22.888559"
       y="140.98482"
       id="text3478-6-4-70"
       xml:space="preserve"
       style="font-size:37.96535492px;font-style:normal;font-variant:normal;font-weight:normal;font-stretch:normal;line-height:125%;letter-spacing:0px;word-spacing:0px;fill:#000000;fill-opacity:1;stroke:none;font-family:Abyssinica SIL;-inkscape-font-specification:Abyssinica SIL"><tspan
         x="22.888559"
         y="140.98482"
         id="tspan3480-6-0-1"
         style="font-size:13.28787422px">TF</tspan></text>
    <path
       d="M 77.6152,156.15716 C 77.6152,156.15716 61.3396,155.47901 65.40849,173.11092 69.4774,190.74281 59.30514,212.44361 49.81105,225.32846 40.31695,238.2133 18.61616,274.8334 38.2825,289.07455 57.94885,303.3157 77.6152,317.55685 89.14374,301.9594 100.67229,286.36195 110.16639,294.49975 99.31599,266.6956 88.46559,238.89145 72.18999,226.68476 93.89079,213.79991 115.59159,200.91506 108.40457,202.27136 108.40457,182.60501 108.40457,162.93866 115.67971,136.04537 98.04781,142.82687 80.41591,149.60837 77.6152,156.15716 77.6152,156.15716 z"
       id="path2991-7-2"
       style="fill:#ececec;stroke:#000000;stroke-width:0.99999994px;stroke-linecap:butt;stroke-linejoin:miter;stroke-opacity:1" />
    <rect
       width="198.05829"
       height="198"
       x="18.100321"
       y="126.73042"
       id="rect3476-1"
       style="fill:#ff00ff;fill-opacity:0.39215686;stroke:#000000;stroke-width:2;stroke-miterlimit:4;stroke-opacity:1;stroke-dasharray:none;stroke-dashoffset:0" />
  </g>
</svg>
