<?xml version="1.0" encoding="UTF-8" standalone="no"?>
<!-- Created with Inkscape (http://www.inkscape.org/) -->

<svg
   xmlns:dc="http://purl.org/dc/elements/1.1/"
   xmlns:cc="http://creativecommons.org/ns#"
   xmlns:rdf="http://www.w3.org/1999/02/22-rdf-syntax-ns#"
   xmlns:svg="http://www.w3.org/2000/svg"
   xmlns="http://www.w3.org/2000/svg"
   version="1.1"
   width="199.625"
   height="200.625"
   id="svg5139">
  <defs
     id="defs5141" />
  <metadata
     id="metadata5144">
    <rdf:RDF>
      <cc:Work
         rdf:about="">
        <dc:format>image/svg+xml</dc:format>
        <dc:type
           rdf:resource="http://purl.org/dc/dcmitype/StillImage" />
        <dc:title></dc:title>
      </cc:Work>
    </rdf:RDF>
  </metadata>
  <g
     transform="translate(47.71875,18.4375)"
     id="layer1">
    <rect
       width="197.63132"
       height="197.63141"
       x="-46.721909"
       y="-16.451426"
       id="rect2985-36-7-5"
       style="fill:none;stroke:#000000;stroke-width:1.99999988;stroke-miterlimit:4;stroke-opacity:1;stroke-dasharray:none;stroke-dashoffset:0" />
    <path
       d="M 12.744189,10.593057 C 12.744189,10.593057 -3.5314105,9.9149072 0.53747947,27.546817 4.6063895,45.178707 -5.5658705,66.879507 -15.059961,79.764367 -24.554061,92.649197 -46.254851,129.26929 -26.588511,143.51044 -6.9221605,157.75159 12.744189,171.99274 24.272729,156.39529 35.801281,140.79784 45.295381,148.93564 34.444979,121.13149 23.594579,93.327347 7.3189795,81.120657 29.019779,68.235807 50.720581,55.350957 43.533561,56.707257 43.533561,37.040907 43.533561,17.374557 50.808701,-9.5187328 33.176799,-2.7372328 15.544899,4.0442672 12.744189,10.593057 12.744189,10.593057 z"
       id="path2991-7-0"
       style="fill:#ececec;stroke:#000000;stroke-width:0.99999994px;stroke-linecap:butt;stroke-linejoin:miter;stroke-opacity:1" />
    <rect
       width="99"
       height="199"
       x="-46.37822"
       y="-17.795664"
       id="rect3476-1-6-3"
       style="fill:#ff00ff;fill-opacity:0.39215686;stroke:#000000;stroke-width:1;stroke-miterlimit:4;stroke-opacity:1;stroke-dasharray:none;stroke-dashoffset:0" />
    <path
       d="M 119.09885,123.65031 C 119.09885,123.65031 129.25114,130.41851 122.48296,145.30855 115.71476,160.19858 106.23928,154.78402 104.20881,148.01582 102.17836,141.24763 102.85519,116.20529 102.85519,116.20529 102.85519,116.20529 115.03793,97.254337 117.06839,109.43709 119.09885,121.61984 119.09885,123.65031 119.09885,123.65031 z"
       id="path3203-8-1-3"
       style="fill:#ececec;stroke:#000000;stroke-width:0.99999994px;stroke-linecap:butt;stroke-linejoin:miter;stroke-opacity:1" />
    <rect
       width="99"
       height="199"
       x="52.191299"
       y="-17.938913"
       id="rect3476-1-6-3-3"
       style="fill:#ff00ff;fill-opacity:0.39215686;stroke:#000000;stroke-width:1;stroke-miterlimit:4;stroke-opacity:1;stroke-dasharray:none;stroke-dashoffset:0" />
    <text
       x="-41.843338"
       y="-3.0144744"
       id="text3478-6-4-1"
       xml:space="preserve"
       style="font-size:37.90190506px;font-style:normal;font-variant:normal;font-weight:normal;font-stretch:normal;line-height:125%;letter-spacing:0px;word-spacing:0px;fill:#000000;fill-opacity:1;stroke:none;font-family:Abyssinica SIL;-inkscape-font-specification:Abyssinica SIL"><tspan
         x="-41.843338"
         y="-3.0144744"
         id="tspan3480-6-0-7"
         style="font-size:13.26566696px">TF</tspan></text>
    <text
       x="60.094978"
       y="-3.0144744"
       id="text3478-6-4-0"
       xml:space="preserve"
       style="font-size:37.90190506px;font-style:normal;font-variant:normal;font-weight:normal;font-stretch:normal;line-height:125%;letter-spacing:0px;word-spacing:0px;fill:#000000;fill-opacity:1;stroke:none;font-family:Abyssinica SIL;-inkscape-font-specification:Abyssinica SIL"><tspan
         x="60.094978"
         y="-3.0144744"
         id="tspan3480-6-0-0"
         style="font-size:13.26566696px">TF</tspan></text>
  </g>
</svg>
