<?xml version="1.0" encoding="UTF-8" standalone="no"?>
<!-- Created with Inkscape (http://www.inkscape.org/) -->

<svg
   xmlns:dc="http://purl.org/dc/elements/1.1/"
   xmlns:cc="http://creativecommons.org/ns#"
   xmlns:rdf="http://www.w3.org/1999/02/22-rdf-syntax-ns#"
   xmlns:svg="http://www.w3.org/2000/svg"
   xmlns="http://www.w3.org/2000/svg"
   version="1.1"
   width="200"
   height="200"
   id="svg5139">
  <defs
     id="defs5141" />
  <metadata
     id="metadata5144">
    <rdf:RDF>
      <cc:Work
         rdf:about="">
        <dc:format>image/svg+xml</dc:format>
        <dc:type
           rdf:resource="http://purl.org/dc/dcmitype/StillImage" />
        <dc:title></dc:title>
      </cc:Work>
    </rdf:RDF>
  </metadata>
  <g
     transform="translate(90.71875,-102.375)"
     id="layer1">
    <rect
       width="198.01883"
       height="198.01883"
       x="-89.723701"
       y="103.36559"
       id="rect2985-3"
       style="fill:none;stroke:#000000;stroke-width:2;stroke-miterlimit:4;stroke-opacity:1;stroke-dasharray:none;stroke-dashoffset:0" />
    <path
       d="M -245,99.147896 A 5.3571429,5.3571429 0 1 1 -255.71429,99.147896 5.3571429,5.3571429 0 1 1 -245,99.147896 z"
       transform="matrix(0.7573597,0,0,0.8021151,225.84042,103.23891)"
       id="path2993-6"
       style="fill:#ff0000;stroke:#000000;stroke-width:2.10658169;stroke-miterlimit:4;stroke-opacity:1;stroke-dasharray:none;stroke-dashoffset:0" />
    <path
       d="M -245,99.147896 A 5.3571429,5.3571429 0 1 1 -255.71429,99.147896 5.3571429,5.3571429 0 1 1 -245,99.147896 z"
       transform="matrix(0.7573597,0,0,0.8021151,229.41274,156.07616)"
       id="path2993-7-43"
       style="fill:#ff0000;stroke:#000000;stroke-width:2.10658169;stroke-miterlimit:4;stroke-opacity:1;stroke-dasharray:none;stroke-dashoffset:0" />
    <path
       d="M -245,99.147896 A 5.3571429,5.3571429 0 1 1 -255.71429,99.147896 5.3571429,5.3571429 0 1 1 -245,99.147896 z"
       transform="matrix(0.7573597,0,0,0.8021151,257.8949,116.06552)"
       id="path2993-7-5-7"
       style="fill:#ff0000;stroke:#000000;stroke-width:2.10658169;stroke-miterlimit:4;stroke-opacity:1;stroke-dasharray:none;stroke-dashoffset:0" />
    <path
       d="M -245,99.147896 A 5.3571429,5.3571429 0 1 1 -255.71429,99.147896 5.3571429,5.3571429 0 1 1 -245,99.147896 z"
       transform="matrix(0.7573597,0,0,0.8021151,278.23929,202.19014)"
       id="path2993-7-8-0"
       style="fill:#ff0000;stroke:#000000;stroke-width:2.10658169;stroke-miterlimit:4;stroke-opacity:1;stroke-dasharray:none;stroke-dashoffset:0" />
    <path
       d="M -245,99.147896 A 5.3571429,5.3571429 0 1 1 -255.71429,99.147896 5.3571429,5.3571429 0 1 1 -245,99.147896 z"
       transform="matrix(0.7573597,0,0,0.8021151,256.53861,77.411155)"
       id="path2993-7-2-2"
       style="fill:#ff0000;stroke:#000000;stroke-width:2.10658169;stroke-miterlimit:4;stroke-opacity:1;stroke-dasharray:none;stroke-dashoffset:0" />
    <path
       d="M -245,99.147896 A 5.3571429,5.3571429 0 1 1 -255.71429,99.147896 5.3571429,5.3571429 0 1 1 -245,99.147896 z"
       transform="matrix(0.7573597,0,0,0.8021151,133.79405,58.423045)"
       id="path2993-7-89-4"
       style="fill:#ff0000;stroke:#000000;stroke-width:2.10658169;stroke-miterlimit:4;stroke-opacity:1;stroke-dasharray:none;stroke-dashoffset:0" />
    <path
       d="M -245,99.147896 A 5.3571429,5.3571429 0 1 1 -255.71429,99.147896 5.3571429,5.3571429 0 1 1 -245,99.147896 z"
       transform="matrix(0.7573597,0,0,0.8021151,124.3,90.974085)"
       id="path2993-7-4-8"
       style="fill:#ff0000;stroke:#000000;stroke-width:2.10658169;stroke-miterlimit:4;stroke-opacity:1;stroke-dasharray:none;stroke-dashoffset:0" />
    <path
       d="M -245,99.147896 A 5.3571429,5.3571429 0 1 1 -255.71429,99.147896 5.3571429,5.3571429 0 1 1 -245,99.147896 z"
       transform="matrix(0.7573597,0,0,0.8021151,183.97691,204.90273)"
       id="path2993-7-82-0"
       style="fill:#ff0000;stroke:#000000;stroke-width:2.10658169;stroke-miterlimit:4;stroke-opacity:1;stroke-dasharray:none;stroke-dashoffset:0" />
    <path
       d="M -245,99.147896 A 5.3571429,5.3571429 0 1 1 -255.71429,99.147896 5.3571429,5.3571429 0 1 1 -245,99.147896 z"
       transform="matrix(0.7573597,0,0,0.8021151,224.66572,204.90273)"
       id="path2993-7-6-8"
       style="fill:#ff0000;stroke:#000000;stroke-width:2.10658169;stroke-miterlimit:4;stroke-opacity:1;stroke-dasharray:none;stroke-dashoffset:0" />
    <path
       d="M -245,99.147896 A 5.3571429,5.3571429 0 1 1 -255.71429,99.147896 5.3571429,5.3571429 0 1 1 -245,99.147896 z"
       transform="matrix(0.7573597,0,0,0.8021151,190.08023,130.30659)"
       id="path2993-7-0-0"
       style="fill:#ff0000;stroke:#000000;stroke-width:2.10658169;stroke-miterlimit:4;stroke-opacity:1;stroke-dasharray:none;stroke-dashoffset:0" />
    <path
       d="M -245,99.147896 A 5.3571429,5.3571429 0 1 1 -255.71429,99.147896 5.3571429,5.3571429 0 1 1 -245,99.147896 z"
       transform="matrix(0.7573597,0,0,0.8021151,248.40085,38.756785)"
       id="path2993-7-7-5"
       style="fill:#ff0000;stroke:#000000;stroke-width:2.10658169;stroke-miterlimit:4;stroke-opacity:1;stroke-dasharray:none;stroke-dashoffset:0" />
    <path
       d="M -245,99.147896 A 5.3571429,5.3571429 0 1 1 -255.71429,99.147896 5.3571429,5.3571429 0 1 1 -245,99.147896 z"
       transform="matrix(0.7573597,0,0,0.8021151,161.59806,71.307835)"
       id="path2993-7-4-6-6-8"
       style="fill:#ff0000;stroke:#000000;stroke-width:2.10658169;stroke-miterlimit:4;stroke-opacity:1;stroke-dasharray:none;stroke-dashoffset:0" />
    <path
       d="M -245,99.147896 A 5.3571429,5.3571429 0 1 1 -255.71429,99.147896 5.3571429,5.3571429 0 1 1 -245,99.147896 z"
       transform="matrix(0.7573597,0,0,0.8021151,182.62061,82.836325)"
       id="path2993-7-4-6-64-9"
       style="fill:#ff0000;stroke:#000000;stroke-width:2.10658169;stroke-miterlimit:4;stroke-opacity:1;stroke-dasharray:none;stroke-dashoffset:0" />
    <path
       d="M -245,99.147896 A 5.3571429,5.3571429 0 1 1 -255.71429,99.147896 5.3571429,5.3571429 0 1 1 -245,99.147896 z"
       transform="matrix(0.7573597,0,0,0.8021151,154.13845,101.82444)"
       id="path2993-7-4-6-4-9"
       style="fill:#ff0000;stroke:#000000;stroke-width:2.10658169;stroke-miterlimit:4;stroke-opacity:1;stroke-dasharray:none;stroke-dashoffset:0" />
    <path
       d="M -245,99.147896 A 5.3571429,5.3571429 0 1 1 -255.71429,99.147896 5.3571429,5.3571429 0 1 1 -245,99.147896 z"
       transform="matrix(0.7573597,0,0,0.8021151,137.23298,135.28633)"
       id="path2993-7-4-6-2-7"
       style="fill:#ff0000;stroke:#000000;stroke-width:2.10658169;stroke-miterlimit:4;stroke-opacity:1;stroke-dasharray:none;stroke-dashoffset:0" />
    <path
       d="M -245,99.147896 A 5.3571429,5.3571429 0 1 1 -255.71429,99.147896 5.3571429,5.3571429 0 1 1 -245,99.147896 z"
       transform="matrix(0.7573597,0,0,0.8021151,137.86293,164.89207)"
       id="path2993-7-4-6-0-3"
       style="fill:#ff0000;stroke:#000000;stroke-width:2.10658169;stroke-miterlimit:4;stroke-opacity:1;stroke-dasharray:none;stroke-dashoffset:0" />
    <path
       d="M -245,99.147896 A 5.3571429,5.3571429 0 1 1 -255.71429,99.147896 5.3571429,5.3571429 0 1 1 -245,99.147896 z"
       transform="matrix(0.7573597,0,0,0.8021151,167.02324,171.67354)"
       id="path2993-7-4-6-3-5"
       style="fill:#ff0000;stroke:#000000;stroke-width:2.10658169;stroke-miterlimit:4;stroke-opacity:1;stroke-dasharray:none;stroke-dashoffset:0" />
    <path
       d="M -245,99.147896 A 5.3571429,5.3571429 0 1 1 -255.71429,99.147896 5.3571429,5.3571429 0 1 1 -245,99.147896 z"
       transform="matrix(0.7573597,0,0,0.8021151,260.60749,172.35169)"
       id="path2993-7-4-6-4-8-0"
       style="fill:#ff0000;stroke:#000000;stroke-width:2.10658169;stroke-miterlimit:4;stroke-opacity:1;stroke-dasharray:none;stroke-dashoffset:0" />
    <path
       d="M -30.994121,123.73337 C -30.994121,123.73337 -65.519731,180.31698 -65.519731,204.2931 -65.519731,228.2692 -53.052141,262.79479 -54.970241,278.1395 -56.888321,293.48421 -77.028261,286.7709 -77.028261,286.7709"
       id="path3332"
       style="fill:none;stroke:#000000;stroke-width:1px;stroke-linecap:butt;stroke-linejoin:miter;stroke-opacity:1" />
  </g>
</svg>
