<?xml version="1.0" encoding="UTF-8" standalone="no"?>
<!-- Created with Inkscape (http://www.inkscape.org/) -->

<svg
   xmlns:dc="http://purl.org/dc/elements/1.1/"
   xmlns:cc="http://creativecommons.org/ns#"
   xmlns:rdf="http://www.w3.org/1999/02/22-rdf-syntax-ns#"
   xmlns:svg="http://www.w3.org/2000/svg"
   xmlns="http://www.w3.org/2000/svg"
   version="1.1"
   width="200"
   height="200.03125"
   id="svg5139">
  <defs
     id="defs5141" />
  <metadata
     id="metadata5144">
    <rdf:RDF>
      <cc:Work
         rdf:about="">
        <dc:format>image/svg+xml</dc:format>
        <dc:type
           rdf:resource="http://purl.org/dc/dcmitype/StillImage" />
        <dc:title></dc:title>
      </cc:Work>
    </rdf:RDF>
  </metadata>
  <g
     transform="translate(-40,-252.34375)"
     id="layer1">
    <rect
       width="198.02034"
       height="198.02034"
       x="40.989834"
       y="253.35201"
       id="rect2985"
       style="fill:none;stroke:#000000;stroke-width:2;stroke-miterlimit:4;stroke-opacity:1;stroke-dasharray:none;stroke-dashoffset:0" />
    <path
       d="M 100.66719,281.83439 C 100.66719,281.83439 84.391543,281.15624 88.460453,298.7882 92.529373,316.42014 82.357083,338.121 72.862963,351.00589 63.368833,363.89076 41.667973,400.51096 61.334373,414.75215 81.000783,428.99334 100.66719,443.23453 112.19576,427.63704 123.72435,412.03954 133.21847,420.17737 122.36805,392.37314 111.51762,364.56891 95.241973,352.36218 116.94283,339.47731 138.64369,326.59242 131.45665,327.94872 131.45665,308.28232 131.45665,288.61591 138.73181,261.72254 121.09986,268.50406 103.46791,275.28558 100.66719,281.83439 100.66719,281.83439 z"
       id="path2991"
       style="fill:#ececec;stroke:#000000;stroke-width:1px;stroke-linecap:butt;stroke-linejoin:miter;stroke-opacity:1" />
    <path
       d="M -245,99.147896 A 5.3571429,5.3571429 0 1 1 -255.71429,99.147896 5.3571429,5.3571429 0 1 1 -245,99.147896 z"
       transform="matrix(0.75736548,0,0,0.80212121,356.55634,253.22533)"
       id="path2993"
       style="fill:#ff0000;stroke:#000000;stroke-width:2.10656571;stroke-miterlimit:4;stroke-opacity:1;stroke-dasharray:none;stroke-dashoffset:0" />
    <path
       d="M -245,99.147896 A 5.3571429,5.3571429 0 1 1 -255.71429,99.147896 5.3571429,5.3571429 0 1 1 -245,99.147896 z"
       transform="matrix(0.75736548,0,0,0.80212121,360.12869,306.06299)"
       id="path2993-7"
       style="fill:#ff0000;stroke:#000000;stroke-width:2.10656571;stroke-miterlimit:4;stroke-opacity:1;stroke-dasharray:none;stroke-dashoffset:0" />
    <path
       d="M -245,99.147896 A 5.3571429,5.3571429 0 1 1 -255.71429,99.147896 5.3571429,5.3571429 0 1 1 -245,99.147896 z"
       transform="matrix(0.75736548,0,0,0.80212121,388.61107,266.05204)"
       id="path2993-7-5"
       style="fill:#ff0000;stroke:#000000;stroke-width:2.10656571;stroke-miterlimit:4;stroke-opacity:1;stroke-dasharray:none;stroke-dashoffset:0" />
    <path
       d="M -245,99.147896 A 5.3571429,5.3571429 0 1 1 -255.71429,99.147896 5.3571429,5.3571429 0 1 1 -245,99.147896 z"
       transform="matrix(0.75736548,0,0,0.80212121,408.95561,352.17733)"
       id="path2993-7-8"
       style="fill:#ff0000;stroke:#000000;stroke-width:2.10656571;stroke-miterlimit:4;stroke-opacity:1;stroke-dasharray:none;stroke-dashoffset:0" />
    <path
       d="M -245,99.147896 A 5.3571429,5.3571429 0 1 1 -255.71429,99.147896 5.3571429,5.3571429 0 1 1 -245,99.147896 z"
       transform="matrix(0.75736548,0,0,0.80212121,387.25477,227.39738)"
       id="path2993-7-2"
       style="fill:#ff0000;stroke:#000000;stroke-width:2.10656571;stroke-miterlimit:4;stroke-opacity:1;stroke-dasharray:none;stroke-dashoffset:0" />
    <path
       d="M -245,99.147896 A 5.3571429,5.3571429 0 1 1 -255.71429,99.147896 5.3571429,5.3571429 0 1 1 -245,99.147896 z"
       transform="matrix(0.75736548,0,0,0.80212121,264.50927,208.40913)"
       id="path2993-7-89"
       style="fill:#ff0000;stroke:#000000;stroke-width:2.10656571;stroke-miterlimit:4;stroke-opacity:1;stroke-dasharray:none;stroke-dashoffset:0" />
    <path
       d="M -245,99.147896 A 5.3571429,5.3571429 0 1 1 -255.71429,99.147896 5.3571429,5.3571429 0 1 1 -245,99.147896 z"
       transform="matrix(0.75736548,0,0,0.80212121,255.01515,240.96042)"
       id="path2993-7-4"
       style="fill:#ff0000;stroke:#000000;stroke-width:2.10656571;stroke-miterlimit:4;stroke-opacity:1;stroke-dasharray:none;stroke-dashoffset:0" />
    <path
       d="M -245,99.147896 A 5.3571429,5.3571429 0 1 1 -255.71429,99.147896 5.3571429,5.3571429 0 1 1 -245,99.147896 z"
       transform="matrix(0.75736548,0,0,0.80212121,314.69251,354.88993)"
       id="path2993-7-82"
       style="fill:#ff0000;stroke:#000000;stroke-width:2.10656571;stroke-miterlimit:4;stroke-opacity:1;stroke-dasharray:none;stroke-dashoffset:0" />
    <path
       d="M -245,99.147896 A 5.3571429,5.3571429 0 1 1 -255.71429,99.147896 5.3571429,5.3571429 0 1 1 -245,99.147896 z"
       transform="matrix(0.75736548,0,0,0.80212121,355.38163,354.88993)"
       id="path2993-7-6"
       style="fill:#ff0000;stroke:#000000;stroke-width:2.10656571;stroke-miterlimit:4;stroke-opacity:1;stroke-dasharray:none;stroke-dashoffset:0" />
    <path
       d="M -245,99.147896 A 5.3571429,5.3571429 0 1 1 -255.71429,99.147896 5.3571429,5.3571429 0 1 1 -245,99.147896 z"
       transform="matrix(0.75736548,0,0,0.80212121,320.79587,280.29323)"
       id="path2993-7-0"
       style="fill:#ff0000;stroke:#000000;stroke-width:2.10656571;stroke-miterlimit:4;stroke-opacity:1;stroke-dasharray:none;stroke-dashoffset:0" />
    <path
       d="M -245,99.147896 A 5.3571429,5.3571429 0 1 1 -255.71429,99.147896 5.3571429,5.3571429 0 1 1 -245,99.147896 z"
       transform="matrix(0.75736548,0,0,0.80212121,379.11694,188.74272)"
       id="path2993-7-7"
       style="fill:#ff0000;stroke:#000000;stroke-width:2.10656571;stroke-miterlimit:4;stroke-opacity:1;stroke-dasharray:none;stroke-dashoffset:0" />
    <path
       d="M -245,99.147896 A 5.3571429,5.3571429 0 1 1 -255.71429,99.147896 5.3571429,5.3571429 0 1 1 -245,99.147896 z"
       transform="matrix(0.75736548,0,0,0.80212121,292.3135,221.29401)"
       id="path2993-7-4-6-6"
       style="fill:#008000;stroke:#000000;stroke-width:2.10656571;stroke-miterlimit:4;stroke-opacity:1;stroke-dasharray:none;stroke-dashoffset:0" />
    <path
       d="M -245,99.147896 A 5.3571429,5.3571429 0 1 1 -255.71429,99.147896 5.3571429,5.3571429 0 1 1 -245,99.147896 z"
       transform="matrix(0.75736548,0,0,0.80212121,313.33621,232.8226)"
       id="path2993-7-4-6-64"
       style="fill:#008000;stroke:#000000;stroke-width:2.10656571;stroke-miterlimit:4;stroke-opacity:1;stroke-dasharray:none;stroke-dashoffset:0" />
    <path
       d="M -245,99.147896 A 5.3571429,5.3571429 0 1 1 -255.71429,99.147896 5.3571429,5.3571429 0 1 1 -245,99.147896 z"
       transform="matrix(0.75736548,0,0,0.80212121,284.85383,251.81085)"
       id="path2993-7-4-6-4"
       style="fill:#008000;stroke:#000000;stroke-width:2.10656571;stroke-miterlimit:4;stroke-opacity:1;stroke-dasharray:none;stroke-dashoffset:0" />
    <path
       d="M -245,99.147896 A 5.3571429,5.3571429 0 1 1 -255.71429,99.147896 5.3571429,5.3571429 0 1 1 -245,99.147896 z"
       transform="matrix(0.75736548,0,0,0.80212121,263.15297,289.10921)"
       id="path2993-7-4-6-2"
       style="fill:#008000;stroke:#000000;stroke-width:2.10656571;stroke-miterlimit:4;stroke-opacity:1;stroke-dasharray:none;stroke-dashoffset:0" />
    <path
       d="M -245,99.147896 A 5.3571429,5.3571429 0 1 1 -255.71429,99.147896 5.3571429,5.3571429 0 1 1 -245,99.147896 z"
       transform="matrix(0.75736548,0,0,0.80212121,268.57818,314.87897)"
       id="path2993-7-4-6-0"
       style="fill:#008000;stroke:#000000;stroke-width:2.10656571;stroke-miterlimit:4;stroke-opacity:1;stroke-dasharray:none;stroke-dashoffset:0" />
    <path
       d="M -245,99.147896 A 5.3571429,5.3571429 0 1 1 -255.71429,99.147896 5.3571429,5.3571429 0 1 1 -245,99.147896 z"
       transform="matrix(0.75736548,0,0,0.80212121,297.73871,321.6605)"
       id="path2993-7-4-6-3"
       style="fill:#008000;stroke:#000000;stroke-width:2.10656571;stroke-miterlimit:4;stroke-opacity:1;stroke-dasharray:none;stroke-dashoffset:0" />
    <path
       d="M 207.13703,393.72945 C 207.13703,393.72945 217.30931,400.51097 210.52779,415.4303 203.74627,430.34965 194.25214,424.92443 192.21768,418.14291 190.18323,411.3614 190.86138,386.26978 190.86138,386.26978 190.86138,386.26978 203.06812,367.28153 205.10257,379.48826 207.13703,391.69499 207.13703,393.72945 207.13703,393.72945 z"
       id="path3203"
       style="fill:#ececec;stroke:#000000;stroke-width:1px;stroke-linecap:butt;stroke-linejoin:miter;stroke-opacity:1" />
    <path
       d="M -245,99.147896 A 5.3571429,5.3571429 0 1 1 -255.71429,99.147896 5.3571429,5.3571429 0 1 1 -245,99.147896 z"
       transform="matrix(0.75736548,0,0,0.80212121,391.32367,322.33865)"
       id="path2993-7-4-6-4-8"
       style="fill:#008000;stroke:#000000;stroke-width:2.10656571;stroke-miterlimit:4;stroke-opacity:1;stroke-dasharray:none;stroke-dashoffset:0" />
  </g>
</svg>
