<?xml version="1.0" encoding="UTF-8"?>
<svg xmlns="http://www.w3.org/2000/svg"
     xmlns:xlink="http://www.w3.org/1999/xlink"
     xmlns:gadfly="http://www.gadflyjl.org/ns"
     version="1.2"
     width="101.6mm" height="76.2mm" viewBox="0 0 101.6 76.2"
     stroke="none"
     fill="#000000"
     stroke-width="0.3"
     font-size="3.88"
>
<g class="plotroot xscalable yscalable" id="fig-bce7ee9c1b2d4178a035cfdaeed2d638-element-1">
  <g font-size="3.88" font-family="'PT Sans','Helvetica Neue','Helvetica',sans-serif" fill="#564A55" stroke="#000000" stroke-opacity="0.000" id="fig-bce7ee9c1b2d4178a035cfdaeed2d638-element-2">
    <text x="57.62" y="68.2" text-anchor="middle">x</text>
  </g>
  <g class="guide xlabels" font-size="2.82" font-family="'PT Sans Caption','Helvetica Neue','Helvetica',sans-serif" fill="#6C606B" id="fig-bce7ee9c1b2d4178a035cfdaeed2d638-element-3">
    <text x="20.63" y="60.59" text-anchor="middle">0</text>
    <text x="35.43" y="60.59" text-anchor="middle">1</text>
    <text x="50.22" y="60.59" text-anchor="middle">2</text>
    <text x="65.01" y="60.59" text-anchor="middle">3</text>
    <text x="79.81" y="60.59" text-anchor="middle">4</text>
    <text x="94.6" y="60.59" text-anchor="middle">5</text>
  </g>
  <g clip-path="url(#fig-bce7ee9c1b2d4178a035cfdaeed2d638-element-5)" id="fig-bce7ee9c1b2d4178a035cfdaeed2d638-element-4">
    <g pointer-events="visible" opacity="1" fill="#000000" fill-opacity="0.000" stroke="#000000" stroke-opacity="0.000" class="guide background" id="fig-bce7ee9c1b2d4178a035cfdaeed2d638-element-6">
      <rect x="18.63" y="5" width="77.97" height="51.91"/>
    </g>
    <g class="guide ygridlines xfixed" stroke-dasharray="0.5,0.5" stroke-width="0.2" stroke="#D0D0E0" id="fig-bce7ee9c1b2d4178a035cfdaeed2d638-element-7">
      <path fill="none" d="M18.63,54.91 L 96.6 54.91"/>
      <path fill="none" d="M18.63,42.94 L 96.6 42.94"/>
      <path fill="none" d="M18.63,30.96 L 96.6 30.96"/>
      <path fill="none" d="M18.63,18.98 L 96.6 18.98"/>
      <path fill="none" d="M18.63,7 L 96.6 7"/>
    </g>
    <g class="guide xgridlines yfixed" stroke-dasharray="0.5,0.5" stroke-width="0.2" stroke="#D0D0E0" id="fig-bce7ee9c1b2d4178a035cfdaeed2d638-element-8">
      <path fill="none" d="M20.63,5 L 20.63 56.91"/>
      <path fill="none" d="M35.43,5 L 35.43 56.91"/>
      <path fill="none" d="M50.22,5 L 50.22 56.91"/>
      <path fill="none" d="M65.01,5 L 65.01 56.91"/>
      <path fill="none" d="M79.81,5 L 79.81 56.91"/>
      <path fill="none" d="M94.6,5 L 94.6 56.91"/>
    </g>
    <g class="plotpanel" id="fig-bce7ee9c1b2d4178a035cfdaeed2d638-element-9">
      <g stroke-width="0.3" fill="#000000" fill-opacity="0.000" class="geometry" stroke="#4571C1" id="fig-bce7ee9c1b2d4178a035cfdaeed2d638-element-10">
        <path fill="none" d="M20.63,44.81 L 20.93 44.89 21.23 44.98 21.52 45.06 21.82 45.15 22.12 45.23 22.41 45.31 22.71 45.39 23.01 45.47 23.31 45.55 23.6 45.63 23.9 45.71 24.2 45.79 24.49 45.86 24.79 45.94 25.09 46.02 25.38 46.09 25.68 46.16 25.98 46.24 26.28 46.31 26.57 46.38 26.87 46.46 27.17 46.53 27.46 46.6 27.76 46.67 28.06 46.74 28.36 46.81 28.65 46.88 28.95 46.94 29.25 47.01 29.54 47.08 29.84 47.14 30.14 47.21 30.43 47.27 30.73 47.34 31.03 47.4 31.33 47.47 31.62 47.53 31.92 47.59 32.22 47.65 32.51 47.71 32.81 47.77 33.11 47.83 33.41 47.89 33.7 47.95 34 48.01 34.3 48.07 34.59 48.13 34.89 48.19 35.19 48.24 35.48 48.3 35.78 48.35 36.08 48.41 36.38 48.46 36.67 48.52 36.97 48.57 37.27 48.63 37.56 48.68 37.86 48.73 38.16 48.78 38.46 48.84 38.75 48.89 39.05 48.94 39.35 48.99 39.64 49.04 39.94 49.09 40.24 49.14 40.53 49.19 40.83 49.23 41.13 49.28 41.43 49.33 41.72 49.38 42.02 49.42 42.32 49.47 42.61 49.52 42.91 49.56 43.21 49.61 43.51 49.65 43.8 49.7 44.1 49.74 44.4 49.78 44.69 49.83 44.99 49.87 45.29 49.91 45.58 49.95 45.88 50 46.18 50.04 46.48 50.08 46.77 50.12 47.07 50.16 47.37 50.2 47.66 50.24 47.96 50.28 48.26 50.32 48.56 50.36 48.85 50.4 49.15 50.43 49.45 50.47 49.74 50.51 50.04 50.55 50.34 50.58 50.63 50.62 50.93 50.66 51.23 50.69 51.53 50.73 51.82 50.76 52.12 50.8 52.42 50.83 52.71 50.87 53.01 50.9 53.31 50.93 53.61 50.97 53.9 51 54.2 51.03 54.5 51.07 54.79 51.1 55.09 51.13 55.39 51.16 55.68 51.2 55.98 51.23 56.28 51.26 56.58 51.29 56.87 51.32 57.17 51.35 57.47 51.38 57.76 51.41 58.06 51.44 58.36 51.47 58.66 51.5 58.95 51.53 59.25 51.55 59.55 51.58 59.84 51.61 60.14 51.64 60.44 51.67 60.73 51.69 61.03 51.72 61.33 51.75 61.63 51.78 61.92 51.8 62.22 51.83 62.52 51.85 62.81 51.88 63.11 51.91 63.41 51.93 63.71 51.96 64 51.98 64.3 52.01 64.6 52.03 64.89 52.05 65.19 52.08 65.49 52.1 65.79 52.13 66.08 52.15 66.38 52.17 66.68 52.2 66.97 52.22 67.27 52.24 67.57 52.26 67.86 52.29 68.16 52.31 68.46 52.33 68.76 52.35 69.05 52.37 69.35 52.4 69.65 52.42 69.94 52.44 70.24 52.46 70.54 52.48 70.84 52.5 71.13 52.52 71.43 52.54 71.73 52.56 72.02 52.58 72.32 52.6 72.62 52.62 72.91 52.64 73.21 52.66 73.51 52.68 73.81 52.7 74.1 52.71 74.4 52.73 74.7 52.75 74.99 52.77 75.29 52.79 75.59 52.81 75.89 52.82 76.18 52.84 76.48 52.86 76.78 52.88 77.07 52.89 77.37 52.91 77.67 52.93 77.96 52.94 78.26 52.96 78.56 52.98 78.86 52.99 79.15 53.01 79.45 53.03 79.75 53.04 80.04 53.06 80.34 53.07 80.64 53.09 80.94 53.1 81.23 53.12 81.53 53.13 81.83 53.15 82.12 53.16 82.42 53.18 82.72 53.19 83.01 53.21 83.31 53.22 83.61 53.24 83.91 53.25 84.2 53.27 84.5 53.28 84.8 53.29 85.09 53.31 85.39 53.32 85.69 53.33 85.99 53.35 86.28 53.36 86.58 53.37 86.88 53.39 87.17 53.4 87.47 53.41 87.77 53.42 88.06 53.44 88.36 53.45 88.66 53.46 88.96 53.47 89.25 53.49 89.55 53.5 89.85 53.51 90.14 53.52 90.44 53.53 90.74 53.55 91.04 53.56 91.33 53.57 91.63 53.58 91.93 53.59 92.22 53.6 92.52 53.61 92.82 53.62 93.11 53.64 93.41 53.65 93.71 53.66 94.01 53.67 94.3 53.68 94.6 53.69"/>
      </g>
      <g stroke-width="0.3" fill="#000000" fill-opacity="0.000" class="geometry" stroke="#789DE8" id="fig-bce7ee9c1b2d4178a035cfdaeed2d638-element-11">
        <path fill="none" d="M20.63,44.81 L 20.93 44.89 21.23 44.98 21.52 45.06 21.82 45.15 22.12 45.23 22.41 45.31 22.71 45.39 23.01 45.47 23.31 45.55 23.6 45.63 23.9 45.71 24.2 45.79 24.49 45.86 24.79 45.94 25.09 46.01 25.38 46.09 25.68 46.16 25.98 46.24 26.28 46.31 26.57 46.38 26.87 46.46 27.17 46.53 27.46 46.6 27.76 46.67 28.06 46.74 28.36 46.81 28.65 46.87 28.95 46.94 29.25 47.01 29.54 47.08 29.84 47.14 30.14 47.21 30.43 47.27 30.73 47.34 31.03 47.4 31.33 47.46 31.62 47.53 31.92 47.59 32.22 47.65 32.51 47.71 32.81 47.77 33.11 47.83 33.41 47.89 33.7 47.95 34 48.01 34.3 48.07 34.59 48.13 34.89 48.19 35.19 48.24 35.48 48.3 35.78 48.35 36.08 48.41 36.38 48.46 36.67 48.52 36.97 48.57 37.27 48.63 37.56 48.68 37.86 48.73 38.16 48.78 38.46 48.84 38.75 48.89 39.05 48.94 39.35 48.99 39.64 49.04 39.94 49.09 40.24 49.14 40.53 49.19 40.83 49.23 41.13 49.28 41.43 49.33 41.72 49.38 42.02 49.42 42.32 49.47 42.61 49.52 42.91 49.56 43.21 49.61 43.51 49.65 43.8 49.7 44.1 49.74 44.4 49.78 44.69 49.83 44.99 49.87 45.29 49.91 45.58 49.95 45.88 50 46.18 50.04 46.48 50.08 46.77 50.12 47.07 50.16 47.37 50.2 47.66 50.24 47.96 50.28 48.26 50.32 48.56 50.36 48.85 50.4 49.15 50.43 49.45 50.47 49.74 50.51 50.04 50.55 50.34 50.58 50.63 50.62 50.93 50.66 51.23 50.69 51.53 50.73 51.82 50.76 52.12 50.8 52.42 50.83 52.71 50.87 53.01 50.9 53.31 50.93 53.61 50.97 53.9 51 54.2 51.03 54.5 51.07 54.79 51.1 55.09 51.13 55.39 51.16 55.68 51.2 55.98 51.23 56.28 51.26 56.58 51.29 56.87 51.32 57.17 51.35 57.47 51.38 57.76 51.41 58.06 51.44 58.36 51.47 58.66 51.5 58.95 51.53 59.25 51.55 59.55 51.58 59.84 51.61 60.14 51.64 60.44 51.67 60.73 51.69 61.03 51.72 61.33 51.75 61.63 51.78 61.92 51.8 62.22 51.83 62.52 51.85 62.81 51.88 63.11 51.91 63.41 51.93 63.71 51.96 64 51.98 64.3 52.01 64.6 52.03 64.89 52.05 65.19 52.08 65.49 52.1 65.79 52.13 66.08 52.15 66.38 52.17 66.68 52.2 66.97 52.22 67.27 52.24 67.57 52.26 67.86 52.29 68.16 52.31 68.46 52.33 68.76 52.35 69.05 52.37 69.35 52.4 69.65 52.42 69.94 52.44 70.24 52.46 70.54 52.48 70.84 52.5 71.13 52.52 71.43 52.54 71.73 52.56 72.02 52.58 72.32 52.6 72.62 52.62 72.91 52.64 73.21 52.66 73.51 52.68 73.81 52.7 74.1 52.72 74.4 52.73 74.7 52.75 74.99 52.77 75.29 52.79 75.59 52.81 75.89 52.82 76.18 52.84 76.48 52.86 76.78 52.88 77.07 52.89 77.37 52.91 77.67 52.93 77.96 52.94 78.26 52.96 78.56 52.98 78.86 52.99 79.15 53.01 79.45 53.03 79.75 53.04 80.04 53.06 80.34 53.07 80.64 53.09 80.94 53.1 81.23 53.12 81.53 53.13 81.83 53.15 82.12 53.16 82.42 53.18 82.72 53.19 83.01 53.21 83.31 53.22 83.61 53.24 83.91 53.25 84.2 53.27 84.5 53.28 84.8 53.29 85.09 53.31 85.39 53.32 85.69 53.33 85.99 53.35 86.28 53.36 86.58 53.37 86.88 53.39 87.17 53.4 87.47 53.41 87.77 53.43 88.06 53.44 88.36 53.45 88.66 53.46 88.96 53.47 89.25 53.49 89.55 53.5 89.85 53.51 90.14 53.52 90.44 53.53 90.74 53.55 91.04 53.56 91.33 53.57 91.63 53.58 91.93 53.59 92.22 53.6 92.52 53.61 92.82 53.62 93.11 53.64 93.41 53.65 93.71 53.66 94.01 53.67 94.3 53.68 94.6 53.69"/>
      </g>
      <g stroke-width="0.3" fill="#000000" fill-opacity="0.000" class="geometry" stroke="#264E92" id="fig-bce7ee9c1b2d4178a035cfdaeed2d638-element-12">
        <path fill="none" d="M20.63,44.81 L 20.93 44.9 21.23 44.98 21.52 45.06 21.82 45.15 22.12 45.23 22.41 45.31 22.71 45.39 23.01 45.47 23.31 45.55 23.6 45.63 23.9 45.71 24.2 45.79 24.49 45.86 24.79 45.94 25.09 46.02 25.38 46.09 25.68 46.17 25.98 46.24 26.28 46.31 26.57 46.38 26.87 46.46 27.17 46.53 27.46 46.6 27.76 46.67 28.06 46.74 28.36 46.81 28.65 46.88 28.95 46.94 29.25 47.01 29.54 47.08 29.84 47.14 30.14 47.21 30.43 47.27 30.73 47.34 31.03 47.4 31.33 47.47 31.62 47.53 31.92 47.59 32.22 47.65 32.51 47.71 32.81 47.77 33.11 47.83 33.41 47.89 33.7 47.95 34 48.01 34.3 48.07 34.59 48.13 34.89 48.19 35.19 48.24 35.48 48.3 35.78 48.35 36.08 48.41 36.38 48.46 36.67 48.52 36.97 48.57 37.27 48.63 37.56 48.68 37.86 48.73 38.16 48.78 38.46 48.84 38.75 48.89 39.05 48.94 39.35 48.99 39.64 49.04 39.94 49.09 40.24 49.14 40.53 49.19 40.83 49.23 41.13 49.28 41.43 49.33 41.72 49.38 42.02 49.42 42.32 49.47 42.61 49.52 42.91 49.56 43.21 49.61 43.51 49.65 43.8 49.7 44.1 49.74 44.4 49.78 44.69 49.83 44.99 49.87 45.29 49.91 45.58 49.95 45.88 50 46.18 50.04 46.48 50.08 46.77 50.12 47.07 50.16 47.37 50.2 47.66 50.24 47.96 50.28 48.26 50.32 48.56 50.36 48.85 50.4 49.15 50.43 49.45 50.47 49.74 50.51 50.04 50.55 50.34 50.58 50.63 50.62 50.93 50.66 51.23 50.69 51.53 50.73 51.82 50.76 52.12 50.8 52.42 50.83 52.71 50.87 53.01 50.9 53.31 50.93 53.61 50.97 53.9 51 54.2 51.03 54.5 51.07 54.79 51.1 55.09 51.13 55.39 51.16 55.68 51.2 55.98 51.23 56.28 51.26 56.58 51.29 56.87 51.32 57.17 51.35 57.47 51.38 57.76 51.41 58.06 51.44 58.36 51.47 58.66 51.5 58.95 51.53 59.25 51.55 59.55 51.58 59.84 51.61 60.14 51.64 60.44 51.67 60.73 51.69 61.03 51.72 61.33 51.75 61.63 51.78 61.92 51.8 62.22 51.83 62.52 51.85 62.81 51.88 63.11 51.91 63.41 51.93 63.71 51.96 64 51.98 64.3 52.01 64.6 52.03 64.89 52.05 65.19 52.08 65.49 52.1 65.79 52.13 66.08 52.15 66.38 52.17 66.68 52.2 66.97 52.22 67.27 52.24 67.57 52.26 67.86 52.29 68.16 52.31 68.46 52.33 68.76 52.35 69.05 52.37 69.35 52.4 69.65 52.42 69.94 52.44 70.24 52.46 70.54 52.48 70.84 52.5 71.13 52.52 71.43 52.54 71.73 52.56 72.02 52.58 72.32 52.6 72.62 52.62 72.91 52.64 73.21 52.66 73.51 52.68 73.81 52.7 74.1 52.71 74.4 52.73 74.7 52.75 74.99 52.77 75.29 52.79 75.59 52.81 75.89 52.82 76.18 52.84 76.48 52.86 76.78 52.88 77.07 52.89 77.37 52.91 77.67 52.93 77.96 52.94 78.26 52.96 78.56 52.98 78.86 52.99 79.15 53.01 79.45 53.03 79.75 53.04 80.04 53.06 80.34 53.07 80.64 53.09 80.94 53.1 81.23 53.12 81.53 53.13 81.83 53.15 82.12 53.16 82.42 53.18 82.72 53.19 83.01 53.21 83.31 53.22 83.61 53.24 83.91 53.25 84.2 53.27 84.5 53.28 84.8 53.29 85.09 53.31 85.39 53.32 85.69 53.33 85.99 53.35 86.28 53.36 86.58 53.37 86.88 53.39 87.17 53.4 87.47 53.41 87.77 53.42 88.06 53.44 88.36 53.45 88.66 53.46 88.96 53.47 89.25 53.49 89.55 53.5 89.85 53.51 90.14 53.52 90.44 53.53 90.74 53.55 91.04 53.56 91.33 53.57 91.63 53.58 91.93 53.59 92.22 53.6 92.52 53.61 92.82 53.62 93.11 53.64 93.41 53.65 93.71 53.66 94.01 53.67 94.3 53.68 94.6 53.69"/>
      </g>
      <g stroke-width="0.3" fill="#000000" fill-opacity="0.000" class="geometry" stroke="#4E7ACA" id="fig-bce7ee9c1b2d4178a035cfdaeed2d638-element-13">
        <path fill="none" d="M20.63,53.54 L 20.93 53.55 21.23 53.55 21.52 53.55 21.82 53.55 22.12 53.55 22.41 53.55 22.71 53.56 23.01 53.56 23.31 53.56 23.6 53.56 23.9 53.56 24.2 53.56 24.49 53.56 24.79 53.57 25.09 53.57 25.38 53.57 25.68 53.57 25.98 53.57 26.28 53.57 26.57 53.58 26.87 53.58 27.17 53.58 27.46 53.58 27.76 53.58 28.06 53.58 28.36 53.58 28.65 53.59 28.95 53.59 29.25 53.59 29.54 53.59 29.84 53.59 30.14 53.59 30.43 53.6 30.73 53.6 31.03 53.6 31.33 53.6 31.62 53.6 31.92 53.6 32.22 53.6 32.51 53.61 32.81 53.61 33.11 53.61 33.41 53.61 33.7 53.61 34 53.61 34.3 53.62 34.59 53.62 34.89 53.62 35.19 53.62 35.48 53.62 35.78 53.62 36.08 53.62 36.38 53.63 36.67 53.63 36.97 53.63 37.27 53.63 37.56 53.63 37.86 53.63 38.16 53.63 38.46 53.64 38.75 53.64 39.05 53.64 39.35 53.64 39.64 53.64 39.94 53.64 40.24 53.64 40.53 53.65 40.83 53.65 41.13 53.65 41.43 53.65 41.72 53.65 42.02 53.65 42.32 53.65 42.61 53.66 42.91 53.66 43.21 53.66 43.51 53.66 43.8 53.66 44.1 53.66 44.4 53.66 44.69 53.67 44.99 53.67 45.29 53.67 45.58 53.67 45.88 53.67 46.18 53.67 46.48 53.67 46.77 53.68 47.07 53.68 47.37 53.68 47.66 53.68 47.96 53.68 48.26 53.68 48.56 53.68 48.85 53.69 49.15 53.69 49.45 53.69 49.74 53.69 50.04 53.69 50.34 53.69 50.63 53.69 50.93 53.7 51.23 53.7 51.53 53.7 51.82 53.7 52.12 53.7 52.42 53.7 52.71 53.7 53.01 53.71 53.31 53.71 53.61 53.71 53.9 53.71 54.2 53.71 54.5 53.71 54.79 53.71 55.09 53.72 55.39 53.72 55.68 53.72 55.98 53.72 56.28 53.72 56.58 53.72 56.87 53.72 57.17 53.73 57.47 53.73 57.76 53.73 58.06 53.73 58.36 53.73 58.66 53.73 58.95 53.73 59.25 53.73 59.55 53.74 59.84 53.74 60.14 53.74 60.44 53.74 60.73 53.74 61.03 53.74 61.33 53.74 61.63 53.75 61.92 53.75 62.22 53.75 62.52 53.75 62.81 53.75 63.11 53.75 63.41 53.75 63.71 53.75 64 53.76 64.3 53.76 64.6 53.76 64.89 53.76 65.19 53.76 65.49 53.76 65.79 53.76 66.08 53.77 66.38 53.77 66.68 53.77 66.97 53.77 67.27 53.77 67.57 53.77 67.86 53.77 68.16 53.77 68.46 53.78 68.76 53.78 69.05 53.78 69.35 53.78 69.65 53.78 69.94 53.78 70.24 53.78 70.54 53.79 70.84 53.79 71.13 53.79 71.43 53.79 71.73 53.79 72.02 53.79 72.32 53.79 72.62 53.79 72.91 53.8 73.21 53.8 73.51 53.8 73.81 53.8 74.1 53.8 74.4 53.8 74.7 53.8 74.99 53.8 75.29 53.81 75.59 53.81 75.89 53.81 76.18 53.81 76.48 53.81 76.78 53.81 77.07 53.81 77.37 53.81 77.67 53.82 77.96 53.82 78.26 53.82 78.56 53.82 78.86 53.82 79.15 53.82 79.45 53.82 79.75 53.82 80.04 53.83 80.34 53.83 80.64 53.83 80.94 53.83 81.23 53.83 81.53 53.83 81.83 53.83 82.12 53.83 82.42 53.84 82.72 53.84 83.01 53.84 83.31 53.84 83.61 53.84 83.91 53.84 84.2 53.84 84.5 53.84 84.8 53.85 85.09 53.85 85.39 53.85 85.69 53.85 85.99 53.85 86.28 53.85 86.58 53.85 86.88 53.85 87.17 53.86 87.47 53.86 87.77 53.86 88.06 53.86 88.36 53.86 88.66 53.86 88.96 53.86 89.25 53.86 89.55 53.87 89.85 53.87 90.14 53.87 90.44 53.87 90.74 53.87 91.04 53.87 91.33 53.87 91.63 53.87 91.93 53.87 92.22 53.88 92.52 53.88 92.82 53.88 93.11 53.88 93.41 53.88 93.71 53.88 94.01 53.88 94.3 53.88 94.6 53.89"/>
      </g>
      <g stroke-width="0.3" fill="#000000" fill-opacity="0.000" class="geometry" stroke="#5F89D9" id="fig-bce7ee9c1b2d4178a035cfdaeed2d638-element-14">
        <path fill="none" d="M20.63,16.65 L 20.93 17.86 21.23 19.03 21.52 20.16 21.82 21.26 22.12 22.32 22.41 23.35 22.71 24.35 23.01 25.31 23.31 26.25 23.6 27.15 23.9 28.03 24.2 28.88 24.49 29.7 24.79 30.49 25.09 31.26 25.38 32.01 25.68 32.73 25.98 33.43 26.28 34.11 26.57 34.77 26.87 35.4 27.17 36.02 27.46 36.62 27.76 37.19 28.06 37.75 28.36 38.29 28.65 38.82 28.95 39.33 29.25 39.82 29.54 40.3 29.84 40.76 30.14 41.2 30.43 41.64 30.73 42.06 31.03 42.46 31.33 42.85 31.62 43.23 31.92 43.6 32.22 43.96 32.51 44.31 32.81 44.64 33.11 44.97 33.41 45.28 33.7 45.58 34 45.88 34.3 46.16 34.59 46.44 34.89 46.71 35.19 46.97 35.48 47.22 35.78 47.46 36.08 47.69 36.38 47.92 36.67 48.14 36.97 48.36 37.27 48.56 37.56 48.76 37.86 48.96 38.16 49.15 38.46 49.33 38.75 49.51 39.05 49.68 39.35 49.84 39.64 50 39.94 50.16 40.24 50.31 40.53 50.45 40.83 50.59 41.13 50.73 41.43 50.86 41.72 50.99 42.02 51.11 42.32 51.23 42.61 51.35 42.91 51.46 43.21 51.57 43.51 51.68 43.8 51.78 44.1 51.88 44.4 51.97 44.69 52.07 44.99 52.16 45.29 52.24 45.58 52.33 45.88 52.41 46.18 52.49 46.48 52.56 46.77 52.64 47.07 52.71 47.37 52.78 47.66 52.85 47.96 52.91 48.26 52.98 48.56 53.04 48.85 53.1 49.15 53.15 49.45 53.21 49.74 53.26 50.04 53.32 50.34 53.37 50.63 53.41 50.93 53.46 51.23 53.51 51.53 53.55 51.82 53.6 52.12 53.64 52.42 53.68 52.71 53.72 53.01 53.75 53.31 53.79 53.61 53.83 53.9 53.86 54.2 53.89 54.5 53.93 54.79 53.96 55.09 53.99 55.39 54.02 55.68 54.05 55.98 54.07 56.28 54.1 56.58 54.13 56.87 54.15 57.17 54.17 57.47 54.2 57.76 54.22 58.06 54.24 58.36 54.26 58.66 54.28 58.95 54.3 59.25 54.32 59.55 54.34 59.84 54.36 60.14 54.38 60.44 54.39 60.73 54.41 61.03 54.43 61.33 54.44 61.63 54.46 61.92 54.47 62.22 54.49 62.52 54.5 62.81 54.51 63.11 54.52 63.41 54.54 63.71 54.55 64 54.56 64.3 54.57 64.6 54.58 64.89 54.59 65.19 54.6 65.49 54.61 65.79 54.62 66.08 54.63 66.38 54.64 66.68 54.65 66.97 54.66 67.27 54.67 67.57 54.67 67.86 54.68 68.16 54.69 68.46 54.7 68.76 54.7 69.05 54.71 69.35 54.72 69.65 54.72 69.94 54.73 70.24 54.73 70.54 54.74 70.84 54.75 71.13 54.75 71.43 54.76 71.73 54.76 72.02 54.77 72.32 54.77 72.62 54.78 72.91 54.78 73.21 54.78 73.51 54.79 73.81 54.79 74.1 54.8 74.4 54.8 74.7 54.8 74.99 54.81 75.29 54.81 75.59 54.81 75.89 54.82 76.18 54.82 76.48 54.82 76.78 54.83 77.07 54.83 77.37 54.83 77.67 54.83 77.96 54.84 78.26 54.84 78.56 54.84 78.86 54.84 79.15 54.85 79.45 54.85 79.75 54.85 80.04 54.85 80.34 54.85 80.64 54.86 80.94 54.86 81.23 54.86 81.53 54.86 81.83 54.86 82.12 54.86 82.42 54.87 82.72 54.87 83.01 54.87 83.31 54.87 83.61 54.87 83.91 54.87 84.2 54.87 84.5 54.88 84.8 54.88 85.09 54.88 85.39 54.88 85.69 54.88 85.99 54.88 86.28 54.88 86.58 54.88 86.88 54.89 87.17 54.89 87.47 54.89 87.77 54.89 88.06 54.89 88.36 54.89 88.66 54.89 88.96 54.89 89.25 54.89 89.55 54.89 89.85 54.89 90.14 54.89 90.44 54.89 90.74 54.9 91.04 54.9 91.33 54.9 91.63 54.9 91.93 54.9 92.22 54.9 92.52 54.9 92.82 54.9 93.11 54.9 93.41 54.9 93.71 54.9 94.01 54.9 94.3 54.9 94.6 54.9"/>
      </g>
      <g stroke-width="0.3" fill="#000000" fill-opacity="0.000" class="geometry" stroke="#C0E5F9" id="fig-bce7ee9c1b2d4178a035cfdaeed2d638-element-15">
        <path fill="none" d="M20.63,44.17 L 20.93 44.27 21.23 44.36 21.52 44.46 21.82 44.55 22.12 44.64 22.41 44.74 22.71 44.83 23.01 44.92 23.31 45.01 23.6 45.1 23.9 45.18 24.2 45.27 24.49 45.36 24.79 45.44 25.09 45.53 25.38 45.61 25.68 45.7 25.98 45.78 26.28 45.86 26.57 45.94 26.87 46.02 27.17 46.1 27.46 46.18 27.76 46.26 28.06 46.34 28.36 46.41 28.65 46.49 28.95 46.56 29.25 46.64 29.54 46.71 29.84 46.79 30.14 46.86 30.43 46.93 30.73 47 31.03 47.08 31.33 47.15 31.62 47.22 31.92 47.28 32.22 47.35 32.51 47.42 32.81 47.49 33.11 47.55 33.41 47.62 33.7 47.69 34 47.75 34.3 47.81 34.59 47.88 34.89 47.94 35.19 48 35.48 48.07 35.78 48.13 36.08 48.19 36.38 48.25 36.67 48.31 36.97 48.37 37.27 48.43 37.56 48.48 37.86 48.54 38.16 48.6 38.46 48.66 38.75 48.71 39.05 48.77 39.35 48.82 39.64 48.88 39.94 48.93 40.24 48.98 40.53 49.04 40.83 49.09 41.13 49.14 41.43 49.19 41.72 49.25 42.02 49.3 42.32 49.35 42.61 49.4 42.91 49.45 43.21 49.5 43.51 49.54 43.8 49.59 44.1 49.64 44.4 49.69 44.69 49.73 44.99 49.78 45.29 49.83 45.58 49.87 45.88 49.92 46.18 49.96 46.48 50.01 46.77 50.05 47.07 50.09 47.37 50.14 47.66 50.18 47.96 50.22 48.26 50.26 48.56 50.31 48.85 50.35 49.15 50.39 49.45 50.43 49.74 50.47 50.04 50.51 50.34 50.55 50.63 50.59 50.93 50.63 51.23 50.67 51.53 50.7 51.82 50.74 52.12 50.78 52.42 50.82 52.71 50.85 53.01 50.89 53.31 50.93 53.61 50.96 53.9 51 54.2 51.03 54.5 51.07 54.79 51.1 55.09 51.13 55.39 51.17 55.68 51.2 55.98 51.24 56.28 51.27 56.58 51.3 56.87 51.33 57.17 51.37 57.47 51.4 57.76 51.43 58.06 51.46 58.36 51.49 58.66 51.52 58.95 51.55 59.25 51.58 59.55 51.61 59.84 51.64 60.14 51.67 60.44 51.7 60.73 51.73 61.03 51.76 61.33 51.79 61.63 51.81 61.92 51.84 62.22 51.87 62.52 51.9 62.81 51.92 63.11 51.95 63.41 51.98 63.71 52 64 52.03 64.3 52.06 64.6 52.08 64.89 52.11 65.19 52.13 65.49 52.16 65.79 52.18 66.08 52.21 66.38 52.23 66.68 52.25 66.97 52.28 67.27 52.3 67.57 52.33 67.86 52.35 68.16 52.37 68.46 52.39 68.76 52.42 69.05 52.44 69.35 52.46 69.65 52.48 69.94 52.51 70.24 52.53 70.54 52.55 70.84 52.57 71.13 52.59 71.43 52.61 71.73 52.63 72.02 52.65 72.32 52.67 72.62 52.69 72.91 52.71 73.21 52.73 73.51 52.75 73.81 52.77 74.1 52.79 74.4 52.81 74.7 52.83 74.99 52.85 75.29 52.87 75.59 52.88 75.89 52.9 76.18 52.92 76.48 52.94 76.78 52.96 77.07 52.97 77.37 52.99 77.67 53.01 77.96 53.03 78.26 53.04 78.56 53.06 78.86 53.08 79.15 53.09 79.45 53.11 79.75 53.12 80.04 53.14 80.34 53.16 80.64 53.17 80.94 53.19 81.23 53.2 81.53 53.22 81.83 53.23 82.12 53.25 82.42 53.26 82.72 53.28 83.01 53.29 83.31 53.31 83.61 53.32 83.91 53.34 84.2 53.35 84.5 53.37 84.8 53.38 85.09 53.39 85.39 53.41 85.69 53.42 85.99 53.43 86.28 53.45 86.58 53.46 86.88 53.47 87.17 53.49 87.47 53.5 87.77 53.51 88.06 53.52 88.36 53.54 88.66 53.55 88.96 53.56 89.25 53.57 89.55 53.59 89.85 53.6 90.14 53.61 90.44 53.62 90.74 53.63 91.04 53.64 91.33 53.66 91.63 53.67 91.93 53.68 92.22 53.69 92.52 53.7 92.82 53.71 93.11 53.72 93.41 53.73 93.71 53.74 94.01 53.75 94.3 53.76 94.6 53.77"/>
      </g>
      <g stroke-width="0.3" fill="#000000" fill-opacity="0.000" class="geometry" stroke="#1A3E7B" id="fig-bce7ee9c1b2d4178a035cfdaeed2d638-element-16">
        <path fill="none" d="M20.63,44.17 L 20.93 44.26 21.23 44.36 21.52 44.46 21.82 44.55 22.12 44.64 22.41 44.73 22.71 44.83 23.01 44.92 23.31 45.01 23.6 45.09 23.9 45.18 24.2 45.27 24.49 45.36 24.79 45.44 25.09 45.53 25.38 45.61 25.68 45.69 25.98 45.78 26.28 45.86 26.57 45.94 26.87 46.02 27.17 46.1 27.46 46.18 27.76 46.26 28.06 46.34 28.36 46.41 28.65 46.49 28.95 46.56 29.25 46.64 29.54 46.71 29.84 46.79 30.14 46.86 30.43 46.93 30.73 47 31.03 47.07 31.33 47.14 31.62 47.21 31.92 47.28 32.22 47.35 32.51 47.42 32.81 47.49 33.11 47.55 33.41 47.62 33.7 47.68 34 47.75 34.3 47.81 34.59 47.88 34.89 47.94 35.19 48 35.48 48.07 35.78 48.13 36.08 48.19 36.38 48.25 36.67 48.31 36.97 48.37 37.27 48.43 37.56 48.48 37.86 48.54 38.16 48.6 38.46 48.66 38.75 48.71 39.05 48.77 39.35 48.82 39.64 48.88 39.94 48.93 40.24 48.98 40.53 49.04 40.83 49.09 41.13 49.14 41.43 49.19 41.72 49.25 42.02 49.3 42.32 49.35 42.61 49.4 42.91 49.45 43.21 49.5 43.51 49.54 43.8 49.59 44.1 49.64 44.4 49.69 44.69 49.73 44.99 49.78 45.29 49.83 45.58 49.87 45.88 49.92 46.18 49.96 46.48 50.01 46.77 50.05 47.07 50.09 47.37 50.14 47.66 50.18 47.96 50.22 48.26 50.26 48.56 50.31 48.85 50.35 49.15 50.39 49.45 50.43 49.74 50.47 50.04 50.51 50.34 50.55 50.63 50.59 50.93 50.63 51.23 50.67 51.53 50.7 51.82 50.74 52.12 50.78 52.42 50.82 52.71 50.85 53.01 50.89 53.31 50.93 53.61 50.96 53.9 51 54.2 51.03 54.5 51.07 54.79 51.1 55.09 51.13 55.39 51.17 55.68 51.2 55.98 51.24 56.28 51.27 56.58 51.3 56.87 51.33 57.17 51.37 57.47 51.4 57.76 51.43 58.06 51.46 58.36 51.49 58.66 51.52 58.95 51.55 59.25 51.58 59.55 51.61 59.84 51.64 60.14 51.67 60.44 51.7 60.73 51.73 61.03 51.76 61.33 51.79 61.63 51.81 61.92 51.84 62.22 51.87 62.52 51.9 62.81 51.92 63.11 51.95 63.41 51.98 63.71 52 64 52.03 64.3 52.06 64.6 52.08 64.89 52.11 65.19 52.13 65.49 52.16 65.79 52.18 66.08 52.21 66.38 52.23 66.68 52.25 66.97 52.28 67.27 52.3 67.57 52.33 67.86 52.35 68.16 52.37 68.46 52.39 68.76 52.42 69.05 52.44 69.35 52.46 69.65 52.48 69.94 52.51 70.24 52.53 70.54 52.55 70.84 52.57 71.13 52.59 71.43 52.61 71.73 52.63 72.02 52.65 72.32 52.67 72.62 52.69 72.91 52.71 73.21 52.73 73.51 52.75 73.81 52.77 74.1 52.79 74.4 52.81 74.7 52.83 74.99 52.85 75.29 52.87 75.59 52.88 75.89 52.9 76.18 52.92 76.48 52.94 76.78 52.96 77.07 52.97 77.37 52.99 77.67 53.01 77.96 53.03 78.26 53.04 78.56 53.06 78.86 53.08 79.15 53.09 79.45 53.11 79.75 53.13 80.04 53.14 80.34 53.16 80.64 53.17 80.94 53.19 81.23 53.2 81.53 53.22 81.83 53.23 82.12 53.25 82.42 53.26 82.72 53.28 83.01 53.29 83.31 53.31 83.61 53.32 83.91 53.34 84.2 53.35 84.5 53.37 84.8 53.38 85.09 53.39 85.39 53.41 85.69 53.42 85.99 53.43 86.28 53.45 86.58 53.46 86.88 53.47 87.17 53.49 87.47 53.5 87.77 53.51 88.06 53.52 88.36 53.54 88.66 53.55 88.96 53.56 89.25 53.57 89.55 53.59 89.85 53.6 90.14 53.61 90.44 53.62 90.74 53.63 91.04 53.64 91.33 53.66 91.63 53.67 91.93 53.68 92.22 53.69 92.52 53.7 92.82 53.71 93.11 53.72 93.41 53.73 93.71 53.74 94.01 53.75 94.3 53.76 94.6 53.77"/>
      </g>
      <g stroke-width="0.3" fill="#000000" fill-opacity="0.000" class="geometry" stroke="#264E92" id="fig-bce7ee9c1b2d4178a035cfdaeed2d638-element-17">
        <path fill="none" d="M20.63,24.86 L 20.93 25.6 21.23 26.33 21.52 27.04 21.82 27.74 22.12 28.41 22.41 29.07 22.71 29.72 23.01 30.34 23.31 30.95 23.6 31.55 23.9 32.13 24.2 32.7 24.49 33.25 24.79 33.79 25.09 34.32 25.38 34.83 25.68 35.33 25.98 35.82 26.28 36.29 26.57 36.75 26.87 37.21 27.17 37.65 27.46 38.08 27.76 38.5 28.06 38.9 28.36 39.3 28.65 39.69 28.95 40.07 29.25 40.44 29.54 40.8 29.84 41.15 30.14 41.49 30.43 41.83 30.73 42.15 31.03 42.47 31.33 42.78 31.62 43.08 31.92 43.38 32.22 43.66 32.51 43.94 32.81 44.22 33.11 44.48 33.41 44.74 33.7 44.99 34 45.24 34.3 45.48 34.59 45.72 34.89 45.95 35.19 46.17 35.48 46.39 35.78 46.6 36.08 46.81 36.38 47.01 36.67 47.2 36.97 47.4 37.27 47.58 37.56 47.77 37.86 47.94 38.16 48.12 38.46 48.29 38.75 48.45 39.05 48.61 39.35 48.77 39.64 48.92 39.94 49.07 40.24 49.22 40.53 49.36 40.83 49.5 41.13 49.63 41.43 49.76 41.72 49.89 42.02 50.02 42.32 50.14 42.61 50.26 42.91 50.37 43.21 50.48 43.51 50.6 43.8 50.7 44.1 50.81 44.4 50.91 44.69 51.01 44.99 51.11 45.29 51.2 45.58 51.29 45.88 51.38 46.18 51.47 46.48 51.56 46.77 51.64 47.07 51.72 47.37 51.8 47.66 51.88 47.96 51.95 48.26 52.03 48.56 52.1 48.85 52.17 49.15 52.24 49.45 52.31 49.74 52.37 50.04 52.43 50.34 52.5 50.63 52.56 50.93 52.61 51.23 52.67 51.53 52.73 51.82 52.78 52.12 52.83 52.42 52.89 52.71 52.94 53.01 52.99 53.31 53.03 53.61 53.08 53.9 53.13 54.2 53.17 54.5 53.21 54.79 53.26 55.09 53.3 55.39 53.34 55.68 53.38 55.98 53.42 56.28 53.45 56.58 53.49 56.87 53.52 57.17 53.56 57.47 53.59 57.76 53.63 58.06 53.66 58.36 53.69 58.66 53.72 58.95 53.75 59.25 53.78 59.55 53.81 59.84 53.83 60.14 53.86 60.44 53.89 60.73 53.91 61.03 53.94 61.33 53.96 61.63 53.99 61.92 54.01 62.22 54.03 62.52 54.05 62.81 54.08 63.11 54.1 63.41 54.12 63.71 54.14 64 54.16 64.3 54.17 64.6 54.19 64.89 54.21 65.19 54.23 65.49 54.25 65.79 54.26 66.08 54.28 66.38 54.29 66.68 54.31 66.97 54.32 67.27 54.34 67.57 54.35 67.86 54.37 68.16 54.38 68.46 54.39 68.76 54.41 69.05 54.42 69.35 54.43 69.65 54.44 69.94 54.46 70.24 54.47 70.54 54.48 70.84 54.49 71.13 54.5 71.43 54.51 71.73 54.52 72.02 54.53 72.32 54.54 72.62 54.55 72.91 54.56 73.21 54.57 73.51 54.58 73.81 54.58 74.1 54.59 74.4 54.6 74.7 54.61 74.99 54.62 75.29 54.62 75.59 54.63 75.89 54.64 76.18 54.64 76.48 54.65 76.78 54.66 77.07 54.66 77.37 54.67 77.67 54.68 77.96 54.68 78.26 54.69 78.56 54.69 78.86 54.7 79.15 54.7 79.45 54.71 79.75 54.72 80.04 54.72 80.34 54.73 80.64 54.73 80.94 54.73 81.23 54.74 81.53 54.74 81.83 54.75 82.12 54.75 82.42 54.76 82.72 54.76 83.01 54.76 83.31 54.77 83.61 54.77 83.91 54.77 84.2 54.78 84.5 54.78 84.8 54.78 85.09 54.79 85.39 54.79 85.69 54.79 85.99 54.8 86.28 54.8 86.58 54.8 86.88 54.81 87.17 54.81 87.47 54.81 87.77 54.81 88.06 54.82 88.36 54.82 88.66 54.82 88.96 54.82 89.25 54.83 89.55 54.83 89.85 54.83 90.14 54.83 90.44 54.83 90.74 54.84 91.04 54.84 91.33 54.84 91.63 54.84 91.93 54.84 92.22 54.85 92.52 54.85 92.82 54.85 93.11 54.85 93.41 54.85 93.71 54.85 94.01 54.86 94.3 54.86 94.6 54.86"/>
      </g>
      <g stroke-width="0.3" fill="#000000" fill-opacity="0.000" class="geometry" stroke="#6891E0" id="fig-bce7ee9c1b2d4178a035cfdaeed2d638-element-18">
        <path fill="none" d="M20.63,12.7 L 20.93 14.16 21.23 15.58 21.52 16.95 21.82 18.27 22.12 19.54 22.41 20.77 22.71 21.96 23.01 23.11 23.31 24.21 23.6 25.28 23.9 26.31 24.2 27.3 24.49 28.26 24.79 29.19 25.09 30.08 25.38 30.95 25.68 31.78 25.98 32.59 26.28 33.36 26.57 34.11 26.87 34.83 27.17 35.53 27.46 36.21 27.76 36.86 28.06 37.48 28.36 38.09 28.65 38.68 28.95 39.24 29.25 39.79 29.54 40.31 29.84 40.82 30.14 41.31 30.43 41.78 30.73 42.24 31.03 42.68 31.33 43.1 31.62 43.52 31.92 43.91 32.22 44.29 32.51 44.66 32.81 45.02 33.11 45.36 33.41 45.7 33.7 46.02 34 46.33 34.3 46.62 34.59 46.91 34.89 47.19 35.19 47.46 35.48 47.72 35.78 47.97 36.08 48.21 36.38 48.44 36.67 48.67 36.97 48.89 37.27 49.1 37.56 49.3 37.86 49.49 38.16 49.68 38.46 49.86 38.75 50.04 39.05 50.21 39.35 50.37 39.64 50.53 39.94 50.68 40.24 50.83 40.53 50.97 40.83 51.11 41.13 51.24 41.43 51.37 41.72 51.49 42.02 51.61 42.32 51.73 42.61 51.84 42.91 51.94 43.21 52.05 43.51 52.15 43.8 52.24 44.1 52.34 44.4 52.43 44.69 52.51 44.99 52.6 45.29 52.68 45.58 52.75 45.88 52.83 46.18 52.9 46.48 52.97 46.77 53.04 47.07 53.1 47.37 53.17 47.66 53.23 47.96 53.29 48.26 53.34 48.56 53.4 48.85 53.45 49.15 53.5 49.45 53.55 49.74 53.6 50.04 53.64 50.34 53.69 50.63 53.73 50.93 53.77 51.23 53.81 51.53 53.85 51.82 53.89 52.12 53.92 52.42 53.96 52.71 53.99 53.01 54.02 53.31 54.05 53.61 54.08 53.9 54.11 54.2 54.14 54.5 54.17 54.79 54.19 55.09 54.22 55.39 54.24 55.68 54.27 55.98 54.29 56.28 54.31 56.58 54.33 56.87 54.35 57.17 54.37 57.47 54.39 57.76 54.41 58.06 54.43 58.36 54.44 58.66 54.46 58.95 54.48 59.25 54.49 59.55 54.51 59.84 54.52 60.14 54.53 60.44 54.55 60.73 54.56 61.03 54.57 61.33 54.58 61.63 54.6 61.92 54.61 62.22 54.62 62.52 54.63 62.81 54.64 63.11 54.65 63.41 54.66 63.71 54.67 64 54.67 64.3 54.68 64.6 54.69 64.89 54.7 65.19 54.71 65.49 54.71 65.79 54.72 66.08 54.73 66.38 54.73 66.68 54.74 66.97 54.75 67.27 54.75 67.57 54.76 67.86 54.76 68.16 54.77 68.46 54.77 68.76 54.78 69.05 54.78 69.35 54.79 69.65 54.79 69.94 54.8 70.24 54.8 70.54 54.8 70.84 54.81 71.13 54.81 71.43 54.82 71.73 54.82 72.02 54.82 72.32 54.83 72.62 54.83 72.91 54.83 73.21 54.83 73.51 54.84 73.81 54.84 74.1 54.84 74.4 54.85 74.7 54.85 74.99 54.85 75.29 54.85 75.59 54.85 75.89 54.86 76.18 54.86 76.48 54.86 76.78 54.86 77.07 54.86 77.37 54.87 77.67 54.87 77.96 54.87 78.26 54.87 78.56 54.87 78.86 54.87 79.15 54.88 79.45 54.88 79.75 54.88 80.04 54.88 80.34 54.88 80.64 54.88 80.94 54.88 81.23 54.88 81.53 54.89 81.83 54.89 82.12 54.89 82.42 54.89 82.72 54.89 83.01 54.89 83.31 54.89 83.61 54.89 83.91 54.89 84.2 54.89 84.5 54.89 84.8 54.89 85.09 54.9 85.39 54.9 85.69 54.9 85.99 54.9 86.28 54.9 86.58 54.9 86.88 54.9 87.17 54.9 87.47 54.9 87.77 54.9 88.06 54.9 88.36 54.9 88.66 54.9 88.96 54.9 89.25 54.9 89.55 54.9 89.85 54.9 90.14 54.9 90.44 54.9 90.74 54.91 91.04 54.91 91.33 54.91 91.63 54.91 91.93 54.91 92.22 54.91 92.52 54.91 92.82 54.91 93.11 54.91 93.41 54.91 93.71 54.91 94.01 54.91 94.3 54.91 94.6 54.91"/>
      </g>
      <g stroke-width="0.3" fill="#000000" fill-opacity="0.000" class="geometry" stroke="#E4F7FC" id="fig-bce7ee9c1b2d4178a035cfdaeed2d638-element-19">
        <path fill="none" d="M20.63,12.7 L 20.93 14.16 21.23 15.58 21.52 16.95 21.82 18.27 22.12 19.54 22.41 20.77 22.71 21.96 23.01 23.11 23.31 24.21 23.6 25.28 23.9 26.31 24.2 27.3 24.49 28.26 24.79 29.19 25.09 30.08 25.38 30.95 25.68 31.78 25.98 32.59 26.28 33.36 26.57 34.11 26.87 34.83 27.17 35.53 27.46 36.21 27.76 36.86 28.06 37.48 28.36 38.09 28.65 38.68 28.95 39.24 29.25 39.79 29.54 40.31 29.84 40.82 30.14 41.31 30.43 41.78 30.73 42.24 31.03 42.68 31.33 43.1 31.62 43.52 31.92 43.91 32.22 44.29 32.51 44.66 32.81 45.02 33.11 45.36 33.41 45.7 33.7 46.02 34 46.33 34.3 46.62 34.59 46.91 34.89 47.19 35.19 47.46 35.48 47.72 35.78 47.97 36.08 48.21 36.38 48.44 36.67 48.67 36.97 48.89 37.27 49.1 37.56 49.3 37.86 49.49 38.16 49.68 38.46 49.86 38.75 50.04 39.05 50.21 39.35 50.37 39.64 50.53 39.94 50.68 40.24 50.83 40.53 50.97 40.83 51.11 41.13 51.24 41.43 51.37 41.72 51.49 42.02 51.61 42.32 51.73 42.61 51.84 42.91 51.94 43.21 52.05 43.51 52.15 43.8 52.24 44.1 52.34 44.4 52.43 44.69 52.51 44.99 52.6 45.29 52.68 45.58 52.75 45.88 52.83 46.18 52.9 46.48 52.97 46.77 53.04 47.07 53.1 47.37 53.17 47.66 53.23 47.96 53.29 48.26 53.34 48.56 53.4 48.85 53.45 49.15 53.5 49.45 53.55 49.74 53.6 50.04 53.64 50.34 53.69 50.63 53.73 50.93 53.77 51.23 53.81 51.53 53.85 51.82 53.89 52.12 53.92 52.42 53.96 52.71 53.99 53.01 54.02 53.31 54.05 53.61 54.08 53.9 54.11 54.2 54.14 54.5 54.17 54.79 54.19 55.09 54.22 55.39 54.24 55.68 54.27 55.98 54.29 56.28 54.31 56.58 54.33 56.87 54.35 57.17 54.37 57.47 54.39 57.76 54.41 58.06 54.43 58.36 54.44 58.66 54.46 58.95 54.48 59.25 54.49 59.55 54.51 59.84 54.52 60.14 54.53 60.44 54.55 60.73 54.56 61.03 54.57 61.33 54.58 61.63 54.6 61.92 54.61 62.22 54.62 62.52 54.63 62.81 54.64 63.11 54.65 63.41 54.66 63.71 54.67 64 54.67 64.3 54.68 64.6 54.69 64.89 54.7 65.19 54.71 65.49 54.71 65.79 54.72 66.08 54.73 66.38 54.73 66.68 54.74 66.97 54.75 67.27 54.75 67.57 54.76 67.86 54.76 68.16 54.77 68.46 54.77 68.76 54.78 69.05 54.78 69.35 54.79 69.65 54.79 69.94 54.8 70.24 54.8 70.54 54.8 70.84 54.81 71.13 54.81 71.43 54.82 71.73 54.82 72.02 54.82 72.32 54.83 72.62 54.83 72.91 54.83 73.21 54.83 73.51 54.84 73.81 54.84 74.1 54.84 74.4 54.85 74.7 54.85 74.99 54.85 75.29 54.85 75.59 54.85 75.89 54.86 76.18 54.86 76.48 54.86 76.78 54.86 77.07 54.86 77.37 54.87 77.67 54.87 77.96 54.87 78.26 54.87 78.56 54.87 78.86 54.87 79.15 54.88 79.45 54.88 79.75 54.88 80.04 54.88 80.34 54.88 80.64 54.88 80.94 54.88 81.23 54.88 81.53 54.89 81.83 54.89 82.12 54.89 82.42 54.89 82.72 54.89 83.01 54.89 83.31 54.89 83.61 54.89 83.91 54.89 84.2 54.89 84.5 54.89 84.8 54.89 85.09 54.9 85.39 54.9 85.69 54.9 85.99 54.9 86.28 54.9 86.58 54.9 86.88 54.9 87.17 54.9 87.47 54.9 87.77 54.9 88.06 54.9 88.36 54.9 88.66 54.9 88.96 54.9 89.25 54.9 89.55 54.9 89.85 54.9 90.14 54.9 90.44 54.9 90.74 54.91 91.04 54.91 91.33 54.91 91.63 54.91 91.93 54.91 92.22 54.91 92.52 54.91 92.82 54.91 93.11 54.91 93.41 54.91 93.71 54.91 94.01 54.91 94.3 54.91 94.6 54.91"/>
      </g>
      <g stroke-width="0.3" fill="#000000" fill-opacity="0.000" class="geometry" stroke="#FF0000" id="fig-bce7ee9c1b2d4178a035cfdaeed2d638-element-20">
        <path fill="none" d="M20.63,18.98 L 20.93 20.05 21.23 21.08 21.52 22.08 21.82 23.06 22.12 24 22.41 24.92 22.71 25.81 23.01 26.67 23.31 27.51 23.6 28.32 23.9 29.11 24.2 29.88 24.49 30.62 24.79 31.34 25.09 32.04 25.38 32.72 25.68 33.38 25.98 34.02 26.28 34.64 26.57 35.24 26.87 35.82 27.17 36.39 27.46 36.94 27.76 37.47 28.06 37.99 28.36 38.49 28.65 38.98 28.95 39.45 29.25 39.91 29.54 40.36 29.84 40.79 30.14 41.21 30.43 41.61 30.73 42.01 31.03 42.39 31.33 42.76 31.62 43.12 31.92 43.47 32.22 43.81 32.51 44.14 32.81 44.46 33.11 44.77 33.41 45.07 33.7 45.37 34 45.65 34.3 45.92 34.59 46.19 34.89 46.45 35.19 46.7 35.48 46.94 35.78 47.18 36.08 47.41 36.38 47.63 36.67 47.85 36.97 48.06 37.27 48.26 37.56 48.46 37.86 48.65 38.16 48.84 38.46 49.02 38.75 49.19 39.05 49.36 39.35 49.53 39.64 49.69 39.94 49.84 40.24 49.99 40.53 50.14 40.83 50.28 41.13 50.42 41.43 50.55 41.72 50.68 42.02 50.81 42.32 50.93 42.61 51.05 42.91 51.16 43.21 51.27 43.51 51.38 43.8 51.49 44.1 51.59 44.4 51.69 44.69 51.78 44.99 51.87 45.29 51.97 45.58 52.05 45.88 52.14 46.18 52.22 46.48 52.3 46.77 52.38 47.07 52.45 47.37 52.53 47.66 52.6 47.96 52.67 48.26 52.73 48.56 52.8 48.85 52.86 49.15 52.92 49.45 52.98 49.74 53.04 50.04 53.09 50.34 53.15 50.63 53.2 50.93 53.25 51.23 53.3 51.53 53.35 51.82 53.39 52.12 53.44 52.42 53.48 52.71 53.53 53.01 53.57 53.31 53.61 53.61 53.65 53.9 53.68 54.2 53.72 54.5 53.76 54.79 53.79 55.09 53.82 55.39 53.86 55.68 53.89 55.98 53.92 56.28 53.95 56.58 53.98 56.87 54 57.17 54.03 57.47 54.06 57.76 54.08 58.06 54.11 58.36 54.13 58.66 54.15 58.95 54.18 59.25 54.2 59.55 54.22 59.84 54.24 60.14 54.26 60.44 54.28 60.73 54.3 61.03 54.32 61.33 54.34 61.63 54.35 61.92 54.37 62.22 54.39 62.52 54.4 62.81 54.42 63.11 54.43 63.41 54.45 63.71 54.46 64 54.47 64.3 54.49 64.6 54.5 64.89 54.51 65.19 54.52 65.49 54.53 65.79 54.55 66.08 54.56 66.38 54.57 66.68 54.58 66.97 54.59 67.27 54.6 67.57 54.61 67.86 54.62 68.16 54.62 68.46 54.63 68.76 54.64 69.05 54.65 69.35 54.66 69.65 54.67 69.94 54.67 70.24 54.68 70.54 54.69 70.84 54.69 71.13 54.7 71.43 54.71 71.73 54.71 72.02 54.72 72.32 54.72 72.62 54.73 72.91 54.74 73.21 54.74 73.51 54.75 73.81 54.75 74.1 54.76 74.4 54.76 74.7 54.77 74.99 54.77 75.29 54.77 75.59 54.78 75.89 54.78 76.18 54.79 76.48 54.79 76.78 54.79 77.07 54.8 77.37 54.8 77.67 54.8 77.96 54.81 78.26 54.81 78.56 54.81 78.86 54.82 79.15 54.82 79.45 54.82 79.75 54.83 80.04 54.83 80.34 54.83 80.64 54.83 80.94 54.84 81.23 54.84 81.53 54.84 81.83 54.84 82.12 54.84 82.42 54.85 82.72 54.85 83.01 54.85 83.31 54.85 83.61 54.85 83.91 54.86 84.2 54.86 84.5 54.86 84.8 54.86 85.09 54.86 85.39 54.86 85.69 54.87 85.99 54.87 86.28 54.87 86.58 54.87 86.88 54.87 87.17 54.87 87.47 54.87 87.77 54.88 88.06 54.88 88.36 54.88 88.66 54.88 88.96 54.88 89.25 54.88 89.55 54.88 89.85 54.88 90.14 54.88 90.44 54.88 90.74 54.89 91.04 54.89 91.33 54.89 91.63 54.89 91.93 54.89 92.22 54.89 92.52 54.89 92.82 54.89 93.11 54.89 93.41 54.89 93.71 54.89 94.01 54.89 94.3 54.89 94.6 54.9"/>
      </g>
    </g>
  </g>
  <g class="guide ylabels" font-size="2.82" font-family="'PT Sans Caption','Helvetica Neue','Helvetica',sans-serif" fill="#6C606B" id="fig-bce7ee9c1b2d4178a035cfdaeed2d638-element-21">
    <text x="17.63" y="54.91" text-anchor="end" dy="0.35em">0.0</text>
    <text x="17.63" y="42.94" text-anchor="end" dy="0.35em">0.5</text>
    <text x="17.63" y="30.96" text-anchor="end" dy="0.35em">1.0</text>
    <text x="17.63" y="18.98" text-anchor="end" dy="0.35em">1.5</text>
    <text x="17.63" y="7" text-anchor="end" dy="0.35em">2.0</text>
  </g>
  <g font-size="3.88" font-family="'PT Sans','Helvetica Neue','Helvetica',sans-serif" fill="#564A55" stroke="#000000" stroke-opacity="0.000" id="fig-bce7ee9c1b2d4178a035cfdaeed2d638-element-22">
    <text x="8.81" y="28.96" text-anchor="middle" dy="0.35em" transform="rotate(-90, 8.81, 30.96)">P(x)</text>
  </g>
</g>
<defs>
<clipPath id="fig-bce7ee9c1b2d4178a035cfdaeed2d638-element-5">
  <path d="M18.63,5 L 96.6 5 96.6 56.91 18.63 56.91" />
</clipPath
></defs>
</svg>
